<svg viewBox="0 0 401.03 349.36" xmlns="http://www.w3.org/2000/svg"><g transform="translate(-48.32 -4.86)"><path d="m435.43 339.45c10.48-33.48 3.68-74.15-29.37-104.75 18-87.53-3.19-144.79-83.5-211.22-6.62-5.48-21.56-15.8-18.09-7.92 22 50.65 29.14 92.9 14.81 143.24-20.61-7.68-124.47-65.56-187.36-133.42-4.92 11.51 18.29 56.22 66.55 111.26-43.76-24.32-70.13-43-102.58-70.71-4.24-3.62-17.73-12.07-14.65-7.42 33.34 50.3 72.9 123.2 169.48 172.72 9.41 4.83 9.59 10.95 3 14.22-56.87 28.14-114.09 32.85-197.65-16.24-4.66-2.74-5.93-1.36-2.85 3.08 58.8 84.93 152.58 145.26 273.87 98.05 42.14-23.08 76.26-27.21 104.2 9.73 1.51 2.01 3.39 1.78 4.14-.62z" fill="#fff"/><path d="m430.8 338a95.63 95.63 0 0 0 5-26.89 94.59 94.59 0 0 0 -2.8-27.41 96.56 96.56 0 0 0 -10.72-25.64 110 110 0 0 0 -17.46-22l-.07-.06a1.79 1.79 0 0 1 -.49-1.67q1.88-12.75 2.85-25.52c.32-4.25.54-8.5.63-12.74s.14-8.48 0-12.7a191.83 191.83 0 0 0 -2.36-25.07 158.68 158.68 0 0 0 -15.68-47.06 186.17 186.17 0 0 0 -13.06-21.18c-9.58-13.62-21-26-33.16-37.69-6.06-5.87-12.37-11.51-18.81-17l-4.88-4.09-2.43-2c-.75-.61-1.54-1.23-2.34-1.83-1.6-1.21-3.25-2.39-4.89-3.49a51.84 51.84 0 0 0 -4.75-2.96c-.36-.18-.7-.35-1-.46a3.83 3.83 0 0 0 -.4-.15 3.29 3.29 0 0 0 .65.1h.69.38a6.65 6.65 0 0 0 2.15-.64 6.92 6.92 0 0 0 1.48-1 7.23 7.23 0 0 0 1.27-1.43 8.2 8.2 0 0 0 .44-.76 6.48 6.48 0 0 0 .32-.75 5.87 5.87 0 0 0 .2-.62c.05-.21.1-.44.12-.57a5.44 5.44 0 0 0 0-2.1 2.24 2.24 0 0 0 -.08-.32v.05l.11.26.64 1.52 1.28 3c1.66 4.07 3.34 8.13 4.84 12.28s3 8.31 4.32 12.53 2.53 8.5 3.66 12.79a190.49 190.49 0 0 1 4.85 26.27 161.92 161.92 0 0 1 .9 26.72c-.24 4.45-.59 8.88-1.17 13.28s-1.38 8.76-2.32 13.07a161.8 161.8 0 0 1 -7.68 25.16.71.71 0 0 1 -.48.89h-.08l-1.87.32a35.47 35.47 0 0 1 -8.3.37c-1.35-.07-2.65-.21-3.94-.38l-1.94-.28c-.64-.1-1.26-.24-1.89-.35a75.78 75.78 0 0 1 -14.39-4.37 98.41 98.41 0 0 1 -13.11-6.7q-6.34-3.7-12.6-7.52-25-15.36-48.39-33a504.21 504.21 0 0 1 -44.67-37.71 319 319 0 0 1 -38.8-43.86l3.07-.53a10.53 10.53 0 0 0 .2 3.28 23.49 23.49 0 0 0 1 3.55 63.52 63.52 0 0 0 3 7.14c1.11 2.38 2.4 4.69 3.66 7s2.6 4.65 4 6.95c5.44 9.22 11.28 18.3 17.25 27.34s12.2 18 18.44 26.92 12.62 17.87 18.72 27.1a1.85 1.85 0 0 1 -2.3 2.83c-17.18-9.62-34.14-19.7-50.47-30.78q-12.24-8.31-24-17.29c-7.84-6-15.51-12.18-23.05-18.51l-5.61-4.74a69.23 69.23 0 0 0 -5.85-4.15 52.42 52.42 0 0 0 -6.18-3.5c-.25-.11-.5-.21-.73-.29a2.79 2.79 0 0 0 -.47-.13h.13a1.27 1.27 0 0 0 .6-.25 1.45 1.45 0 0 0 .57-1 1 1 0 0 0 0-.41c0-.13.05.11.18.28l2 3.07 16.07 24.73c10.72 16.45 21.83 32.62 34 47.93a370.12 370.12 0 0 0 39.87 43 338.69 338.69 0 0 0 46.47 35.67c2.07 1.29 4.1 2.65 6.21 3.9l6.29 3.76c2.11 1.23 4.26 2.4 6.38 3.61s4.28 2.36 6.45 3.49l3.24 1.71c1.07.57 2.15 1.11 3.33 1.78a16.56 16.56 0 0 1 6.18 5.61 7.52 7.52 0 0 1 1 4.85 7.67 7.67 0 0 1 -2.32 4.35 13.14 13.14 0 0 1 -3.58 2.43l-3.32 1.66c-17.83 8.57-36.81 15.21-56.57 18.18a164.45 164.45 0 0 1 -29.86 1.61 179.88 179.88 0 0 1 -29.64-3.79c-19.53-4.14-38.25-11.3-56.12-19.9-4.47-2.15-8.92-4.35-13.29-6.69l-3.29-1.73-3.23-1.79-3.25-1.81-1.6-.89a12.2 12.2 0 0 0 -1.28-.63 3.77 3.77 0 0 0 -.47-.17c-.11 0-.18 0 0 0a2.11 2.11 0 0 0 .76-.12 2.77 2.77 0 0 0 .7-.35 2.9 2.9 0 0 0 .72-.7 2.84 2.84 0 0 0 .52-1.34 2 2 0 0 0 0-.48c0-.19.1.24.31.58a13.93 13.93 0 0 0 .79 1.21c1.43 2 2.84 4 4.3 5.89q4.35 5.86 8.94 11.52t9.41 11.12c3.22 3.63 6.5 7.21 9.91 10.65a285.58 285.58 0 0 0 21.34 19.63 235.29 235.29 0 0 0 48.24 31.25 193.29 193.29 0 0 0 54.25 16.95 195.22 195.22 0 0 0 56.6.43 233.87 233.87 0 0 0 27.91-5.63c4.59-1.25 9.18-2.55 13.7-4.06s9.05-3 13.54-4.69l-.89.41c4.62-2.5 9.38-4.78 14.24-6.92a157.41 157.41 0 0 1 15-5.72c10.24-3.31 21.32-5.37 32.63-4.55a60.18 60.18 0 0 1 16.59 3.57 61 61 0 0 1 14.82 8 77.12 77.12 0 0 1 12.1 11.11c1.8 2 3.5 4.11 5.11 6.25l1.19 1.61c.14.18.07.08 0 .08a1.82 1.82 0 0 0 -.51-.32 3.21 3.21 0 0 0 -3.23.45c-.66.62-.59.87-.59.78zm9.26 2.9a8.79 8.79 0 0 1 -2.65 3.9 6.56 6.56 0 0 1 -6.76.85 8.66 8.66 0 0 1 -3.34-2.7l-1.15-1.42c-1.55-1.87-3.16-3.68-4.84-5.4a66.55 66.55 0 0 0 -10.86-9.1 49.72 49.72 0 0 0 -12.36-6 47.69 47.69 0 0 0 -13.4-2.03c-9.16-.18-18.45 2.08-27.49 5.36a184.1 184.1 0 0 0 -26.49 12.64 6.72 6.72 0 0 1 -.79.38h-.1c-4.7 1.84-9.42 3.64-14.23 5.23s-9.67 3-14.56 4.33-9.85 2.45-14.85 3.35c-2.49.51-5 .88-7.51 1.31s-5 .76-7.56 1a201.3 201.3 0 0 1 -30.49 1.47c-5.09-.15-10.18-.52-15.25-1s-10.11-1.29-15.11-2.2a203 203 0 0 1 -57.14-20.21 243.54 243.54 0 0 1 -49.13-34.66 294.32 294.32 0 0 1 -21.17-21c-6.69-7.36-13.14-14.93-19.18-22.81q-4.55-5.89-8.83-12l-4.27-6.09a20.23 20.23 0 0 1 -1.15-1.86 9 9 0 0 1 -1-2.7 4.91 4.91 0 0 1 -.05-1.29 4 4 0 0 1 .73-2 3.92 3.92 0 0 1 .95-.94 4.09 4.09 0 0 1 1-.5 4.53 4.53 0 0 1 1.53-.22 6.52 6.52 0 0 1 1.75.3 10.79 10.79 0 0 1 1.22.45 19.13 19.13 0 0 1 2 1l1.61.93 3.17 1.83 3.17 1.82 3.21 1.75c4.26 2.37 8.59 4.59 12.95 6.77a261.33 261.33 0 0 0 26.82 11.4l6.88 2.36 6.94 2.13c2.34.62 4.67 1.26 7 1.82s4.7 1.12 7.07 1.55a165.25 165.25 0 0 0 28.56 3.3 156.9 156.9 0 0 0 28.49-2.16c18.77-3.32 36.73-10.14 53.71-19l3.18-1.66c.33-.17.35-.2.51-.29s.23-.15.31-.22a1.13 1.13 0 0 0 .31-.31s0 0-.13.13a2.22 2.22 0 0 0 -.31.79 2.72 2.72 0 0 0 0 .92c0 .22.07.31.05.3a8.83 8.83 0 0 0 -.85-.76 14.57 14.57 0 0 0 -2-1.23l-6.35-3.17c-2.25-1.11-4.5-2.23-6.7-3.44s-4.45-2.33-6.63-3.58l-6.5-3.77c-2.18-1.25-4.29-2.62-6.45-3.93a314.15 314.15 0 0 1 -48.11-36.49 377.7 377.7 0 0 1 -40.7-44.46c-12.41-15.75-23.36-32.46-33.94-49.15-5.31-8.33-10.38-16.76-15.55-25l-2-3.14c-.17-.27-.36-.57-.57-1-.12-.24-.22-.43-.36-.79a8.87 8.87 0 0 1 -.41-1.26 7.72 7.72 0 0 1 -.14-2.85 7.37 7.37 0 0 1 6.45-6.31 8 8 0 0 1 1.72 0 10.16 10.16 0 0 1 2.61.61c.54.2 1 .39 1.36.57a41 41 0 0 1 3.9 2.12c1.17.71 2.28 1.43 3.38 2.16a78.39 78.39 0 0 1 6.54 4.86l5.59 4.94c7.29 6.48 14.65 12.85 22.2 19 3.77 3.07 7.6 6.08 11.45 9.06s7.73 5.92 11.66 8.81 7.91 5.71 11.93 8.48 8 5.57 12.12 8.27c8.16 5.4 16.38 10.78 24.69 16l-2.29 2.84a253.61 253.61 0 0 1 -23.46-23.63 287 287 0 0 1 -20.62-26.26 190.74 190.74 0 0 1 -16.93-29.06 99.92 99.92 0 0 1 -5.87-16.1 50.37 50.37 0 0 1 -1.53-8.71 28.62 28.62 0 0 1 .06-4.64 12.25 12.25 0 0 1 1.48-4.81 1.51 1.51 0 0 1 2.6-1l.46.5a461.77 461.77 0 0 0 41.93 39.39c14.72 12.34 30.08 23.92 45.78 35s31.84 21.56 48.3 31.49q12.34 7.45 25 14.39c4.21 2.31 8.45 4.56 12.72 6.71s8.6 4.26 12.94 6l-2.43 1.23c1.46-8.47 2.68-16.9 3.32-25.33.36-4.21.54-8.42.57-12.62s0-8.38-.19-12.55a195.54 195.54 0 0 0 -2.92-24.89c-.74-4.09-1.71-8.15-2.65-12.2s-2.14-8.06-3.3-12.07-2.49-8-3.91-11.93-2.82-7.9-4.38-11.82-3.13-7.83-4.78-11.72l-1.27-2.91-.63-1.46-.21-.49c-.09-.21-.18-.44-.28-.7a13.3 13.3 0 0 1 -.54-1.87 9.83 9.83 0 0 1 -.1-3.7 7.62 7.62 0 0 1 .16-.76c.07-.28.16-.55.25-.81a9.32 9.32 0 0 1 .41-.94 7.68 7.68 0 0 1 .55-.93 8.44 8.44 0 0 1 1.57-1.69 8.66 8.66 0 0 1 1.82-1.22 9.08 9.08 0 0 1 2.92-.85l.58-.05h.92.37a11.87 11.87 0 0 1 2.24.39 18.55 18.55 0 0 1 2.63.94c.72.32 1.35.63 1.95.94a66.51 66.51 0 0 1 6.26 3.85c1.93 1.32 3.77 2.66 5.6 4.07.91.7 1.82 1.42 2.73 2.18l2.54 2.13 5 4.26c6.61 5.74 13.1 11.66 19.38 17.83a265.32 265.32 0 0 1 34.05 40.69 171.51 171.51 0 0 1 22.54 48.49 167.59 167.59 0 0 1 5.58 52.79q-.31 6.6-1 13.13c-.48 4.36-1.11 8.69-1.83 13-1.39 8.62-3.37 17.1-5.55 25.49l-.56-1.73a68.53 68.53 0 0 1 24.11 18.92 80.22 80.22 0 0 1 14.85 27.66 70.6 70.6 0 0 1 2.25 31.38 130.84 130.84 0 0 1 -8.5 29.61z"/></g></svg>