<?xml version="1.0" encoding="utf-8"?>
<!-- Generator: Adobe Illustrator 22.1.0, SVG Export Plug-In . SVG Version: 6.00 Build 0)  -->
<svg version="1.1" id="Layer_1" xmlns:sketch="http://www.bohemiancoding.com/sketch/ns"
	 xmlns="http://www.w3.org/2000/svg" xmlns:xlink="http://www.w3.org/1999/xlink" x="0px" y="0px" viewBox="0 0 40 40"
	 style="enable-background:new 0 0 40 40;" xml:space="preserve">
<style type="text/css">
	.st0{fill:#FFFFFF;}
	.st1{fill:#4285F4;}
	.st2{fill:#34A853;}
	.st3{fill:#FBBC05;}
	.st4{fill:#EA4335;}
</style>
<path class="st0" d="M38,0H2C0.9,0,0,0.9,0,2v36c0,1.1,0.9,2,2,2h36c1.1,0,2-0.9,2-2V2C40,0.9,39.1,0,38,0z"/>
<path class="st1" d="M28.5,18.4H20v3.5h4.8C24.6,23,24,23.9,23,24.6l2.9,2.3c1.7-1.6,2.7-3.9,2.7-6.6C28.6,19.6,28.6,19,28.5,18.4z"
	/>
<path class="st2" d="M23,24.6c-0.8,0.5-1.8,0.9-3,0.9c-2.3,0-4.3-1.6-5-3.7L12,24c1.5,2.9,4.5,5,8,5c2.4,0,4.5-0.8,6-2.2L23,24.6z"
	/>
<path class="st3" d="M15,18.3L12,16c-0.6,1.2-1,2.6-1,4s0.3,2.8,1,4l3-2.3c-0.2-0.5-0.3-1.1-0.3-1.7S14.8,18.8,15,18.3z"/>
<path class="st4" d="M20,11c-3.5,0-6.6,2-8,5l3,2.3c0.7-2.1,2.7-3.7,5-3.7c1.3,0,2.5,0.5,3.4,1.3l2.6-2.6C24.5,11.9,22.4,11,20,11z"
	/>
</svg>
