<svg xmlns="http://www.w3.org/2000/svg" viewBox="0 0 243.9 70.16728"><defs><style>.a{fill:#d2e5b3;}.a,.b{stroke:#3d4752;stroke-miterlimit:10;stroke-width:0.9px;}.b{fill:none;}.c{fill:#3d4752;}</style></defs><title>database design diagrams</title><path class="a" d="M90.45,2.7V18.45h-90V2.7A2.22821,2.22821,0,0,1,2.7.45H88.2A2.25978,2.25978,0,0,1,90.45,2.7Z"/><path class="b" d="M90.45,18.45V67.46728a2.29312,2.29312,0,0,1-2.25,2.25H2.7a2.25978,2.25978,0,0,1-2.25-2.25V18.45h90Z"/><path class="a" d="M243.45,2.93V18.68h-90V2.93A2.222,2.222,0,0,1,155.7.68h85.5A2.25323,2.25323,0,0,1,243.45,2.93Z"/><path class="b" d="M243.45,18.68V67.46728a2.28636,2.28636,0,0,1-2.25,2.25H155.7a2.25338,2.25338,0,0,1-2.25-2.25V18.68h90Z"/><line class="b" x1="90.45002" y1="27.67504" x2="153.45" y2="27.67504"/><polygon class="c" points="100.44 27.675 90.63 32.58 90.45 32.175 90.45 31.68 98.415 27.675 90.45 23.67 90.45 23.175 90.63 22.77 100.44 27.675"/><polygon class="c" points="153.45 23.58 145.26 27.675 153.45 31.77 153.045 32.58 143.235 27.675 153.045 22.77 153.45 23.58"/><path class="c" d="M10.02637,8.258a1.23063,1.23063,0,0,0-.46-0.356,1.2933,1.2933,0,0,0-.54785-0.13232,1.61872,1.61872,0,0,0-.27637.02441,0.69746,0.69746,0,0,0-.252.0918,0.62289,0.62289,0,0,0-.18848.17578,0.46872,0.46872,0,0,0-.0752.27637,0.44435,0.44435,0,0,0,.05957.23975,0.53423,0.53423,0,0,0,.17578.168,1.553,1.553,0,0,0,.27637.13232c0.10645,0.03955.22656,0.08105,0.36035,0.12354,0.19141,0.06445.3916,0.13477,0.59961,0.2124a2.24531,2.24531,0,0,1,.56836.30762,1.64139,1.64139,0,0,1,.42383.47607,1.37769,1.37769,0,0,1,.168.708,1.848,1.848,0,0,1-.18066.84424,1.67877,1.67877,0,0,1-.4834.58789,2.07508,2.07508,0,0,1-.69629.34424,2.93759,2.93759,0,0,1-.80762.11182A3.33734,3.33734,0,0,1,7.51465,12.382a2.49793,2.49793,0,0,1-.94434-0.604l0.89551-.91211a1.64884,1.64884,0,0,0,.54883.42822,1.483,1.483,0,0,0,.67578.17188,1.35334,1.35334,0,0,0,.2959-0.03223,0.7295,0.7295,0,0,0,.252-0.104,0.51865,0.51865,0,0,0,.17188-0.19189,0.6006,0.6006,0,0,0,.06445-0.28809,0.46037,0.46037,0,0,0-.08008-0.272,0.79171,0.79171,0,0,0-.22852-0.2041,1.86559,1.86559,0,0,0-.36816-0.168q-0.21973-.07544-0.5-0.16406a4.75174,4.75174,0,0,1-.53125-0.208,1.78585,1.78585,0,0,1-.46484-0.30762A1.42,1.42,0,0,1,6.97461,9.07a1.54123,1.54123,0,0,1-.124-0.65234A1.602,1.602,0,0,1,7.042,7.61006,1.668,1.668,0,0,1,7.5459,7.05782,2.17511,2.17511,0,0,1,8.25,6.7419a3.207,3.207,0,0,1,.792-0.1001,2.94876,2.94876,0,0,1,.98047.17627,2.52433,2.52433,0,0,1,.876.52Z"/><path class="c" d="M13.22363,9.4421V10.968a0.68444,0.68444,0,0,0,.1084.42139,0.46239,0.46239,0,0,0,.3877.14063,1.37459,1.37459,0,0,0,.2041-0.01611,0.70917,0.70917,0,0,0,.18066-0.04785l0.01563,0.96a2.18694,2.18694,0,0,1-.34375.084,2.443,2.443,0,0,1-.416.03613,1.95193,1.95193,0,0,1-.67187-0.10059,1.03913,1.03913,0,0,1-.43652-0.28857,1.14245,1.14245,0,0,1-.23633-0.44922,2.19076,2.19076,0,0,1-.07129-0.58154V9.4421H11.30371V8.466h0.63281V7.41768h1.28711V8.466h0.93652V9.4421H13.22363Z"/><path class="c" d="M17.64258,12.44991V11.89815H17.627a1.13963,1.13963,0,0,1-.18848.25586,1.18416,1.18416,0,0,1-.27148.208,1.701,1.701,0,0,1-.34375.144,1.39432,1.39432,0,0,1-.39648.05566,1.44357,1.44357,0,0,1-.67578-0.144,1.29839,1.29839,0,0,1-.44824-0.37158,1.48191,1.48191,0,0,1-.248-0.52,2.35408,2.35408,0,0,1-.07617-0.59619V8.466h1.32031v2.15967a1.98265,1.98265,0,0,0,.02441.32031,0.782,0.782,0,0,0,.0918.272,0.50784,0.50784,0,0,0,.17969.188,0.5673,0.5673,0,0,0,.2959.06787A0.60043,0.60043,0,0,0,17.415,11.218a1.01594,1.01594,0,0,0,.17969-0.6001V8.466h1.3125v3.98389H17.64258Z"/><path class="c" d="M23.10742,12.44991v-0.52h-0.0166a1.2456,1.2456,0,0,1-.54785.46826,1.79127,1.79127,0,0,1-.75586.16357,1.76438,1.76438,0,0,1-.7998-0.17578,1.8341,1.8341,0,0,1-.59668-0.46826,2.0553,2.0553,0,0,1-.37109-0.67578,2.49507,2.49507,0,0,1-.12891-0.7998,2.4144,2.4144,0,0,1,.13281-0.79639,2.074,2.074,0,0,1,.376-0.668,1.75252,1.75252,0,0,1,1.37207-.624,1.51746,1.51746,0,0,1,.74316.168,1.658,1.658,0,0,1,.47266.36816h0.01563V6.40206h1.3125v6.04785h-1.208Zm-0.04785-2a1.08636,1.08636,0,0,0-.06836-0.376,1.07188,1.07188,0,0,0-.19238-0.32812,0.951,0.951,0,0,0-.2998-0.23193A0.88428,0.88428,0,0,0,22.09863,9.426a0.89923,0.89923,0,0,0-.40723.08789,0.92657,0.92657,0,0,0-.2959.228,0.93727,0.93727,0,0,0-.18066.32422,1.20134,1.20134,0,0,0-.05957.376,1.24162,1.24162,0,0,0,.05957.37988,0.97765,0.97765,0,0,0,.18066.332,0.88385,0.88385,0,0,0,.70313.31982,0.88428,0.88428,0,0,0,.40039-0.08789,0.951,0.951,0,0,0,.2998-0.23193,1.07188,1.07188,0,0,0,.19238-0.32812A1.08636,1.08636,0,0,0,23.05957,10.44991Z"/><path class="c" d="M29.44727,10.50606v0.15967a1.50571,1.50571,0,0,1-.00781.15234h-2.8877a0.69874,0.69874,0,0,0,.09961.30371,0.86247,0.86247,0,0,0,.21582.23633,1.06262,1.06262,0,0,0,.63574.21191,1.10026,1.10026,0,0,0,.52832-0.11621,1.04149,1.04149,0,0,0,.35254-0.2998l0.91113,0.57568a1.84584,1.84584,0,0,1-.73926.62842,2.45323,2.45323,0,0,1-1.06836.21973,2.54733,2.54733,0,0,1-.84766-0.14014,2.06,2.06,0,0,1-.7002-0.40771,1.88286,1.88286,0,0,1-.47168-0.66016,2.20043,2.20043,0,0,1-.17285-0.896A2.23517,2.23517,0,0,1,25.46387,9.59a1.996,1.996,0,0,1,.45508-0.67236,2.04517,2.04517,0,0,1,.68066-0.42773,2.32781,2.32781,0,0,1,.84766-0.15186,2.15416,2.15416,0,0,1,.80859.14795,1.76739,1.76739,0,0,1,.63184.42773,2.00016,2.00016,0,0,1,.41211.68018A2.61851,2.61851,0,0,1,29.44727,10.50606Zm-1.208-.50439A0.786,0.786,0,0,0,28.043,9.466a0.73774,0.73774,0,0,0-.58789-0.22412,0.99131,0.99131,0,0,0-.35156.06006,0.91764,0.91764,0,0,0-.28027.16406,0.81108,0.81108,0,0,0-.19141.24365,0.69773,0.69773,0,0,0-.08008.292h1.6875Z"/><path class="c" d="M33.03125,12.44991V10.27413a1.7769,1.7769,0,0,0-.02832-0.32031,0.87653,0.87653,0,0,0-.0918-0.26807,0.48179,0.48179,0,0,0-.17969-0.18408,0.57417,0.57417,0,0,0-.292-0.06787,0.67434,0.67434,0,0,0-.30859.06787,0.624,0.624,0,0,0-.21973.18848,0.84964,0.84964,0,0,0-.13184.27588,1.18826,1.18826,0,0,0-.04395.32373v2.16016H30.415V8.466H31.6875V9.01778h0.01563a1.30144,1.30144,0,0,1,.18848-0.252,1.1333,1.1333,0,0,1,.27148-0.21191,1.73841,1.73841,0,0,1,.33984-0.144,1.3528,1.3528,0,0,1,.39258-0.05615,1.47481,1.47481,0,0,1,.67969.144,1.31039,1.31039,0,0,1,.45215.37207,1.47233,1.47233,0,0,1,.248.52393,2.37224,2.37224,0,0,1,.07617.59229v2.46387H33.03125Z"/><path class="c" d="M36.95215,9.4421V10.968a0.68444,0.68444,0,0,0,.1084.42139,0.46239,0.46239,0,0,0,.3877.14063,1.37459,1.37459,0,0,0,.2041-0.01611A0.70917,0.70917,0,0,0,37.833,11.466l0.01563,0.96a2.18693,2.18693,0,0,1-.34375.084,2.443,2.443,0,0,1-.416.03613,1.95193,1.95193,0,0,1-.67187-0.10059,1.03913,1.03913,0,0,1-.43652-0.28857,1.14245,1.14245,0,0,1-.23633-0.44922,2.19076,2.19076,0,0,1-.07129-0.58154V9.4421H35.03223V8.466H35.665V7.41768h1.28711V8.466h0.93652V9.4421H36.95215Z"/><path class="c" d="M9.9541,26.8337A1.26532,1.26532,0,0,0,9.498,26.45381a1.39551,1.39551,0,0,0-.64746-0.14795,1.51525,1.51525,0,0,0-.38867.05225,1.05471,1.05471,0,0,0-.35547.168,0.91549,0.91549,0,0,0-.25977.2876,0.80054,0.80054,0,0,0-.10059.41211,0.75146,0.75146,0,0,0,.0918.38818,0.846,0.846,0,0,0,.248.26416,1.58028,1.58028,0,0,0,.36816.18359q0.2124,0.07617.45215,0.15625,0.28857,0.08789.584,0.19971a2.11664,2.11664,0,0,1,.53613.29639,1.45522,1.45522,0,0,1,.3916.46,1.43723,1.43723,0,0,1,.15234.69971,1.67124,1.67124,0,0,1-.16406.76416,1.56743,1.56743,0,0,1-.43652.53613,1.85477,1.85477,0,0,1-.62793.31592,2.59641,2.59641,0,0,1-.73145.104,2.67107,2.67107,0,0,1-1.03613-.208,2.06048,2.06048,0,0,1-.82812-0.61621l0.61621-.52a1.52047,1.52047,0,0,0,1.66406.6084,1.13573,1.13573,0,0,0,.36426-0.17627A0.98059,0.98059,0,0,0,9.6582,30.382a0.8577,0.8577,0,0,0,.10352-0.436,0.7885,0.7885,0,0,0-.10742-0.42822,0.96788,0.96788,0,0,0-.292-0.292,1.95316,1.95316,0,0,0-.42773-0.2041q-0.24463-.0835-0.5166-0.17187a4.56433,4.56433,0,0,1-.53613-0.1958,1.86538,1.86538,0,0,1-.47168-0.2959,1.36236,1.36236,0,0,1-.33594-0.44434A1.502,1.502,0,0,1,6.94629,27.258a1.45977,1.45977,0,0,1,.17188-0.728,1.55583,1.55583,0,0,1,.44824-0.50391,1.85237,1.85237,0,0,1,.624-0.292,2.71467,2.71467,0,0,1,.7002-0.09229,2.43986,2.43986,0,0,1,.92773.17627,1.85236,1.85236,0,0,1,.69629.47168Z"/><path class="c" d="M13.59961,28.27413H12.5918v1.96973a0.75043,0.75043,0,0,0,.12793.49072,0.51374,0.51374,0,0,0,.4082.14746,1.24472,1.24472,0,0,0,.22363-0.022,0.90228,0.90228,0,0,0,.21582-0.06592l0.02441,0.61572a1.83959,1.83959,0,0,1-.2998.07617,2.02909,2.02909,0,0,1-.33984.02783,1.08468,1.08468,0,0,1-.82031-0.2959,1.23709,1.23709,0,0,1-.28418-0.88818V28.27413H11.12012V27.65792h0.72754V26.57H12.5918v1.08789h1.00781v0.61621Z"/><path class="c" d="M17.21777,31.44991c-0.01074-.09619-0.01953-0.2041-0.02441-0.32422-0.00488-.11963-0.00781-0.21973-0.00781-0.2998H17.16992a1.24376,1.24376,0,0,1-.48437.51611,1.40113,1.40113,0,0,1-.75586.21191,1.54182,1.54182,0,0,1-.63574-0.12012,1.16178,1.16178,0,0,1-.44043-0.332,1.401,1.401,0,0,1-.25586-0.4917,2.05859,2.05859,0,0,1-.084-0.6001V27.65792h0.752v2.09619a2.60183,2.60183,0,0,0,.03613.44385,1.04533,1.04533,0,0,0,.13184.37207,0.717,0.717,0,0,0,.26367.25586,0.86524,0.86524,0,0,0,.43262.09619,0.90513,0.90513,0,0,0,.73535-0.34033,1.3843,1.3843,0,0,0,.28027-0.90771V27.65792h0.752V30.634c0,0.10107.00293,0.23193,0.00781,0.39209,0.00586,0.15967.01367,0.30127,0.02441,0.42383H17.21777Z"/><path class="c" d="M22.35254,30.84981a1.39241,1.39241,0,0,1-.58789.52393,1.76753,1.76753,0,0,1-.78027.18018,1.94613,1.94613,0,0,1-.792-0.15576,1.77473,1.77473,0,0,1-.59961-0.42822,1.91967,1.91967,0,0,1-.38379-0.64014,2.23771,2.23771,0,0,1-.13672-0.78369,2.20889,2.20889,0,0,1,.13672-0.78027,1.89022,1.89022,0,0,1,.3877-0.63574,1.76882,1.76882,0,0,1,.60352-0.42432,1.94715,1.94715,0,0,1,.77637-0.15186,1.60332,1.60332,0,0,1,.80762.1958,1.68147,1.68147,0,0,1,.54492.47607h0.01563V25.40206h0.752v6.04785H22.36914v-0.6001h-0.0166ZM19.85645,29.55a1.63511,1.63511,0,0,0,.08008.51025,1.31451,1.31451,0,0,0,.24023.439,1.259,1.259,0,0,0,1.46.311,1.2686,1.2686,0,0,0,.4043-0.29932,1.36161,1.36161,0,0,0,.25977-0.43457,1.51054,1.51054,0,0,0,0-1.03711,1.41324,1.41324,0,0,0-.25977-0.43848,1.24422,1.24422,0,0,0-.4043-0.30322,1.21336,1.21336,0,0,0-.52441-0.11182,1.24643,1.24643,0,0,0-.54395.11182,1.165,1.165,0,0,0-.3916.30322,1.31221,1.31221,0,0,0-.24023.43848A1.63815,1.63815,0,0,0,19.85645,29.55Z"/><path class="c" d="M28.0752,29.52169V29.6501a0.94411,0.94411,0,0,1-.00879.12793H25.05078a1.10321,1.10321,0,0,0,.1084.44873,1.17209,1.17209,0,0,0,.26758.36572,1.32491,1.32491,0,0,0,1.52051.16162,1.35436,1.35436,0,0,0,.43945-0.4082L27.915,30.76973a1.88909,1.88909,0,0,1-.71582.59375,2.29815,2.29815,0,0,1-1.7168.04639,1.85,1.85,0,0,1-.63184-0.40381,1.88139,1.88139,0,0,1-.416-0.62793,2.11614,2.11614,0,0,1-.15137-0.81641,2.17923,2.17923,0,0,1,.14746-0.812,1.841,1.841,0,0,1,1.03906-1.04785,2.14514,2.14514,0,0,1,1.53516-.01172,1.5689,1.5689,0,0,1,.57715.3916,1.76473,1.76473,0,0,1,.36426.62012A2.446,2.446,0,0,1,28.0752,29.52169ZM27.30664,29.218a1.39517,1.39517,0,0,0-.07617-0.41992,0.92213,0.92213,0,0,0-.52734-0.56836,1.16824,1.16824,0,0,0-.46-0.084,1.22,1.22,0,0,0-.45215.084,1.17421,1.17421,0,0,0-.36816.228,1.18807,1.18807,0,0,0-.25586.34033,1.07169,1.07169,0,0,0-.11621.41992h2.25586Z"/><path class="c" d="M29.916,27.65792q0.01611,0.14429.02344,0.32422,0.00879,0.17944.00879,0.2998h0.02344a1.10649,1.10649,0,0,1,.19629-0.28418,1.42046,1.42046,0,0,1,.28418-0.23193,1.39513,1.39513,0,0,1,.35156-0.15576,1.41418,1.41418,0,0,1,.40039-0.05615,1.47748,1.47748,0,0,1,.63184.124,1.28977,1.28977,0,0,1,.44043.332,1.35451,1.35451,0,0,1,.25977.48779,2.09208,2.09208,0,0,1,.084.6001v2.35205h-0.752v-2.104A2.63509,2.63509,0,0,0,31.832,28.906a1.08153,1.08153,0,0,0-.13184-0.36816,0.71984,0.71984,0,0,0-.26465-0.25586,0.86131,0.86131,0,0,0-.43164-0.09619,0.91147,0.91147,0,0,0-.73242.34033,1.36936,1.36936,0,0,0-.2832.90771v2.01611h-0.752V28.47383q0-.15161-0.00879-0.39209c-0.00488-.15967-0.0127-0.30127-0.02344-0.42383H29.916Z"/><path class="c" d="M35.90625,28.27413H34.89844v1.96973a0.75043,0.75043,0,0,0,.12793.49072,0.51374,0.51374,0,0,0,.4082.14746,1.24472,1.24472,0,0,0,.22363-0.022,0.90228,0.90228,0,0,0,.21582-0.06592l0.02441,0.61572a1.83959,1.83959,0,0,1-.2998.07617,2.02909,2.02909,0,0,1-.33984.02783,1.08468,1.08468,0,0,1-.82031-0.2959,1.23709,1.23709,0,0,1-.28418-0.88818V28.27413H33.42676V27.65792H34.1543V26.57h0.74414v1.08789h1.00781v0.61621Z"/><path class="c" d="M39.51465,31.44991h-0.792V25.78585h0.792v5.66406Z"/><path class="c" d="M41.05762,25.78585H43.001a3.82922,3.82922,0,0,1,1.08789.16016,2.91493,2.91493,0,0,1,.98438.50391,2.59173,2.59173,0,0,1,.71191.87988,2.81529,2.81529,0,0,1,.27246,1.28809,2.73346,2.73346,0,0,1-.27246,1.26025,2.63944,2.63944,0,0,1-.71191.87988,3.06312,3.06312,0,0,1-.98437.52,3.58829,3.58829,0,0,1-1.08789.17188H41.05762V25.78585Zm0.792,4.96826h0.99121a3.01591,3.01591,0,0,0,.94824-0.144,2.19625,2.19625,0,0,0,.752-0.416,1.85431,1.85431,0,0,0,.49219-0.67236,2.22416,2.22416,0,0,0,.17578-0.90381,2.287,2.287,0,0,0-.17578-0.92773,1.82363,1.82363,0,0,0-.49219-0.66846,2.18073,2.18073,0,0,0-.752-0.40771,3.08859,3.08859,0,0,0-.94824-0.14014H41.84961v4.28027Z"/><path class="c" d="M7.13867,40.78585H9.08984a2.893,2.893,0,0,1,.64063.07227,1.68916,1.68916,0,0,1,.57129.23975,1.28932,1.28932,0,0,1,.4082.43994,1.34674,1.34674,0,0,1,.15625.68018,1.17986,1.17986,0,0,1-.27246.792,1.38442,1.38442,0,0,1-.71973.43994V43.466a1.64417,1.64417,0,0,1,.50391.13965,1.31785,1.31785,0,0,1,.40039.28418,1.23485,1.23485,0,0,1,.25977.416,1.48474,1.48474,0,0,1,.0918.53613,1.44515,1.44515,0,0,1-.168.71191,1.43049,1.43049,0,0,1-.45605.5,2.12114,2.12114,0,0,1-.67578.2959,3.29518,3.29518,0,0,1-.82812.1001H7.13867V40.78585Zm0.792,2.39209H8.96191a1.713,1.713,0,0,0,.42871-0.05225A1.05605,1.05605,0,0,0,9.74609,42.966a0.78381,0.78381,0,0,0,.24023-0.272,0.828,0.828,0,0,0,.08789-0.396,0.69578,0.69578,0,0,0-.33594-0.65234,1.79306,1.79306,0,0,0-.9043-0.1958H7.93066v1.728Zm0,2.6001H8.92188a2.89974,2.89974,0,0,0,.5-0.04395,1.45973,1.45973,0,0,0,.45605-0.15625,0.907,0.907,0,0,0,.32813-0.2998,0.84586,0.84586,0,0,0,.124-0.47607,0.80343,0.80343,0,0,0-.34375-0.728,1.82264,1.82264,0,0,0-.99219-0.22412H7.93066V45.778Z"/><path class="c" d="M13.23438,41.28975a0.45074,0.45074,0,0,1-.14746.34424,0.5,0.5,0,0,1-.35254.13574,0.48145,0.48145,0,0,1-.34961-0.13965,0.4606,0.4606,0,0,1-.14258-0.34033,0.46838,0.46838,0,0,1,.14258-0.34766,0.48188,0.48188,0,0,1,.34961-0.14014,0.49349,0.49349,0,0,1,.35254.14014A0.4618,0.4618,0,0,1,13.23438,41.28975Zm-0.12012,5.16016h-0.752v-3.792h0.752v3.792Z"/><path class="c" d="M14.52734,43.08174c-0.00488-.15967-0.0127-0.30127-0.02344-0.42383h0.71191c0.01074,0.09619.01855,0.20654,0.02344,0.332q0.00879,0.18823.00879,0.30811h0.02344a1.30979,1.30979,0,0,1,.46777-0.54,1.22689,1.22689,0,0,1,.69238-0.2041,1.15976,1.15976,0,0,1,.2959.03223l-0.03223.6958a1.40029,1.40029,0,0,0-.34375-0.04,1.0369,1.0369,0,0,0-.47168.1001,0.95791,0.95791,0,0,0-.332.26807,1.1394,1.1394,0,0,0-.19629.3877,1.63031,1.63031,0,0,0-.06348.46v1.99219h-0.752V43.47383Q14.53613,43.32222,14.52734,43.08174Z"/><path class="c" d="M19.7666,43.27413H18.75879v1.96973a0.75043,0.75043,0,0,0,.12793.49072,0.51374,0.51374,0,0,0,.4082.14746,1.24472,1.24472,0,0,0,.22363-0.022,0.90228,0.90228,0,0,0,.21582-0.06592l0.02441,0.61572a1.83959,1.83959,0,0,1-.2998.07617,2.02909,2.02909,0,0,1-.33984.02783,1.08468,1.08468,0,0,1-.82031-0.2959,1.23709,1.23709,0,0,1-.28418-0.88818V43.27413H17.28711V42.65792h0.72754V41.57h0.74414v1.08789H19.7666v0.61621Z"/><path class="c" d="M21.49023,43.23409a1.172,1.172,0,0,1,.46484-0.48,1.38287,1.38287,0,0,1,.73535-0.2002,1.47748,1.47748,0,0,1,.63184.124,1.27133,1.27133,0,0,1,.44043.332,1.33966,1.33966,0,0,1,.25977.48779,2.09208,2.09208,0,0,1,.084.6001v2.35205h-0.752V44.34883a2.55263,2.55263,0,0,0-.03613-0.44141,1.04453,1.04453,0,0,0-.13184-0.36865,0.72363,0.72363,0,0,0-.25977-0.25684,0.84071,0.84071,0,0,0-.42773-0.09619,0.92214,0.92214,0,0,0-.73633.34082,1.36292,1.36292,0,0,0-.28809.91064v2.0127h-0.752V40.40206h0.752v2.832h0.01563Z"/><path class="c" d="M30.40234,45.84981a1.39241,1.39241,0,0,1-.58789.52393,1.76753,1.76753,0,0,1-.78027.18018,1.94613,1.94613,0,0,1-.792-0.15576,1.77474,1.77474,0,0,1-.59961-0.42822,1.91967,1.91967,0,0,1-.38379-0.64014,2.23771,2.23771,0,0,1-.13672-0.78369,2.20889,2.20889,0,0,1,.13672-0.78027,1.89022,1.89022,0,0,1,.3877-0.63574A1.76882,1.76882,0,0,1,28.25,42.70577a1.94715,1.94715,0,0,1,.77637-0.15186,1.60332,1.60332,0,0,1,.80762.1958,1.68147,1.68147,0,0,1,.54492.47607h0.01563V40.40206h0.752v6.04785H30.41895v-0.6001h-0.0166ZM27.90625,44.55a1.63511,1.63511,0,0,0,.08008.51025,1.31451,1.31451,0,0,0,.24023.439,1.259,1.259,0,0,0,1.46.311,1.2686,1.2686,0,0,0,.4043-0.29932,1.36161,1.36161,0,0,0,.25977-0.43457,1.51054,1.51054,0,0,0,0-1.03711,1.41324,1.41324,0,0,0-.25977-0.43848,1.24422,1.24422,0,0,0-.4043-0.30322,1.21336,1.21336,0,0,0-.52441-0.11182,1.24643,1.24643,0,0,0-.54395.11182,1.165,1.165,0,0,0-.3916.30322,1.31221,1.31221,0,0,0-.24023.43848A1.63815,1.63815,0,0,0,27.90625,44.55Z"/><path class="c" d="M34.94336,43.99385a0.75311,0.75311,0,0,0-.25586-0.62793,1.05866,1.05866,0,0,0-.67969-0.2041,1.49633,1.49633,0,0,0-.60449.124,1.53219,1.53219,0,0,0-.47559.31592l-0.40039-.48a2.026,2.026,0,0,1,.68457-0.416,2.44581,2.44581,0,0,1,.86719-0.15186,1.94863,1.94863,0,0,1,.708.11621,1.33552,1.33552,0,0,1,.49219.31592,1.28853,1.28853,0,0,1,.28809.47168,1.732,1.732,0,0,1,.0957.584V45.698c0,0.12793.00488,0.2627,0.0127,0.40381a2.04164,2.04164,0,0,0,.04395.34814H35.03906a2.40452,2.40452,0,0,1-.06348-0.54395H34.95117a1.464,1.464,0,0,1-.52344.47217,1.57487,1.57487,0,0,1-.748.168,1.95172,1.95172,0,0,1-.46777-0.06006,1.35115,1.35115,0,0,1-.44434-0.19629,1.09636,1.09636,0,0,1-.332-0.35986,1.071,1.071,0,0,1-.13184-0.55176,0.97218,0.97218,0,0,1,.23145-0.68408,1.47777,1.47777,0,0,1,.6084-0.38428,3.44973,3.44973,0,0,1,.84766-0.17187q0.47314-.04028.95215-0.04v-0.104Zm-0.18359.64795q-0.27979,0-.58008.02393a2.68673,2.68673,0,0,0-.54395.09619,1.02725,1.02725,0,0,0-.4043.21582,0.49282,0.49282,0,0,0-.16016.38428,0.52573,0.52573,0,0,0,.06836.27979,0.56273,0.56273,0,0,0,.17969.18408,0.72848,0.72848,0,0,0,.248.1001,1.39912,1.39912,0,0,0,.28027.02783,1.03406,1.03406,0,0,0,.81152-0.31592,1.14538,1.14538,0,0,0,.28418-0.7959V44.6418H34.75977Z"/><path class="c" d="M38.94141,43.27413H37.93359v1.96973a0.75043,0.75043,0,0,0,.12793.49072,0.51374,0.51374,0,0,0,.4082.14746,1.24472,1.24472,0,0,0,.22363-0.022,0.90228,0.90228,0,0,0,.21582-0.06592l0.02441,0.61572a1.83959,1.83959,0,0,1-.2998.07617,2.02909,2.02909,0,0,1-.33984.02783,1.08468,1.08468,0,0,1-.82031-0.2959,1.23709,1.23709,0,0,1-.28418-0.88818V43.27413H36.46191V42.65792h0.72754V41.57h0.74414v1.08789h1.00781v0.61621Z"/><path class="c" d="M43.38184,44.52169V44.6501a0.94411,0.94411,0,0,1-.00879.12793H40.35742a1.10321,1.10321,0,0,0,.1084.44873,1.17209,1.17209,0,0,0,.26758.36572,1.32491,1.32491,0,0,0,1.52051.16162,1.35436,1.35436,0,0,0,.43945-0.4082l0.52832,0.42383a1.88909,1.88909,0,0,1-.71582.59375,2.29815,2.29815,0,0,1-1.7168.04639,1.85,1.85,0,0,1-.63184-0.40381,1.88139,1.88139,0,0,1-.416-0.62793,2.11614,2.11614,0,0,1-.15137-0.81641,2.17923,2.17923,0,0,1,.14746-0.812,1.841,1.841,0,0,1,1.03906-1.04785,2.14514,2.14514,0,0,1,1.53516-.01172,1.5689,1.5689,0,0,1,.57715.3916,1.76473,1.76473,0,0,1,.36426.62012A2.446,2.446,0,0,1,43.38184,44.52169ZM42.61328,44.218a1.39517,1.39517,0,0,0-.07617-0.41992,0.92213,0.92213,0,0,0-.52734-0.56836,1.16824,1.16824,0,0,0-.46-0.084,1.22,1.22,0,0,0-.45215.084,1.17421,1.17421,0,0,0-.36816.228,1.18807,1.18807,0,0,0-.25586.34033,1.07169,1.07169,0,0,0-.11621.41992h2.25586Z"/><path class="c" d="M11.41016,56.95381a1.83972,1.83972,0,0,0-.65234-0.44775,2.235,2.235,0,0,0-.88379-0.168,2.16166,2.16166,0,0,0-.89551.17969,2.01253,2.01253,0,0,0-.68066.49219,2.22892,2.22892,0,0,0-.43164.72412,2.50339,2.50339,0,0,0-.15234.876,2.56126,2.56126,0,0,0,.15234.8877,2.174,2.174,0,0,0,.43164.72412,1.9615,1.9615,0,0,0,.68848.48389,2.27307,2.27307,0,0,0,.91211.17627,3.48365,3.48365,0,0,0,.73535-0.07227,2.12458,2.12458,0,0,0,.584-0.208V59.02608H9.96191V58.35372h2.04v2.74414a4.11015,4.11015,0,0,1-.97559.36816A4.91129,4.91129,0,0,1,9.874,61.594a3.279,3.279,0,0,1-1.21973-.22021,2.7555,2.7555,0,0,1-1.58008-1.56006,3.1499,3.1499,0,0,1-.22363-1.20361,3.11761,3.11761,0,0,1,.22754-1.21191,2.73268,2.73268,0,0,1,.63184-0.936,2.86755,2.86755,0,0,1,.95605-0.604,3.26688,3.26688,0,0,1,1.2002-.21631,3.42812,3.42812,0,0,1,1.21191.2002,2.5672,2.5672,0,0,1,.88379.53613Z"/><path class="c" d="M13.44238,58.08174c-0.00488-.15967-0.0127-0.30127-0.02344-0.42383h0.71191c0.01074,0.09619.01855,0.20654,0.02344,0.332q0.00879,0.18823.00879,0.30811h0.02344a1.30979,1.30979,0,0,1,.46777-0.54,1.22689,1.22689,0,0,1,.69238-0.2041,1.15976,1.15976,0,0,1,.2959.03223l-0.03223.6958a1.40029,1.40029,0,0,0-.34375-0.04,1.0369,1.0369,0,0,0-.47168.1001,0.95791,0.95791,0,0,0-.332.26807,1.1394,1.1394,0,0,0-.19629.3877,1.63031,1.63031,0,0,0-.06348.46v1.99219h-0.752V58.47383Q13.45117,58.32222,13.44238,58.08174Z"/><path class="c" d="M18.90918,58.99385a0.75311,0.75311,0,0,0-.25586-0.62793,1.05866,1.05866,0,0,0-.67969-0.2041,1.49633,1.49633,0,0,0-.60449.124,1.53219,1.53219,0,0,0-.47559.31592l-0.40039-.48a2.026,2.026,0,0,1,.68457-0.416,2.44581,2.44581,0,0,1,.86719-0.15186,1.94863,1.94863,0,0,1,.708.11621,1.33552,1.33552,0,0,1,.49219.31592,1.28853,1.28853,0,0,1,.28809.47168,1.732,1.732,0,0,1,.0957.584V60.698c0,0.12793.00488,0.2627,0.0127,0.40381a2.04164,2.04164,0,0,0,.04395.34814H19.00488a2.40452,2.40452,0,0,1-.06348-0.54395H18.917a1.464,1.464,0,0,1-.52344.47217,1.57487,1.57487,0,0,1-.748.168,1.95172,1.95172,0,0,1-.46777-0.06006,1.35115,1.35115,0,0,1-.44434-0.19629,1.09636,1.09636,0,0,1-.332-0.35986,1.071,1.071,0,0,1-.13184-0.55176A0.97218,0.97218,0,0,1,16.501,59.694a1.47777,1.47777,0,0,1,.6084-0.38428A3.44973,3.44973,0,0,1,17.957,59.1379q0.47314-.04028.95215-0.04v-0.104Zm-0.18359.64795q-0.27979,0-.58008.02393a2.68673,2.68673,0,0,0-.54395.09619,1.02725,1.02725,0,0,0-.4043.21582,0.49282,0.49282,0,0,0-.16016.38428,0.52573,0.52573,0,0,0,.06836.27979,0.56273,0.56273,0,0,0,.17969.18408,0.72848,0.72848,0,0,0,.248.1001,1.39912,1.39912,0,0,0,.28027.02783A1.03406,1.03406,0,0,0,18.625,60.6379a1.14538,1.14538,0,0,0,.28418-0.7959V59.6418H18.72559Z"/><path class="c" d="M24.0332,60.84981a1.39241,1.39241,0,0,1-.58789.52393,1.76753,1.76753,0,0,1-.78027.18018,1.94613,1.94613,0,0,1-.792-0.15576,1.77473,1.77473,0,0,1-.59961-0.42822,1.91967,1.91967,0,0,1-.38379-0.64014,2.23771,2.23771,0,0,1-.13672-0.78369,2.20889,2.20889,0,0,1,.13672-0.78027,1.89022,1.89022,0,0,1,.3877-0.63574,1.76882,1.76882,0,0,1,.60352-0.42432,1.94715,1.94715,0,0,1,.77637-0.15186,1.60332,1.60332,0,0,1,.80762.1958,1.68147,1.68147,0,0,1,.54492.47607h0.01563V55.40206h0.752v6.04785H24.0498v-0.6001H24.0332ZM21.53711,59.55a1.63511,1.63511,0,0,0,.08008.51025,1.31451,1.31451,0,0,0,.24023.439,1.259,1.259,0,0,0,1.46.311,1.2686,1.2686,0,0,0,.4043-0.29932,1.36161,1.36161,0,0,0,.25977-0.43457,1.51054,1.51054,0,0,0,0-1.03711,1.41324,1.41324,0,0,0-.25977-0.43848,1.24422,1.24422,0,0,0-.4043-0.30322,1.21336,1.21336,0,0,0-.52441-0.11182,1.24643,1.24643,0,0,0-.54395.11182,1.165,1.165,0,0,0-.3916.30322,1.31221,1.31221,0,0,0-.24023.43848A1.63815,1.63815,0,0,0,21.53711,59.55Z"/><path class="c" d="M29.75781,59.52169V59.6501a0.94411,0.94411,0,0,1-.00879.12793H26.7334a1.10321,1.10321,0,0,0,.1084.44873,1.17209,1.17209,0,0,0,.26758.36572,1.32491,1.32491,0,0,0,1.52051.16162,1.35436,1.35436,0,0,0,.43945-0.4082l0.52832,0.42383a1.88909,1.88909,0,0,1-.71582.59375,2.29815,2.29815,0,0,1-1.7168.04639,1.85,1.85,0,0,1-.63184-0.40381,1.88139,1.88139,0,0,1-.416-0.62793,2.11614,2.11614,0,0,1-.15137-0.81641,2.17923,2.17923,0,0,1,.14746-0.812,1.841,1.841,0,0,1,1.03906-1.04785,2.14514,2.14514,0,0,1,1.53516-.01172,1.5689,1.5689,0,0,1,.57715.3916,1.76473,1.76473,0,0,1,.36426.62012A2.446,2.446,0,0,1,29.75781,59.52169ZM28.98926,59.218a1.39517,1.39517,0,0,0-.07617-0.41992,0.92213,0.92213,0,0,0-.52734-0.56836,1.16824,1.16824,0,0,0-.46-0.084,1.22,1.22,0,0,0-.45215.084,1.17421,1.17421,0,0,0-.36816.228,1.18807,1.18807,0,0,0-.25586.34033,1.07169,1.07169,0,0,0-.11621.41992h2.25586Z"/><path class="c" d="M33.56543,61.44991h-0.752V55.40206h0.752v6.04785Z"/><path class="c" d="M38.54785,59.52169V59.6501a0.94411,0.94411,0,0,1-.00879.12793H35.52344a1.10321,1.10321,0,0,0,.1084.44873,1.17209,1.17209,0,0,0,.26758.36572,1.32491,1.32491,0,0,0,1.52051.16162,1.35436,1.35436,0,0,0,.43945-0.4082l0.52832,0.42383a1.88909,1.88909,0,0,1-.71582.59375,2.29815,2.29815,0,0,1-1.7168.04639,1.85,1.85,0,0,1-.63184-0.40381,1.88139,1.88139,0,0,1-.416-0.62793,2.11614,2.11614,0,0,1-.15137-0.81641,2.17923,2.17923,0,0,1,.14746-0.812,1.841,1.841,0,0,1,1.03906-1.04785,2.14514,2.14514,0,0,1,1.53516-.01172,1.5689,1.5689,0,0,1,.57715.3916,1.76473,1.76473,0,0,1,.36426.62012A2.446,2.446,0,0,1,38.54785,59.52169ZM37.7793,59.218a1.39517,1.39517,0,0,0-.07617-0.41992,0.92213,0.92213,0,0,0-.52734-0.56836,1.16824,1.16824,0,0,0-.46-0.084,1.22,1.22,0,0,0-.45215.084,1.17421,1.17421,0,0,0-.36816.228,1.18807,1.18807,0,0,0-.25586.34033,1.07169,1.07169,0,0,0-.11621.41992H37.7793Z"/><path class="c" d="M41.44336,61.44991H40.62793l-1.54395-3.792h0.832l1.11133,2.98389h0.0166l1.12012-2.98389h0.7998Z"/><path class="c" d="M47.28613,59.52169V59.6501a0.94411,0.94411,0,0,1-.00879.12793H44.26172a1.10321,1.10321,0,0,0,.1084.44873,1.17209,1.17209,0,0,0,.26758.36572,1.32491,1.32491,0,0,0,1.52051.16162,1.35436,1.35436,0,0,0,.43945-0.4082L47.126,60.76973a1.88909,1.88909,0,0,1-.71582.59375,2.29815,2.29815,0,0,1-1.7168.04639,1.85,1.85,0,0,1-.63184-0.40381,1.88139,1.88139,0,0,1-.416-0.62793,2.11614,2.11614,0,0,1-.15137-0.81641,2.17923,2.17923,0,0,1,.14746-0.812,1.841,1.841,0,0,1,1.03906-1.04785,2.14514,2.14514,0,0,1,1.53516-.01172,1.5689,1.5689,0,0,1,.57715.3916,1.76473,1.76473,0,0,1,.36426.62012A2.446,2.446,0,0,1,47.28613,59.52169ZM46.51758,59.218a1.39517,1.39517,0,0,0-.07617-0.41992,0.92213,0.92213,0,0,0-.52734-0.56836,1.16824,1.16824,0,0,0-.46-0.084,1.22,1.22,0,0,0-.45215.084,1.17421,1.17421,0,0,0-.36816.228,1.18807,1.18807,0,0,0-.25586.34033,1.07169,1.07169,0,0,0-.11621.41992h2.25586Z"/><path class="c" d="M49.22754,61.44991h-0.752V55.40206h0.752v6.04785Z"/><path class="c" d="M164.08984,12.34981a3.03052,3.03052,0,0,1-1.27148.252,3.31467,3.31467,0,0,1-1.21191-.21582,2.80031,2.80031,0,0,1-1.60449-1.56006,3.32558,3.32558,0,0,1,.00391-2.44775,2.74119,2.74119,0,0,1,.65234-0.94043,2.89394,2.89394,0,0,1,.97559-0.5957,3.50116,3.50116,0,0,1,2.38867.00391,2.25567,2.25567,0,0,1,.93945.62012l-0.92773.92773a1.15047,1.15047,0,0,0-.50391-0.39209,1.68013,1.68013,0,0,0-.63965-0.12793,1.61538,1.61538,0,0,0-.66016.13232,1.55021,1.55021,0,0,0-.5166.36377,1.66956,1.66956,0,0,0-.33594.54785,1.93441,1.93441,0,0,0-.12012.69238,1.98535,1.98535,0,0,0,.12012.70361,1.64086,1.64086,0,0,0,.332.54834,1.501,1.501,0,0,0,.50781.356,1.61612,1.61612,0,0,0,.64844.12793,1.50417,1.50417,0,0,0,.71191-0.16016,1.3764,1.3764,0,0,0,.48828-0.416l0.95215,0.896A2.69879,2.69879,0,0,1,164.08984,12.34981Z"/><path class="c" d="M169.91406,10.4421a2.14013,2.14013,0,0,1-.17676.88379,1.98466,1.98466,0,0,1-.47949.67188,2.20665,2.20665,0,0,1-.7041.42822,2.47728,2.47728,0,0,1-1.708,0,2.14447,2.14447,0,0,1-.7041-0.42822,2.00187,2.00187,0,0,1-.47559-0.67187,2.1559,2.1559,0,0,1-.17676-0.88379,2.13147,2.13147,0,0,1,.17676-0.88037,1.96781,1.96781,0,0,1,.47559-0.66357,2.06057,2.06057,0,0,1,.7041-0.416,2.60362,2.60362,0,0,1,1.708,0,2.11746,2.11746,0,0,1,.7041.416,1.95124,1.95124,0,0,1,.47949.66357A2.11594,2.11594,0,0,1,169.91406,10.4421Zm-1.26465,0a1.15142,1.15142,0,0,0-.06348-0.376,0.996,0.996,0,0,0-.18457-0.32422,0.93742,0.93742,0,0,0-.2959-0.228,0.98962,0.98962,0,0,0-.81543,0,0.87977,0.87977,0,0,0-.292.228,0.96168,0.96168,0,0,0-.17676.32422,1.21627,1.21627,0,0,0,0,.752,1.03067,1.03067,0,0,0,.18066.332,0.88681,0.88681,0,0,0,.2959.23584,0.98962,0.98962,0,0,0,.81543,0,0.88084,0.88084,0,0,0,.29688-0.23584,1.04722,1.04722,0,0,0,.17969-0.332A1.20358,1.20358,0,0,0,168.64941,10.4421Z"/><path class="c" d="M173.50781,12.44991V11.89815h-0.01562a1.13963,1.13963,0,0,1-.18848.25586,1.18416,1.18416,0,0,1-.27148.208,1.701,1.701,0,0,1-.34375.144,1.39432,1.39432,0,0,1-.39648.05566,1.44357,1.44357,0,0,1-.67578-0.144,1.29839,1.29839,0,0,1-.44824-0.37158,1.48191,1.48191,0,0,1-.248-0.52,2.35407,2.35407,0,0,1-.07617-0.59619V8.466h1.32031v2.15967a1.98265,1.98265,0,0,0,.02441.32031,0.782,0.782,0,0,0,.0918.272,0.50784,0.50784,0,0,0,.17969.188,0.5673,0.5673,0,0,0,.2959.06787,0.60043,0.60043,0,0,0,.52441-0.25586,1.01594,1.01594,0,0,0,.17969-0.6001V8.466h1.3125v3.98389h-1.26465Z"/><path class="c" d="M178.53027,9.5461a1.00113,1.00113,0,0,0-.17187-0.03223c-0.05566-.00537-0.11035-0.00781-0.16406-0.00781a0.93046,0.93046,0,0,0-.44336.0957,0.89809,0.89809,0,0,0-.28809.23145,0.873,0.873,0,0,0-.15625.29492,0.98116,0.98116,0,0,0-.04785.2793v2.04248h-1.3125V8.47042h1.26465V9.04659h0.01563a1.30179,1.30179,0,0,1,.43164-0.49951,1.11383,1.11383,0,0,1,.64844-0.19336,1.49366,1.49366,0,0,1,.15625.0083,0.60049,0.60049,0,0,1,.124.02393Z"/><path class="c" d="M181.71094,9.6418a1.48861,1.48861,0,0,0-.376-0.25586,1.04259,1.04259,0,0,0-.45605-0.104,0.80763,0.80763,0,0,0-.34082.07178,0.253,0.253,0,0,0-.15527.248,0.246,0.246,0,0,0,.17188.24023,3.75093,3.75093,0,0,0,.55566.15967,3.05,3.05,0,0,1,.45215.13623,1.60446,1.60446,0,0,1,.41211.23193,1.127,1.127,0,0,1,.2959.35205,1.038,1.038,0,0,1,.1123.49609,1.23683,1.23683,0,0,1-.15234.63574,1.25616,1.25616,0,0,1-.39551.42041,1.72473,1.72473,0,0,1-.54883.23193,2.633,2.633,0,0,1-.60742.07178,3.00267,3.00267,0,0,1-.95605-0.15576,2.00493,2.00493,0,0,1-.78027-0.46l0.73633-.77637a1.468,1.468,0,0,0,.43164.32031,1.2009,1.2009,0,0,0,.54395.12793,0.71752,0.71752,0,0,0,.31641-0.07617,0.27351,0.27351,0,0,0,.15625-0.26807,0.28811,0.28811,0,0,0-.19238-0.272,3.49807,3.49807,0,0,0-.59961-0.18408,2.93047,2.93047,0,0,1-.416-0.12793,1.28822,1.28822,0,0,1-.37207-0.21582,1.07739,1.07739,0,0,1-.26855-0.33594,1.0289,1.0289,0,0,1-.10352-0.48,1.17147,1.17147,0,0,1,.15137-0.6123,1.28675,1.28675,0,0,1,.39258-0.41162,1.73552,1.73552,0,0,1,.53223-0.23633,2.30632,2.30632,0,0,1,.5791-0.07568,2.80044,2.80044,0,0,1,.876.13965,1.88969,1.88969,0,0,1,.72461.42041Z"/><path class="c" d="M187.25,10.50606v0.15967a1.50571,1.50571,0,0,1-.00781.15234h-2.8877a0.69874,0.69874,0,0,0,.09961.30371,0.86246,0.86246,0,0,0,.21582.23633,1.06261,1.06261,0,0,0,.63574.21191,1.10026,1.10026,0,0,0,.52832-0.11621,1.04149,1.04149,0,0,0,.35254-0.2998l0.91113,0.57568a1.84584,1.84584,0,0,1-.73926.62842,2.45323,2.45323,0,0,1-1.06836.21973,2.54733,2.54733,0,0,1-.84766-0.14014,2.06,2.06,0,0,1-.7002-0.40771,1.88286,1.88286,0,0,1-.47168-0.66016,2.20043,2.20043,0,0,1-.17285-0.896A2.23517,2.23517,0,0,1,183.2666,9.59a1.996,1.996,0,0,1,.45508-0.67236,2.04517,2.04517,0,0,1,.68066-0.42773A2.32781,2.32781,0,0,1,185.25,8.33809a2.15416,2.15416,0,0,1,.80859.14795,1.76739,1.76739,0,0,1,.63184.42773,2.00016,2.00016,0,0,1,.41211.68018A2.61851,2.61851,0,0,1,187.25,10.50606Zm-1.208-.50439A0.786,0.786,0,0,0,185.8457,9.466a0.73774,0.73774,0,0,0-.58789-0.22412,0.99131,0.99131,0,0,0-.35156.06006,0.91764,0.91764,0,0,0-.28027.16406,0.81108,0.81108,0,0,0-.19141.24365,0.69773,0.69773,0,0,0-.08008.292h1.6875Z"/><path class="c" d="M162.9541,26.8337a1.26532,1.26532,0,0,0-.45605-0.37988,1.39551,1.39551,0,0,0-.64746-0.14795,1.51525,1.51525,0,0,0-.38867.05225,1.05471,1.05471,0,0,0-.35547.168,0.91549,0.91549,0,0,0-.25977.2876,0.80055,0.80055,0,0,0-.10059.41211,0.75146,0.75146,0,0,0,.0918.38818,0.846,0.846,0,0,0,.248.26416,1.58028,1.58028,0,0,0,.36816.18359q0.2124,0.07617.45215,0.15625,0.28857,0.08789.584,0.19971a2.11664,2.11664,0,0,1,.53613.29639,1.45523,1.45523,0,0,1,.3916.46,1.43723,1.43723,0,0,1,.15234.69971,1.67124,1.67124,0,0,1-.16406.76416,1.56743,1.56743,0,0,1-.43652.53613,1.85477,1.85477,0,0,1-.62793.31592,2.59641,2.59641,0,0,1-.73145.104,2.67107,2.67107,0,0,1-1.03613-.208,2.06048,2.06048,0,0,1-.82812-0.61621l0.61621-.52a1.52047,1.52047,0,0,0,1.66406.6084,1.13573,1.13573,0,0,0,.36426-0.17627,0.98058,0.98058,0,0,0,.26758-0.2998,0.8577,0.8577,0,0,0,.10352-0.436,0.7885,0.7885,0,0,0-.10742-0.42822,0.96788,0.96788,0,0,0-.292-0.292,1.95316,1.95316,0,0,0-.42773-0.2041q-0.24463-.0835-0.5166-0.17187a4.56433,4.56433,0,0,1-.53613-0.1958,1.86538,1.86538,0,0,1-.47168-0.2959,1.36236,1.36236,0,0,1-.33594-0.44434,1.502,1.502,0,0,1-.12793-0.65576,1.45977,1.45977,0,0,1,.17188-0.728,1.55583,1.55583,0,0,1,.44824-0.50391,1.85237,1.85237,0,0,1,.624-0.292,2.71467,2.71467,0,0,1,.7002-0.09229,2.43986,2.43986,0,0,1,.92773.17627,1.85236,1.85236,0,0,1,.69629.47168Z"/><path class="c" d="M165.64453,26.28975a0.45074,0.45074,0,0,1-.14746.34424,0.5,0.5,0,0,1-.35254.13574,0.48145,0.48145,0,0,1-.34961-0.13965,0.4606,0.4606,0,0,1-.14258-0.34033,0.46838,0.46838,0,0,1,.14258-0.34766,0.48188,0.48188,0,0,1,.34961-0.14014,0.49349,0.49349,0,0,1,.35254.14014A0.4618,0.4618,0,0,1,165.64453,26.28975Zm-0.12012,5.16016h-0.752v-3.792h0.752v3.792Z"/><path class="c" d="M169.623,28.27413l-2.15918,2.54395h2.248v0.63184h-3.17676V30.8337l2.14453-2.55957h-2.04V27.65792h2.9834v0.61621Z"/><path class="c" d="M174.21,29.52169V29.6501a0.94412,0.94412,0,0,1-.00879.12793h-3.01562a1.10321,1.10321,0,0,0,.1084.44873,1.1721,1.1721,0,0,0,.26758.36572,1.32491,1.32491,0,0,0,1.52051.16162,1.35436,1.35436,0,0,0,.43945-0.4082l0.52832,0.42383a1.88909,1.88909,0,0,1-.71582.59375,2.29815,2.29815,0,0,1-1.7168.04639,1.85,1.85,0,0,1-.63184-0.40381,1.88138,1.88138,0,0,1-.416-0.62793,2.11614,2.11614,0,0,1-.15137-0.81641,2.17923,2.17923,0,0,1,.14746-0.812,1.841,1.841,0,0,1,1.03906-1.04785,2.14514,2.14514,0,0,1,1.53516-.01172,1.5689,1.5689,0,0,1,.57715.3916,1.76473,1.76473,0,0,1,.36426.62012A2.446,2.446,0,0,1,174.21,29.52169Zm-0.76855-.30371a1.39517,1.39517,0,0,0-.07617-0.41992,0.92213,0.92213,0,0,0-.52734-0.56836,1.16824,1.16824,0,0,0-.46-0.084,1.22,1.22,0,0,0-.45215.084,1.17421,1.17421,0,0,0-.36816.228,1.18808,1.18808,0,0,0-.25586.34033,1.07169,1.07169,0,0,0-.11621.41992h2.25586Z"/><path class="c" d="M162.12207,46.44991h-0.792V41.48214h-1.81543V40.78585h4.42383v0.69629h-1.81641v4.96777Z"/><path class="c" d="M167.77051,44.52169V44.6501a0.94412,0.94412,0,0,1-.00879.12793h-3.01562a1.10321,1.10321,0,0,0,.1084.44873,1.17209,1.17209,0,0,0,.26758.36572,1.32491,1.32491,0,0,0,1.52051.16162,1.35436,1.35436,0,0,0,.43945-0.4082l0.52832,0.42383a1.88909,1.88909,0,0,1-.71582.59375,2.29815,2.29815,0,0,1-1.7168.04639,1.85,1.85,0,0,1-.63184-0.40381,1.88139,1.88139,0,0,1-.416-0.62793,2.11614,2.11614,0,0,1-.15137-0.81641,2.17923,2.17923,0,0,1,.14746-0.812,1.841,1.841,0,0,1,1.03906-1.04785,2.14514,2.14514,0,0,1,1.53516-.01172,1.5689,1.5689,0,0,1,.57715.3916,1.76473,1.76473,0,0,1,.36426.62012A2.446,2.446,0,0,1,167.77051,44.52169ZM167.002,44.218a1.39517,1.39517,0,0,0-.07617-0.41992,0.92213,0.92213,0,0,0-.52734-0.56836,1.16824,1.16824,0,0,0-.46-0.084,1.22,1.22,0,0,0-.45215.084,1.17421,1.17421,0,0,0-.36816.228,1.18807,1.18807,0,0,0-.25586.34033,1.07169,1.07169,0,0,0-.11621.41992H167.002Z"/><path class="c" d="M171.291,43.99385a0.75311,0.75311,0,0,0-.25586-0.62793,1.05866,1.05866,0,0,0-.67969-0.2041,1.49633,1.49633,0,0,0-.60449.124,1.53219,1.53219,0,0,0-.47559.31592l-0.40039-.48a2.026,2.026,0,0,1,.68457-0.416,2.44581,2.44581,0,0,1,.86719-0.15186,1.94863,1.94863,0,0,1,.708.11621,1.33553,1.33553,0,0,1,.49219.31592,1.28853,1.28853,0,0,1,.28809.47168,1.732,1.732,0,0,1,.0957.584V45.698c0,0.12793.00488,0.2627,0.0127,0.40381a2.04164,2.04164,0,0,0,.04395.34814h-0.68066a2.40452,2.40452,0,0,1-.06348-0.54395h-0.02441a1.464,1.464,0,0,1-.52344.47217,1.57487,1.57487,0,0,1-.748.168,1.95172,1.95172,0,0,1-.46777-0.06006,1.35116,1.35116,0,0,1-.44434-0.19629,1.09636,1.09636,0,0,1-.332-0.35986,1.071,1.071,0,0,1-.13184-0.55176,0.97218,0.97218,0,0,1,.23145-0.68408,1.47777,1.47777,0,0,1,.6084-0.38428,3.44973,3.44973,0,0,1,.84766-0.17187q0.47314-.04028.95215-0.04v-0.104Zm-0.18359.64795q-0.27979,0-.58008.02393a2.68673,2.68673,0,0,0-.54395.09619,1.02725,1.02725,0,0,0-.4043.21582,0.49282,0.49282,0,0,0-.16016.38428,0.52573,0.52573,0,0,0,.06836.27979,0.56273,0.56273,0,0,0,.17969.18408,0.72848,0.72848,0,0,0,.248.1001,1.39912,1.39912,0,0,0,.28027.02783,1.03406,1.03406,0,0,0,.81152-0.31592,1.14538,1.14538,0,0,0,.28418-0.7959V44.6418h-0.18359Z"/><path class="c" d="M176.043,43.61788a0.929,0.929,0,0,0-.35937-0.30811,1.10381,1.10381,0,0,0-.5127-0.124,1.16917,1.16917,0,0,0-.52344.1123,1.20667,1.20667,0,0,0-.38867.2998,1.31773,1.31773,0,0,0-.24316.436,1.65194,1.65194,0,0,0,0,1.04,1.31288,1.31288,0,0,0,.24316.436,1.17746,1.17746,0,0,0,.9209.41211,1.20529,1.20529,0,0,0,.52344-0.1123,1.06643,1.06643,0,0,0,.3877-0.30371l0.50488,0.45605a1.634,1.634,0,0,1-.60059.436,2.04081,2.04081,0,0,1-.81543.15576,2.22725,2.22725,0,0,1-.8125-0.144,1.92046,1.92046,0,0,1-.64355-0.40381,1.86862,1.86862,0,0,1-.42871-0.62793A2.26991,2.26991,0,0,1,173.291,43.738a1.87576,1.87576,0,0,1,.42383-0.63232,1.90566,1.90566,0,0,1,.64453-0.40771,2.20236,2.20236,0,0,1,.80371-0.144,2.10344,2.10344,0,0,1,.7959.16016,1.44682,1.44682,0,0,1,.62793.46387Z"/><path class="c" d="M178.28516,43.23409a1.172,1.172,0,0,1,.46484-0.48,1.38287,1.38287,0,0,1,.73535-0.2002,1.47748,1.47748,0,0,1,.63184.124,1.27133,1.27133,0,0,1,.44043.332,1.33966,1.33966,0,0,1,.25977.48779,2.09208,2.09208,0,0,1,.084.6001v2.35205h-0.752V44.34883a2.55263,2.55263,0,0,0-.03613-0.44141,1.04453,1.04453,0,0,0-.13184-0.36865,0.72363,0.72363,0,0,0-.25977-0.25684,0.84071,0.84071,0,0,0-.42773-0.09619,0.92214,0.92214,0,0,0-.73633.34082,1.36292,1.36292,0,0,0-.28809.91064v2.0127h-0.752V40.40206h0.752v2.832h0.01563Z"/><path class="c" d="M185.8457,44.52169V44.6501a0.94412,0.94412,0,0,1-.00879.12793h-3.01562a1.10321,1.10321,0,0,0,.1084.44873,1.1721,1.1721,0,0,0,.26758.36572,1.32491,1.32491,0,0,0,1.52051.16162,1.35437,1.35437,0,0,0,.43945-0.4082l0.52832,0.42383a1.88909,1.88909,0,0,1-.71582.59375,2.29815,2.29815,0,0,1-1.7168.04639,1.85,1.85,0,0,1-.63184-0.40381,1.88138,1.88138,0,0,1-.416-0.62793,2.11614,2.11614,0,0,1-.15137-0.81641,2.17923,2.17923,0,0,1,.14746-0.812,1.841,1.841,0,0,1,1.03906-1.04785,2.14514,2.14514,0,0,1,1.53516-.01172,1.5689,1.5689,0,0,1,.57715.3916,1.76473,1.76473,0,0,1,.36426.62012A2.446,2.446,0,0,1,185.8457,44.52169Zm-0.76855-.30371a1.39517,1.39517,0,0,0-.07617-0.41992,0.92213,0.92213,0,0,0-.52734-0.56836,1.16824,1.16824,0,0,0-.46-0.084,1.22,1.22,0,0,0-.45215.084,1.17421,1.17421,0,0,0-.36816.228,1.18807,1.18807,0,0,0-.25586.34033,1.07169,1.07169,0,0,0-.11621.41992h2.25586Z"/><path class="c" d="M187.00488,43.08174c-0.00488-.15967-0.0127-0.30127-0.02344-0.42383h0.71191c0.01074,0.09619.01855,0.20654,0.02344,0.332q0.00879,0.18823.00879,0.30811H187.749a1.30979,1.30979,0,0,1,.46777-0.54,1.22689,1.22689,0,0,1,.69238-0.2041,1.15976,1.15976,0,0,1,.2959.03223l-0.03223.6958a1.40029,1.40029,0,0,0-.34375-0.04,1.0369,1.0369,0,0,0-.47168.1001,0.95791,0.95791,0,0,0-.332.26807,1.1394,1.1394,0,0,0-.19629.3877,1.63031,1.63031,0,0,0-.06348.46v1.99219h-0.752V43.47383Q187.01367,43.32222,187.00488,43.08174Z"/><path class="c" d="M192.74121,46.44991h-0.792V40.78585h0.792v5.66406Z"/><path class="c" d="M194.28418,40.78585h1.94336a3.82922,3.82922,0,0,1,1.08789.16016,2.91493,2.91493,0,0,1,.98438.50391,2.59173,2.59173,0,0,1,.71191.87988,2.81529,2.81529,0,0,1,.27246,1.28809,2.73346,2.73346,0,0,1-.27246,1.26025,2.63944,2.63944,0,0,1-.71191.87988,3.06312,3.06312,0,0,1-.98437.52,3.58829,3.58829,0,0,1-1.08789.17188h-1.94336V40.78585Zm0.792,4.96826h0.99121a3.01591,3.01591,0,0,0,.94824-0.144,2.19625,2.19625,0,0,0,.752-0.416,1.85431,1.85431,0,0,0,.49219-0.67236,2.22416,2.22416,0,0,0,.17578-0.90381,2.287,2.287,0,0,0-.17578-0.92773,1.82363,1.82363,0,0,0-.49219-0.66846,2.18073,2.18073,0,0,0-.752-0.40771,3.08859,3.08859,0,0,0-.94824-0.14014h-0.99121v4.28027Z"/><path class="c" d="M162.12207,61.44991h-0.792V56.48214h-1.81543V55.78585h4.42383v0.69629h-1.81641v4.96777Z"/><path class="c" d="M167.77051,59.52169V59.6501a0.94412,0.94412,0,0,1-.00879.12793h-3.01562a1.10321,1.10321,0,0,0,.1084.44873,1.17209,1.17209,0,0,0,.26758.36572,1.32491,1.32491,0,0,0,1.52051.16162,1.35436,1.35436,0,0,0,.43945-0.4082l0.52832,0.42383a1.88909,1.88909,0,0,1-.71582.59375,2.29815,2.29815,0,0,1-1.7168.04639,1.85,1.85,0,0,1-.63184-0.40381,1.88139,1.88139,0,0,1-.416-0.62793,2.11614,2.11614,0,0,1-.15137-0.81641,2.17923,2.17923,0,0,1,.14746-0.812,1.841,1.841,0,0,1,1.03906-1.04785,2.14514,2.14514,0,0,1,1.53516-.01172,1.5689,1.5689,0,0,1,.57715.3916,1.76473,1.76473,0,0,1,.36426.62012A2.446,2.446,0,0,1,167.77051,59.52169ZM167.002,59.218a1.39517,1.39517,0,0,0-.07617-0.41992,0.92213,0.92213,0,0,0-.52734-0.56836,1.16824,1.16824,0,0,0-.46-0.084,1.22,1.22,0,0,0-.45215.084,1.17421,1.17421,0,0,0-.36816.228,1.18807,1.18807,0,0,0-.25586.34033,1.07169,1.07169,0,0,0-.11621.41992H167.002Z"/><path class="c" d="M169.78809,59.45772l-1.38379-1.7998H169.332l0.92773,1.3042,0.93652-1.3042h0.87988l-1.36816,1.792,1.52832,2H171.2998l-1.05566-1.48-1.07227,1.48h-0.9043Z"/><path class="c" d="M175.2002,58.27413h-1.00781v1.96973a0.75043,0.75043,0,0,0,.12793.49072,0.51374,0.51374,0,0,0,.4082.14746,1.24472,1.24472,0,0,0,.22363-0.022,0.90228,0.90228,0,0,0,.21582-0.06592l0.02441,0.61572a1.83959,1.83959,0,0,1-.2998.07617,2.02909,2.02909,0,0,1-.33984.02783,1.08468,1.08468,0,0,1-.82031-0.2959,1.23709,1.23709,0,0,1-.28418-0.88818V58.27413H172.7207V57.65792h0.72754V56.57h0.74414v1.08789h1.00781v0.61621Z"/><path class="c" d="M176.88379,60.84981v0.6001h-0.72754V55.40206h0.752v2.82373h0.02441a1.58183,1.58183,0,0,1,.53418-0.47607,1.61681,1.61681,0,0,1,.81445-0.1958,1.9038,1.9038,0,0,1,.76953.15186,1.77792,1.77792,0,0,1,.59863.42432,1.88791,1.88791,0,0,1,.38672.63574,2.20846,2.20846,0,0,1,.13574.78027,2.23722,2.23722,0,0,1-.13574.78369,1.91746,1.91746,0,0,1-.38281.64014,1.7708,1.7708,0,0,1-.59863.42822,1.93015,1.93015,0,0,1-.79.15576,1.73673,1.73673,0,0,1-.77441-0.18018,1.45133,1.45133,0,0,1-.58984-0.52393h-0.0166ZM179.4043,59.55a1.66719,1.66719,0,0,0-.08008-0.51074,1.31222,1.31222,0,0,0-.24023-0.43848,1.15152,1.15152,0,0,0-.39551-0.30322,1.27035,1.27035,0,0,0-.54785-0.11182,1.21336,1.21336,0,0,0-.52441.11182,1.24422,1.24422,0,0,0-.4043.30322,1.41324,1.41324,0,0,0-.25977.43848,1.51054,1.51054,0,0,0,0,1.03711,1.36161,1.36161,0,0,0,.25977.43457,1.2686,1.2686,0,0,0,.4043.29932,1.20634,1.20634,0,0,0,.52441.11182,1.22926,1.22926,0,0,0,.54785-0.11572,1.1925,1.1925,0,0,0,.39551-0.30713,1.31451,1.31451,0,0,0,.24023-0.439A1.66408,1.66408,0,0,0,179.4043,59.55Z"/><path class="c" d="M185.208,59.5461a2.05667,2.05667,0,0,1-.15625.80762,1.93178,1.93178,0,0,1-.43164.63623,1.95215,1.95215,0,0,1-.65234.416,2.28093,2.28093,0,0,1-1.61621,0,1.8928,1.8928,0,0,1-.64746-0.416,1.95434,1.95434,0,0,1-.42871-0.63623,2.05632,2.05632,0,0,1-.15527-0.80762,2.0291,2.0291,0,0,1,.15527-0.8042,1.89949,1.89949,0,0,1,1.07617-1.04,2.28093,2.28093,0,0,1,1.61621,0,1.98153,1.98153,0,0,1,.65234.41211,1.89667,1.89667,0,0,1,.43164.62793A2.02939,2.02939,0,0,1,185.208,59.5461Zm-0.78418.00391a1.61186,1.61186,0,0,0-.084-0.51855,1.31511,1.31511,0,0,0-.24512-0.43457,1.17981,1.17981,0,0,0-.39746-0.29932,1.3671,1.3671,0,0,0-1.083,0,1.17027,1.17027,0,0,0-.39746.29932,1.31511,1.31511,0,0,0-.24512.43457,1.64288,1.64288,0,0,0,0,1.03711,1.35881,1.35881,0,0,0,.24512.43848,1.14385,1.14385,0,0,0,.39746.30322,1.3671,1.3671,0,0,0,1.083,0,1.15292,1.15292,0,0,0,.39746-0.30322,1.35882,1.35882,0,0,0,.24512-0.43848A1.61186,1.61186,0,0,0,184.42383,59.55Z"/><path class="c" d="M190.23438,59.5461a2.05667,2.05667,0,0,1-.15625.80762,1.93178,1.93178,0,0,1-.43164.63623,1.95215,1.95215,0,0,1-.65234.416,2.28093,2.28093,0,0,1-1.61621,0,1.8928,1.8928,0,0,1-.64746-0.416,1.95434,1.95434,0,0,1-.42871-0.63623,2.05632,2.05632,0,0,1-.15527-0.80762,2.0291,2.0291,0,0,1,.15527-0.8042,1.89949,1.89949,0,0,1,1.07617-1.04,2.28093,2.28093,0,0,1,1.61621,0,1.98153,1.98153,0,0,1,.65234.41211,1.89667,1.89667,0,0,1,.43164.62793A2.02939,2.02939,0,0,1,190.23438,59.5461ZM189.4502,59.55a1.61186,1.61186,0,0,0-.084-0.51855,1.31511,1.31511,0,0,0-.24512-0.43457,1.17981,1.17981,0,0,0-.39746-0.29932,1.3671,1.3671,0,0,0-1.083,0,1.17027,1.17027,0,0,0-.39746.29932,1.31511,1.31511,0,0,0-.24512.43457,1.64288,1.64288,0,0,0,0,1.03711,1.35881,1.35881,0,0,0,.24512.43848,1.14385,1.14385,0,0,0,.39746.30322,1.3671,1.3671,0,0,0,1.083,0,1.15292,1.15292,0,0,0,.39746-0.30322,1.35881,1.35881,0,0,0,.24512-0.43848A1.61186,1.61186,0,0,0,189.4502,59.55Z"/><path class="c" d="M192.15625,59.30587h0.02441l1.5918-1.64795h1.00781l-1.77637,1.72021,1.92871,2.07178h-1.04l-1.71191-1.96777h-0.02441v1.96777h-0.752V55.40206h0.752v3.90381Z"/></svg>