<svg xmlns="http://www.w3.org/2000/svg" viewBox="0 0 261.9 70.22321"><defs><style>.a{fill:#f7bcae;}.a,.b{stroke:#3d4752;stroke-miterlimit:10;stroke-width:0.9px;}.b{fill:none;}.c{fill:#3d4752;}</style></defs><title>database design diagrams</title><path class="a" d="M90.45,2.7V18.45h-90V2.7A2.22821,2.22821,0,0,1,2.7.45H88.2A2.25978,2.25978,0,0,1,90.45,2.7Z"/><path class="b" d="M90.45,18.45V67.52321a2.29312,2.29312,0,0,1-2.25,2.25H2.7a2.25978,2.25978,0,0,1-2.25-2.25V18.45h90Z"/><path class="a" d="M261.45,2.93V18.68h-108V2.93A2.222,2.222,0,0,1,155.7.68H259.2A2.25323,2.25323,0,0,1,261.45,2.93Z"/><path class="b" d="M261.45,18.68V67.52321a2.28636,2.28636,0,0,1-2.25,2.25H155.7a2.25338,2.25338,0,0,1-2.25-2.25V18.68h108Z"/><polyline class="b" points="90.45 27.675 121.95 27.675 153.45 27.675"/><rect class="c" x="99.00003" y="23.17504" width="0.9" height="9"/><polygon class="c" points="153.45 23.535 145.26 27.675 153.45 31.77 153.045 32.535 143.235 27.675 153.045 22.77 153.45 23.535"/><path class="c" d="M11.33008,8.53005a1.74432,1.74432,0,0,1-.18359.83594,1.5156,1.5156,0,0,1-.49609.54785,2.19187,2.19187,0,0,1-.71973.3042,3.7032,3.7032,0,0,1-.84863.0957H8.40234V12.45H7.03418V6.78591H9.11426a3.89339,3.89339,0,0,1,.86816.09229,2.04524,2.04524,0,0,1,.7041.2959,1.44319,1.44319,0,0,1,.47168.53564A1.77641,1.77641,0,0,1,11.33008,8.53005Zm-1.36816.00781a0.60729,0.60729,0,0,0-.08008-0.32812A0.55264,0.55264,0,0,0,9.666,8.01,0.93484,0.93484,0,0,0,9.3584,7.91384,2.64269,2.64269,0,0,0,9.002,7.88992H8.40234V9.22585H8.97852a2.09559,2.09559,0,0,0,.36816-0.03174,0.98427,0.98427,0,0,0,.31543-0.1123A0.59132,0.59132,0,0,0,9.88184,8.8699,0.62753,0.62753,0,0,0,9.96191,8.53787Z"/><path class="c" d="M16.30664,10.44216a2.14013,2.14013,0,0,1-.17676.88379,1.98466,1.98466,0,0,1-.47949.67188,2.20665,2.20665,0,0,1-.7041.42822,2.47728,2.47728,0,0,1-1.708,0,2.14447,2.14447,0,0,1-.7041-0.42822,2.00187,2.00187,0,0,1-.47559-0.67187,2.1559,2.1559,0,0,1-.17676-0.88379,2.13147,2.13147,0,0,1,.17676-0.88037,1.96781,1.96781,0,0,1,.47559-0.66357,2.06057,2.06057,0,0,1,.7041-0.416,2.60362,2.60362,0,0,1,1.708,0,2.11746,2.11746,0,0,1,.7041.416,1.95124,1.95124,0,0,1,.47949.66357A2.116,2.116,0,0,1,16.30664,10.44216Zm-1.26465,0a1.15142,1.15142,0,0,0-.06348-0.376A0.996,0.996,0,0,0,14.79395,9.742a0.93742,0.93742,0,0,0-.2959-0.228,0.98962,0.98962,0,0,0-.81543,0,0.87977,0.87977,0,0,0-.292.228,0.96168,0.96168,0,0,0-.17676.32422,1.21627,1.21627,0,0,0,0,.752,1.03067,1.03067,0,0,0,.18066.332,0.88681,0.88681,0,0,0,.2959.23584,0.98962,0.98962,0,0,0,.81543,0,0.88084,0.88084,0,0,0,.29688-0.23584,1.04722,1.04722,0,0,0,.17969-0.332A1.20358,1.20358,0,0,0,15.042,10.44216Z"/><path class="c" d="M17.2998,12.45V6.40212h1.33594V12.45H17.2998Z"/><path class="c" d="M21.23633,7.19412a0.67635,0.67635,0,0,1-.05957.28369,0.72045,0.72045,0,0,1-.40039.38037,0.78019,0.78019,0,0,1-.292.05566,0.73188,0.73188,0,0,1-.53516-0.21191,0.70295,0.70295,0,0,1-.16016-0.78418,0.65072,0.65072,0,0,1,.16016-0.22754A0.83779,0.83779,0,0,1,20.18848,6.534a0.72529,0.72529,0,0,1,.2959-0.06006,0.78062,0.78062,0,0,1,.292.05615,0.72824,0.72824,0,0,1,.24023.15186,0.73914,0.73914,0,0,1,.16016.228A0.677,0.677,0,0,1,21.23633,7.19412ZM19.8291,12.45V8.46609h1.31152V12.45H19.8291Z"/><path class="c" d="M23.78125,9.44216V10.968a0.68444,0.68444,0,0,0,.1084.42139,0.46239,0.46239,0,0,0,.3877.14063,1.37459,1.37459,0,0,0,.2041-0.01611,0.70917,0.70917,0,0,0,.18066-0.04785l0.01563,0.96a2.18694,2.18694,0,0,1-.34375.084,2.443,2.443,0,0,1-.416.03613,1.95193,1.95193,0,0,1-.67187-0.10059,1.03913,1.03913,0,0,1-.43652-0.28857,1.14245,1.14245,0,0,1-.23633-0.44922,2.19076,2.19076,0,0,1-.07129-0.58154V9.44216H21.86133V8.46609h0.63281V7.41775h1.28711V8.46609h0.93652V9.44216H23.78125Z"/><path class="c" d="M26.99023,7.19412a0.67635,0.67635,0,0,1-.05957.28369,0.72045,0.72045,0,0,1-.40039.38037,0.78019,0.78019,0,0,1-.292.05566,0.73188,0.73188,0,0,1-.53516-0.21191A0.70295,0.70295,0,0,1,25.543,6.91775a0.65072,0.65072,0,0,1,.16016-0.22754A0.83779,0.83779,0,0,1,25.94238,6.534a0.72529,0.72529,0,0,1,.2959-0.06006,0.78062,0.78062,0,0,1,.292.05615,0.72824,0.72824,0,0,1,.24023.15186,0.73914,0.73914,0,0,1,.16016.228A0.677,0.677,0,0,1,26.99023,7.19412ZM25.583,12.45V8.46609h1.31152V12.45H25.583Z"/><path class="c" d="M30.80664,9.75417a0.79539,0.79539,0,0,0-.30371-0.23242,0.93262,0.93262,0,0,0-.3916-0.08789,0.83126,0.83126,0,0,0-.376.084,0.914,0.914,0,0,0-.28809.22412,1.06109,1.06109,0,0,0-.18848.32422,1.12826,1.12826,0,0,0-.06738.3916,1.17489,1.17489,0,0,0,.06348.39209,0.95465,0.95465,0,0,0,.18848.32422,0.88145,0.88145,0,0,0,.2959.21973,0.90256,0.90256,0,0,0,.3877.08008,1.10039,1.10039,0,0,0,.39648-0.07568,0.76206,0.76206,0,0,0,.31543-0.22021l0.72852,0.88818a1.72219,1.72219,0,0,1-.64062.376,2.524,2.524,0,0,1-.832.13574,2.62881,2.62881,0,0,1-.88086-0.144,2.04334,2.04334,0,0,1-.71094-0.41992,1.97185,1.97185,0,0,1-.47461-0.668,2.33482,2.33482,0,0,1,0-1.76807,1.97185,1.97185,0,0,1,.47461-0.668,2.09791,2.09791,0,0,1,.71094-0.42383,2.54526,2.54526,0,0,1,.873-0.14795,2.275,2.275,0,0,1,.42773.04,2.81259,2.81259,0,0,1,.4082.10791,1.85017,1.85017,0,0,1,.36035.168,1.521,1.521,0,0,1,.28418.21973Z"/><path class="c" d="M32.26465,9.01A2.28746,2.28746,0,0,1,33.085,8.50613a2.79711,2.79711,0,0,1,.95605-0.168,2.54585,2.54585,0,0,1,.85156.124A1.26984,1.26984,0,0,1,35.457,8.846a1.6406,1.6406,0,0,1,.31543.65576,3.89093,3.89093,0,0,1,.10059.94043V12.45h-1.2002V12.02615H34.64844a0.99175,0.99175,0,0,1-.46.38379,1.63095,1.63095,0,0,1-.668.13623,2.05269,2.05269,0,0,1-.49609-0.064,1.465,1.465,0,0,1-.46777-0.208,1.116,1.116,0,0,1-.34766-0.38428,1.18407,1.18407,0,0,1-.13672-0.5918,1.00687,1.00687,0,0,1,.23633-0.69629,1.54755,1.54755,0,0,1,.6084-0.40771,3.21917,3.21917,0,0,1,.82715-0.19238,8.57554,8.57554,0,0,1,.88867-0.04785v-0.064a0.48854,0.48854,0,0,0-.208-0.436,0.8981,0.8981,0,0,0-.5127-0.14014,1.2683,1.2683,0,0,0-.53906.12012,1.7141,1.7141,0,0,0-.44434.28809Zm2.4082,1.7041h-0.168c-0.14453,0-.29.00635-0.43652,0.02a1.792,1.792,0,0,0-.3916.07568,0.72444,0.72444,0,0,0-.28418.16406,0.37586,0.37586,0,0,0-.1123.28418A0.34027,0.34027,0,0,0,33.333,11.45a0.39306,0.39306,0,0,0,.13184.12793,0.54453,0.54453,0,0,0,.18359.06787,1.03048,1.03048,0,0,0,.2002.02,0.81261,0.81261,0,0,0,.6123-0.21973,0.8254,0.8254,0,0,0,.21191-0.59619V10.71414Z"/><path class="c" d="M37.02344,12.45V6.40212h1.33594V12.45H37.02344Z"/><path class="c" d="M45.82324,10.44216a2.52156,2.52156,0,0,1-.12793.7998,2.07532,2.07532,0,0,1-.37207.67578,1.8341,1.8341,0,0,1-.59668.46826,1.76438,1.76438,0,0,1-.7998.17578,1.67564,1.67564,0,0,1-.69629-0.14795A1.24118,1.24118,0,0,1,42.71875,12.01H42.70313V14.3699h-1.3125V8.46609h1.248V8.95388h0.02441A1.61661,1.61661,0,0,1,43.1709,8.534a1.5466,1.5466,0,0,1,.76367-0.18018,1.79918,1.79918,0,0,1,.78418.168,1.77131,1.77131,0,0,1,.5957.45605,2.074,2.074,0,0,1,.376.668A2.38937,2.38937,0,0,1,45.82324,10.44216Zm-1.27246,0a1.20134,1.20134,0,0,0-.05957-0.376A0.96168,0.96168,0,0,0,44.31445,9.742a0.87977,0.87977,0,0,0-.292-0.228A0.89923,0.89923,0,0,0,43.61523,9.426a0.88428,0.88428,0,0,0-.40039.08789,0.951,0.951,0,0,0-.2998.23193,1.07188,1.07188,0,0,0-.19238.32813,1.08261,1.08261,0,0,0,0,.752,1.07188,1.07188,0,0,0,.19238.32813,0.951,0.951,0,0,0,.2998.23193,0.88428,0.88428,0,0,0,.40039.08789,0.89923,0.89923,0,0,0,.40723-0.08789,0.85936,0.85936,0,0,0,.292-0.23193,1.00393,1.00393,0,0,0,.17676-0.332A1.24162,1.24162,0,0,0,44.55078,10.44216Z"/><path class="c" d="M46.73145,9.01a2.28746,2.28746,0,0,1,.82031-0.50391,2.79711,2.79711,0,0,1,.95605-0.168,2.54585,2.54585,0,0,1,.85156.124,1.26984,1.26984,0,0,1,.56445.38379,1.6406,1.6406,0,0,1,.31543.65576,3.89093,3.89093,0,0,1,.10059.94043V12.45h-1.2002V12.02615H49.11523a0.99175,0.99175,0,0,1-.46.38379,1.63095,1.63095,0,0,1-.668.13623,2.05269,2.05269,0,0,1-.49609-0.064,1.465,1.465,0,0,1-.46777-0.208,1.116,1.116,0,0,1-.34766-0.38428,1.18407,1.18407,0,0,1-.13672-0.5918,1.00687,1.00687,0,0,1,.23633-0.69629,1.54755,1.54755,0,0,1,.6084-0.40771,3.21917,3.21917,0,0,1,.82715-0.19238,8.57554,8.57554,0,0,1,.88867-0.04785v-0.064a0.48854,0.48854,0,0,0-.208-0.436,0.8981,0.8981,0,0,0-.5127-0.14014,1.2683,1.2683,0,0,0-.53906.12012,1.7141,1.7141,0,0,0-.44434.28809Zm2.4082,1.7041h-0.168c-0.14453,0-.29.00635-0.43652,0.02a1.792,1.792,0,0,0-.3916.07568,0.72444,0.72444,0,0,0-.28418.16406,0.37586,0.37586,0,0,0-.1123.28418,0.34027,0.34027,0,0,0,.05273.19189,0.39306,0.39306,0,0,0,.13184.12793,0.54453,0.54453,0,0,0,.18359.06787,1.03048,1.03048,0,0,0,.2002.02,0.81261,0.81261,0,0,0,.6123-0.21973,0.8254,0.8254,0,0,0,.21191-0.59619V10.71414Z"/><path class="c" d="M54.0625,9.54617a1.00114,1.00114,0,0,0-.17187-0.03223c-0.05566-.00537-0.11035-0.00781-0.16406-0.00781a0.93046,0.93046,0,0,0-.44336.0957,0.89809,0.89809,0,0,0-.28809.23145,0.873,0.873,0,0,0-.15625.29492,0.98115,0.98115,0,0,0-.04785.2793V12.45h-1.3125V8.47048h1.26465V9.04666h0.01563a1.30179,1.30179,0,0,1,.43164-0.49951,1.11383,1.11383,0,0,1,.64844-0.19336,1.49366,1.49366,0,0,1,.15625.0083,0.60049,0.60049,0,0,1,.124.02393Z"/><path class="c" d="M56.49023,9.44216V10.968a0.68444,0.68444,0,0,0,.1084.42139,0.46239,0.46239,0,0,0,.3877.14063,1.37459,1.37459,0,0,0,.2041-0.01611,0.70917,0.70917,0,0,0,.18066-0.04785l0.01563,0.96a2.18694,2.18694,0,0,1-.34375.084,2.443,2.443,0,0,1-.416.03613,1.95193,1.95193,0,0,1-.67187-0.10059,1.03913,1.03913,0,0,1-.43652-0.28857,1.14245,1.14245,0,0,1-.23633-0.44922,2.19076,2.19076,0,0,1-.07129-0.58154V9.44216H54.57031V8.46609h0.63281V7.41775h1.28711V8.46609h0.93652V9.44216H56.49023Z"/><path class="c" d="M60.68066,13.05007a3.48261,3.48261,0,0,1-.26758.55566,1.65437,1.65437,0,0,1-.35254.416,1.38752,1.38752,0,0,1-.47949.26025,2.16091,2.16091,0,0,1-.65234.08789,3.09971,3.09971,0,0,1-.37988-0.02393,2.39531,2.39531,0,0,1-.33984-0.064l0.14355-1.104a1.49626,1.49626,0,0,0,.21191.05176,1.23487,1.23487,0,0,0,.21289.02,0.59253,0.59253,0,0,0,.43945-0.13965,1.14514,1.14514,0,0,0,.23242-0.396l0.12793-.32812L57.91309,8.46609h1.45605l0.8877,2.56006h0.02441l0.792-2.56006h1.3916Z"/><path class="c" d="M11.12988,30.31375h0.0166V25.78591h0.792V31.45h-1L7.94629,26.826H7.93066V31.45h-0.792V25.78591H8.16992Z"/><path class="c" d="M15.79688,28.99392A0.75311,0.75311,0,0,0,15.541,28.366a1.05866,1.05866,0,0,0-.67969-0.2041,1.49633,1.49633,0,0,0-.60449.124,1.53219,1.53219,0,0,0-.47559.31592l-0.40039-.48a2.026,2.026,0,0,1,.68457-0.416,2.44581,2.44581,0,0,1,.86719-0.15186,1.94863,1.94863,0,0,1,.708.11621,1.33552,1.33552,0,0,1,.49219.31592,1.28853,1.28853,0,0,1,.28809.47168,1.732,1.732,0,0,1,.0957.584V30.698c0,0.12793.00488,0.2627,0.0127,0.40381a2.04164,2.04164,0,0,0,.04395.34814H15.89258A2.40452,2.40452,0,0,1,15.8291,30.906H15.80469a1.464,1.464,0,0,1-.52344.47217,1.57487,1.57487,0,0,1-.748.168,1.95172,1.95172,0,0,1-.46777-0.06006,1.35115,1.35115,0,0,1-.44434-0.19629,1.09636,1.09636,0,0,1-.332-0.35986,1.071,1.071,0,0,1-.13184-0.55176,0.97218,0.97218,0,0,1,.23145-0.68408,1.47777,1.47777,0,0,1,.6084-0.38428,3.44973,3.44973,0,0,1,.84766-0.17187q0.47314-.04028.95215-0.04v-0.104Zm-0.18359.64795q-0.27979,0-.58008.02393a2.68673,2.68673,0,0,0-.54395.09619,1.02725,1.02725,0,0,0-.4043.21582,0.49282,0.49282,0,0,0-.16016.38428,0.52573,0.52573,0,0,0,.06836.27979,0.56273,0.56273,0,0,0,.17969.18408,0.72848,0.72848,0,0,0,.248.1001,1.39912,1.39912,0,0,0,.28027.02783A1.03406,1.03406,0,0,0,15.5127,30.638a1.14538,1.14538,0,0,0,.28418-0.7959v-0.2002H15.61328Z"/><path class="c" d="M19.084,27.76589a1.313,1.313,0,0,1,.748-0.21191,1.37217,1.37217,0,0,1,.69238.17578,1.18033,1.18033,0,0,1,.4834.584,1.35934,1.35934,0,0,1,.53613-0.564,1.59969,1.59969,0,0,1,1.38477-.07178,1.2767,1.2767,0,0,1,.43945.332,1.33966,1.33966,0,0,1,.25977.48779,2.05859,2.05859,0,0,1,.084.6001V31.45H22.96V29.346a2.27141,2.27141,0,0,0-.04-0.43994,1.10635,1.10635,0,0,0-.13574-0.36816,0.73363,0.73363,0,0,0-.25586-0.25586,0.78439,0.78439,0,0,0-.4082-0.09619,0.84761,0.84761,0,0,0-.43945.1084,0.90851,0.90851,0,0,0-.30078.27979,1.19757,1.19757,0,0,0-.168.38818,1.89526,1.89526,0,0,0-.05176.43994V31.45h-0.752V29.19412a1.94789,1.94789,0,0,0-.04-0.4082A0.83262,0.83262,0,0,0,20.23242,28.47a0.6779,0.6779,0,0,0-.248-0.208,0.83454,0.83454,0,0,0-.376-0.07617,0.85791,0.85791,0,0,0-.69238.34033,1.39913,1.39913,0,0,0-.27539.90771V31.45h-0.752V28.4739q0-.15161-0.00879-0.39209c-0.00488-.15967-0.0127-0.30127-0.02344-0.42383h0.71191q0.01611,0.14429.02344,0.32422,0.00879,0.17944.00879,0.2998H18.624A1.28759,1.28759,0,0,1,19.084,27.76589Z"/><path class="c" d="M28.65332,29.52175v0.12842a0.94411,0.94411,0,0,1-.00879.12793H25.62891a1.10321,1.10321,0,0,0,.1084.44873,1.17209,1.17209,0,0,0,.26758.36572,1.32491,1.32491,0,0,0,1.52051.16162,1.35436,1.35436,0,0,0,.43945-0.4082l0.52832,0.42383a1.88909,1.88909,0,0,1-.71582.59375,2.29815,2.29815,0,0,1-1.7168.04639,1.85,1.85,0,0,1-.63184-0.40381,1.88139,1.88139,0,0,1-.416-0.62793,2.11614,2.11614,0,0,1-.15137-0.81641,2.17923,2.17923,0,0,1,.14746-0.812,1.841,1.841,0,0,1,1.03906-1.04785,2.14514,2.14514,0,0,1,1.53516-.01172,1.5689,1.5689,0,0,1,.57715.3916,1.76473,1.76473,0,0,1,.36426.62012A2.446,2.446,0,0,1,28.65332,29.52175ZM27.88477,29.218a1.39517,1.39517,0,0,0-.07617-0.41992,0.92213,0.92213,0,0,0-.52734-0.56836,1.16824,1.16824,0,0,0-.46-0.084,1.22,1.22,0,0,0-.45215.084,1.17421,1.17421,0,0,0-.36816.228,1.18807,1.18807,0,0,0-.25586.34033,1.07169,1.07169,0,0,0-.11621.41992h2.25586Z"/><path class="c" d="M7.13867,40.78591h0.792v2.36816h2.86328V40.78591h0.7998V46.45h-0.7998v-2.5918H7.93066V46.45h-0.792V40.78591Z"/><path class="c" d="M16.63086,44.52175v0.12842a0.94411,0.94411,0,0,1-.00879.12793H13.60645a1.10321,1.10321,0,0,0,.1084.44873,1.17209,1.17209,0,0,0,.26758.36572,1.32491,1.32491,0,0,0,1.52051.16162,1.35436,1.35436,0,0,0,.43945-0.4082L16.4707,45.7698a1.88909,1.88909,0,0,1-.71582.59375,2.29815,2.29815,0,0,1-1.7168.04639,1.85,1.85,0,0,1-.63184-0.40381,1.88139,1.88139,0,0,1-.416-0.62793,2.11614,2.11614,0,0,1-.15137-0.81641,2.17923,2.17923,0,0,1,.14746-0.812,1.841,1.841,0,0,1,1.03906-1.04785,2.14514,2.14514,0,0,1,1.53516-.01172,1.5689,1.5689,0,0,1,.57715.3916,1.76473,1.76473,0,0,1,.36426.62012A2.446,2.446,0,0,1,16.63086,44.52175ZM15.8623,44.218a1.39517,1.39517,0,0,0-.07617-0.41992,0.92213,0.92213,0,0,0-.52734-0.56836,1.16824,1.16824,0,0,0-.46-0.084,1.22,1.22,0,0,0-.45215.084,1.17421,1.17421,0,0,0-.36816.228,1.18807,1.18807,0,0,0-.25586.34033,1.07169,1.07169,0,0,0-.11621.41992H15.8623Z"/><path class="c" d="M20.15137,43.99392a0.75311,0.75311,0,0,0-.25586-0.62793,1.05866,1.05866,0,0,0-.67969-0.2041,1.49633,1.49633,0,0,0-.60449.124,1.53219,1.53219,0,0,0-.47559.31592l-0.40039-.48a2.026,2.026,0,0,1,.68457-0.416,2.44581,2.44581,0,0,1,.86719-0.15186,1.94863,1.94863,0,0,1,.708.11621,1.33552,1.33552,0,0,1,.49219.31592,1.28853,1.28853,0,0,1,.28809.47168,1.732,1.732,0,0,1,.0957.584V45.698c0,0.12793.00488,0.2627,0.0127,0.40381a2.04164,2.04164,0,0,0,.04395.34814H20.24707a2.40452,2.40452,0,0,1-.06348-0.54395H20.15918a1.464,1.464,0,0,1-.52344.47217,1.57487,1.57487,0,0,1-.748.168,1.95172,1.95172,0,0,1-.46777-0.06006,1.35115,1.35115,0,0,1-.44434-0.19629,1.09636,1.09636,0,0,1-.332-0.35986,1.071,1.071,0,0,1-.13184-0.55176,0.97218,0.97218,0,0,1,.23145-0.68408,1.47777,1.47777,0,0,1,.6084-0.38428,3.44973,3.44973,0,0,1,.84766-0.17187q0.47314-.04028.95215-0.04v-0.104Zm-0.18359.64795q-0.27979,0-.58008.02393a2.68673,2.68673,0,0,0-.54395.09619,1.02725,1.02725,0,0,0-.4043.21582,0.49282,0.49282,0,0,0-.16016.38428,0.52573,0.52573,0,0,0,.06836.27979,0.56273,0.56273,0,0,0,.17969.18408,0.72848,0.72848,0,0,0,.248.1001,1.39912,1.39912,0,0,0,.28027.02783,1.03406,1.03406,0,0,0,.81152-0.31592,1.14538,1.14538,0,0,0,.28418-0.7959v-0.2002H19.96777Z"/><path class="c" d="M25.27246,45.84988a1.39241,1.39241,0,0,1-.58789.52393,1.76753,1.76753,0,0,1-.78027.18018,1.94613,1.94613,0,0,1-.792-0.15576A1.77474,1.77474,0,0,1,22.5127,45.97a1.91967,1.91967,0,0,1-.38379-0.64014,2.23771,2.23771,0,0,1-.13672-0.78369,2.20889,2.20889,0,0,1,.13672-0.78027,1.89022,1.89022,0,0,1,.3877-0.63574,1.76882,1.76882,0,0,1,.60352-0.42432,1.94715,1.94715,0,0,1,.77637-0.15186,1.60332,1.60332,0,0,1,.80762.1958,1.68147,1.68147,0,0,1,.54492.47607h0.01563V40.40212h0.752V46.45H25.28906v-0.6001h-0.0166Zm-2.49609-1.2998a1.63511,1.63511,0,0,0,.08008.51025,1.31451,1.31451,0,0,0,.24023.439,1.259,1.259,0,0,0,1.46.311,1.2686,1.2686,0,0,0,.4043-0.29932,1.36161,1.36161,0,0,0,.25977-0.43457,1.51054,1.51054,0,0,0,0-1.03711,1.41324,1.41324,0,0,0-.25977-0.43848,1.24422,1.24422,0,0,0-.4043-0.30322,1.21336,1.21336,0,0,0-.52441-0.11182,1.24643,1.24643,0,0,0-.54395.11182,1.165,1.165,0,0,0-.3916.30322,1.31221,1.31221,0,0,0-.24023.43848A1.63815,1.63815,0,0,0,22.77637,44.55007Z"/><path class="c" d="M30.4668,45.8821a1.39667,1.39667,0,0,1-.57227.49609,1.75488,1.75488,0,0,1-.77246.17578,1.94613,1.94613,0,0,1-.792-0.15576A1.77474,1.77474,0,0,1,27.73047,45.97a1.91967,1.91967,0,0,1-.38379-0.64014A2.23771,2.23771,0,0,1,27.21,44.54617a2.20889,2.20889,0,0,1,.13672-0.78027,1.89022,1.89022,0,0,1,.3877-0.63574,1.76882,1.76882,0,0,1,.60352-0.42432,1.94715,1.94715,0,0,1,.77637-0.15186,1.67605,1.67605,0,0,1,.82031.1958,1.46907,1.46907,0,0,1,.54785.5h0.02441V42.658h0.72754V48.3699h-0.752V45.8821H30.4668Zm-2.47266-1.33594a1.64426,1.64426,0,0,0,.08008.51172,1.31438,1.31438,0,0,0,.24023.43994,1.25541,1.25541,0,0,0,1.46.312,1.26275,1.26275,0,0,0,.4043-0.2998,1.3686,1.3686,0,0,0,.25977-0.436,1.51883,1.51883,0,0,0,0-1.04,1.42039,1.42039,0,0,0-.25977-0.43994,1.24012,1.24012,0,0,0-.4043-0.3042A1.20634,1.20634,0,0,0,29.25,43.178a1.23951,1.23951,0,0,0-.54395.11182,1.16148,1.16148,0,0,0-.3916.3042,1.31911,1.31911,0,0,0-.24023.43994A1.64731,1.64731,0,0,0,27.99414,44.54617Z"/><path class="c" d="M35.31641,46.45c-0.01074-.09619-0.01953-0.2041-0.02441-0.32422-0.00488-.11963-0.00781-0.21973-0.00781-0.2998H35.26855a1.24376,1.24376,0,0,1-.48437.51611,1.40113,1.40113,0,0,1-.75586.21191,1.54182,1.54182,0,0,1-.63574-0.12012,1.16178,1.16178,0,0,1-.44043-0.332,1.401,1.401,0,0,1-.25586-0.4917,2.05859,2.05859,0,0,1-.084-0.6001V42.658h0.752v2.09619a2.60183,2.60183,0,0,0,.03613.44385,1.04533,1.04533,0,0,0,.13184.37207,0.717,0.717,0,0,0,.26367.25586,0.86524,0.86524,0,0,0,.43262.09619,0.90513,0.90513,0,0,0,.73535-0.34033,1.3843,1.3843,0,0,0,.28027-0.90771V42.658h0.752v2.97607c0,0.10107.00293,0.23193,0.00781,0.39209,0.00586,0.15967.01367,0.30127,0.02441,0.42383H35.31641Z"/><path class="c" d="M39.77441,43.99392a0.75311,0.75311,0,0,0-.25586-0.62793,1.05866,1.05866,0,0,0-.67969-0.2041,1.49633,1.49633,0,0,0-.60449.124,1.53219,1.53219,0,0,0-.47559.31592l-0.40039-.48a2.026,2.026,0,0,1,.68457-0.416,2.44581,2.44581,0,0,1,.86719-0.15186,1.94863,1.94863,0,0,1,.708.11621,1.33552,1.33552,0,0,1,.49219.31592,1.28853,1.28853,0,0,1,.28809.47168,1.732,1.732,0,0,1,.0957.584V45.698c0,0.12793.00488,0.2627,0.0127,0.40381a2.04164,2.04164,0,0,0,.04395.34814H39.87012a2.40452,2.40452,0,0,1-.06348-0.54395H39.78223a1.464,1.464,0,0,1-.52344.47217,1.57487,1.57487,0,0,1-.748.168,1.95172,1.95172,0,0,1-.46777-0.06006,1.35115,1.35115,0,0,1-.44434-0.19629,1.09636,1.09636,0,0,1-.332-0.35986,1.071,1.071,0,0,1-.13184-0.55176,0.97218,0.97218,0,0,1,.23145-0.68408,1.47777,1.47777,0,0,1,.6084-0.38428,3.44973,3.44973,0,0,1,.84766-0.17187q0.47314-.04028.95215-0.04v-0.104Zm-0.18359.64795q-0.27979,0-.58008.02393a2.68673,2.68673,0,0,0-.54395.09619,1.02725,1.02725,0,0,0-.4043.21582,0.49282,0.49282,0,0,0-.16016.38428,0.52573,0.52573,0,0,0,.06836.27979,0.56273,0.56273,0,0,0,.17969.18408,0.72848,0.72848,0,0,0,.248.1001,1.39912,1.39912,0,0,0,.28027.02783,1.03406,1.03406,0,0,0,.81152-0.31592,1.14538,1.14538,0,0,0,.28418-0.7959v-0.2002H39.59082Z"/><path class="c" d="M41.85645,43.08181c-0.00488-.15967-0.0127-0.30127-0.02344-0.42383h0.71191c0.01074,0.09619.01855,0.20654,0.02344,0.332q0.00879,0.18823.00879,0.30811h0.02344a1.30979,1.30979,0,0,1,.46777-0.54,1.22689,1.22689,0,0,1,.69238-0.2041,1.15976,1.15976,0,0,1,.2959.03223l-0.03223.6958a1.40029,1.40029,0,0,0-.34375-0.04,1.0369,1.0369,0,0,0-.47168.1001,0.95791,0.95791,0,0,0-.332.26807,1.1394,1.1394,0,0,0-.19629.3877,1.63031,1.63031,0,0,0-.06348.46V46.45h-0.752V43.4739Q41.86523,43.32229,41.85645,43.08181Z"/><path class="c" d="M47.0957,43.27419H46.08789v1.96973a0.75043,0.75043,0,0,0,.12793.49072,0.51374,0.51374,0,0,0,.4082.14746,1.24472,1.24472,0,0,0,.22363-0.022,0.90228,0.90228,0,0,0,.21582-0.06592l0.02441,0.61572a1.83959,1.83959,0,0,1-.2998.07617,2.02909,2.02909,0,0,1-.33984.02783,1.08468,1.08468,0,0,1-.82031-0.2959,1.23709,1.23709,0,0,1-.28418-0.88818V43.27419H44.61621V42.658h0.72754V41.57009h0.74414V42.658H47.0957v0.61621Z"/><path class="c" d="M51.53711,44.52175v0.12842a0.94411,0.94411,0,0,1-.00879.12793H48.5127a1.10321,1.10321,0,0,0,.1084.44873,1.17209,1.17209,0,0,0,.26758.36572,1.32491,1.32491,0,0,0,1.52051.16162,1.35436,1.35436,0,0,0,.43945-0.4082L51.377,45.7698a1.88909,1.88909,0,0,1-.71582.59375,2.29815,2.29815,0,0,1-1.7168.04639,1.85,1.85,0,0,1-.63184-0.40381,1.88139,1.88139,0,0,1-.416-0.62793,2.11614,2.11614,0,0,1-.15137-0.81641,2.17923,2.17923,0,0,1,.14746-0.812,1.841,1.841,0,0,1,1.03906-1.04785,2.14514,2.14514,0,0,1,1.53516-.01172,1.5689,1.5689,0,0,1,.57715.3916,1.76473,1.76473,0,0,1,.36426.62012A2.446,2.446,0,0,1,51.53711,44.52175ZM50.76855,44.218a1.39517,1.39517,0,0,0-.07617-0.41992,0.92213,0.92213,0,0,0-.52734-0.56836,1.16824,1.16824,0,0,0-.46-0.084,1.22,1.22,0,0,0-.45215.084,1.17421,1.17421,0,0,0-.36816.228,1.18807,1.18807,0,0,0-.25586.34033,1.07169,1.07169,0,0,0-.11621.41992h2.25586Z"/><path class="c" d="M52.68945,43.08181c-0.00488-.15967-0.0127-0.30127-0.02344-0.42383h0.71191c0.01074,0.09619.01855,0.20654,0.02344,0.332q0.00879,0.18823.00879,0.30811h0.02344a1.30979,1.30979,0,0,1,.46777-0.54,1.22689,1.22689,0,0,1,.69238-0.2041,1.15976,1.15976,0,0,1,.2959.03223l-0.03223.6958a1.40029,1.40029,0,0,0-.34375-0.04,1.0369,1.0369,0,0,0-.47168.1001,0.95791,0.95791,0,0,0-.332.26807,1.1394,1.1394,0,0,0-.19629.3877,1.63031,1.63031,0,0,0-.06348.46V46.45h-0.752V43.4739Q52.69824,43.32229,52.68945,43.08181Z"/><path class="c" d="M57.91211,43.61794a0.99064,0.99064,0,0,0-.36035-0.33984,1.033,1.033,0,0,0-.51953-0.13232,1.21015,1.21015,0,0,0-.25684.02832,0.74644,0.74644,0,0,0-.22754.08789,0.49259,0.49259,0,0,0-.16016.15186,0.40972,0.40972,0,0,0-.05957.228,0.37788,0.37788,0,0,0,.21582.356,2.638,2.638,0,0,0,.64746.21191,4.10708,4.10708,0,0,1,.50488.15234,1.57326,1.57326,0,0,1,.40332.21973,0.95021,0.95021,0,0,1,.26855.31641,0.92693,0.92693,0,0,1,.0957.43164,1.167,1.167,0,0,1-.12793.56836,1.12665,1.12665,0,0,1-.33984.37988,1.39263,1.39263,0,0,1-.48437.21191,2.44915,2.44915,0,0,1-.55957.064,2.22569,2.22569,0,0,1-.84473-0.168,1.65166,1.65166,0,0,1-.68359-0.51221L55.96,45.41775a1.2318,1.2318,0,0,0,.41992.37646,1.17473,1.17473,0,0,0,.58789.15186,1.30666,1.30666,0,0,0,.27637-0.02832,0.76674,0.76674,0,0,0,.23926-0.0918,0.49545,0.49545,0,0,0,.17285-0.168,0.50259,0.50259,0,0,0,.06348-0.26416,0.41627,0.41627,0,0,0-.252-0.39209,3.4098,3.4098,0,0,0-.74023-0.23975c-0.12793-.03223-0.25684-0.0708-0.3877-0.11621a1.29571,1.29571,0,0,1-.35645-0.188,0.93408,0.93408,0,0,1-.25977-0.2998,0.90666,0.90666,0,0,1-.09961-0.44385,1.04625,1.04625,0,0,1,.124-0.52393,1.0666,1.0666,0,0,1,.32422-0.36035,1.42619,1.42619,0,0,1,.45508-0.208,2.0679,2.0679,0,0,1,.52832-0.06787,2.00394,2.00394,0,0,1,.78809.16016,1.30412,1.30412,0,0,1,.58789.46387Z"/><path class="c" d="M11.99414,60.57009a2.53634,2.53634,0,0,1-.87207.73975A2.71808,2.71808,0,0,1,9.834,61.594a3.17262,3.17262,0,0,1-1.19531-.22021,2.77616,2.77616,0,0,1-.94434-0.61572,2.8405,2.8405,0,0,1-.62012-0.94434,3.1499,3.1499,0,0,1-.22363-1.20361,3.11761,3.11761,0,0,1,.22754-1.21191,2.73268,2.73268,0,0,1,.63184-0.936,2.86755,2.86755,0,0,1,.95605-0.604,3.26688,3.26688,0,0,1,1.2002-.21631,3.15221,3.15221,0,0,1,.584.05615,2.89953,2.89953,0,0,1,.56836.168,2.36938,2.36938,0,0,1,.49609.27588,1.83884,1.83884,0,0,1,.38379.37988l-0.624.48a1.55873,1.55873,0,0,0-.58789-0.47559,1.826,1.826,0,0,0-.82031-0.188,2.13362,2.13362,0,0,0-.8916.17969,2.01622,2.01622,0,0,0-.67676.49219,2.22892,2.22892,0,0,0-.43164.72412,2.50339,2.50339,0,0,0-.15234.876,2.65577,2.65577,0,0,0,.14844.896,2.15431,2.15431,0,0,0,.42383.72363,1.95139,1.95139,0,0,0,.67188.48438,2.15727,2.15727,0,0,0,.88379.17578,1.9541,1.9541,0,0,0,.87207-0.19189A1.67651,1.67651,0,0,0,11.3623,60.138Z"/><path class="c" d="M13.69531,58.23416a1.172,1.172,0,0,1,.46484-0.48,1.38287,1.38287,0,0,1,.73535-0.2002,1.47748,1.47748,0,0,1,.63184.124,1.27133,1.27133,0,0,1,.44043.332,1.33966,1.33966,0,0,1,.25977.48779,2.09208,2.09208,0,0,1,.084.6001V61.45h-0.752V59.3489a2.55263,2.55263,0,0,0-.03613-0.44141,1.04453,1.04453,0,0,0-.13184-0.36865,0.72363,0.72363,0,0,0-.25977-0.25684,0.84071,0.84071,0,0,0-.42773-0.09619,0.92214,0.92214,0,0,0-.73633.34082,1.36292,1.36292,0,0,0-.28809.91064V61.45h-0.752V55.40212h0.752v2.832h0.01563Z"/><path class="c" d="M20.05957,58.99392a0.75311,0.75311,0,0,0-.25586-0.62793,1.05866,1.05866,0,0,0-.67969-0.2041,1.49633,1.49633,0,0,0-.60449.124,1.53219,1.53219,0,0,0-.47559.31592l-0.40039-.48a2.026,2.026,0,0,1,.68457-0.416,2.44581,2.44581,0,0,1,.86719-0.15186,1.94863,1.94863,0,0,1,.708.11621,1.33552,1.33552,0,0,1,.49219.31592,1.28853,1.28853,0,0,1,.28809.47168,1.732,1.732,0,0,1,.0957.584V60.698c0,0.12793.00488,0.2627,0.0127,0.40381a2.04164,2.04164,0,0,0,.04395.34814H20.15527A2.40452,2.40452,0,0,1,20.0918,60.906H20.06738a1.464,1.464,0,0,1-.52344.47217,1.57487,1.57487,0,0,1-.748.168,1.95172,1.95172,0,0,1-.46777-0.06006,1.35115,1.35115,0,0,1-.44434-0.19629,1.09636,1.09636,0,0,1-.332-0.35986,1.071,1.071,0,0,1-.13184-0.55176,0.97218,0.97218,0,0,1,.23145-0.68408,1.47777,1.47777,0,0,1,.6084-0.38428,3.44973,3.44973,0,0,1,.84766-0.17187q0.47314-.04028.95215-0.04v-0.104Zm-0.18359.64795q-0.27979,0-.58008.02393a2.68673,2.68673,0,0,0-.54395.09619,1.02725,1.02725,0,0,0-.4043.21582,0.49282,0.49282,0,0,0-.16016.38428,0.52573,0.52573,0,0,0,.06836.27979,0.56273,0.56273,0,0,0,.17969.18408,0.72848,0.72848,0,0,0,.248.1001,1.39912,1.39912,0,0,0,.28027.02783,1.03406,1.03406,0,0,0,.81152-0.31592,1.14538,1.14538,0,0,0,.28418-0.7959v-0.2002H19.876Z"/><path class="c" d="M23.02637,56.28982a0.45074,0.45074,0,0,1-.14746.34424,0.5,0.5,0,0,1-.35254.13574,0.48145,0.48145,0,0,1-.34961-0.13965,0.4606,0.4606,0,0,1-.14258-0.34033,0.46838,0.46838,0,0,1,.14258-0.34766,0.48188,0.48188,0,0,1,.34961-0.14014,0.49349,0.49349,0,0,1,.35254.14014A0.4618,0.4618,0,0,1,23.02637,56.28982ZM22.90625,61.45h-0.752V57.658h0.752V61.45Z"/><path class="c" d="M24.32031,58.08181c-0.00488-.15967-0.0127-0.30127-0.02344-0.42383h0.71191c0.01074,0.09619.01855,0.20654,0.02344,0.332q0.00879,0.18823.00879,0.30811h0.02344a1.30979,1.30979,0,0,1,.46777-0.54,1.22689,1.22689,0,0,1,.69238-0.2041,1.15976,1.15976,0,0,1,.2959.03223l-0.03223.6958a1.40029,1.40029,0,0,0-.34375-0.04,1.0369,1.0369,0,0,0-.47168.1001,0.95791,0.95791,0,0,0-.332.26807,1.1394,1.1394,0,0,0-.19629.3877,1.63031,1.63031,0,0,0-.06348.46V61.45h-0.752V58.4739Q24.3291,58.32229,24.32031,58.08181Z"/><path class="c" d="M28.623,57.76589a1.313,1.313,0,0,1,.748-0.21191,1.37217,1.37217,0,0,1,.69238.17578,1.18033,1.18033,0,0,1,.4834.584,1.35934,1.35934,0,0,1,.53613-0.564,1.59969,1.59969,0,0,1,1.38477-.07178,1.2767,1.2767,0,0,1,.43945.332,1.33966,1.33966,0,0,1,.25977.48779,2.05859,2.05859,0,0,1,.084.6001V61.45H32.499V59.346a2.27141,2.27141,0,0,0-.04-0.43994,1.10635,1.10635,0,0,0-.13574-0.36816,0.73363,0.73363,0,0,0-.25586-0.25586,0.78439,0.78439,0,0,0-.4082-0.09619,0.84761,0.84761,0,0,0-.43945.1084,0.90851,0.90851,0,0,0-.30078.27979,1.19757,1.19757,0,0,0-.168.38818,1.89526,1.89526,0,0,0-.05176.43994V61.45h-0.752V59.19412a1.94789,1.94789,0,0,0-.04-0.4082A0.83262,0.83262,0,0,0,29.77148,58.47a0.6779,0.6779,0,0,0-.248-0.208,0.83454,0.83454,0,0,0-.376-0.07617,0.85791,0.85791,0,0,0-.69238.34033,1.39913,1.39913,0,0,0-.27539.90771V61.45h-0.752V58.4739q0-.15161-0.00879-0.39209c-0.00488-.15967-0.0127-0.30127-0.02344-0.42383h0.71191q0.01611,0.14429.02344,0.32422,0.00879,0.17944.00879,0.2998h0.02344A1.28759,1.28759,0,0,1,28.623,57.76589Z"/><path class="c" d="M36.99512,58.99392a0.75311,0.75311,0,0,0-.25586-0.62793,1.05866,1.05866,0,0,0-.67969-0.2041,1.49633,1.49633,0,0,0-.60449.124,1.53219,1.53219,0,0,0-.47559.31592l-0.40039-.48a2.026,2.026,0,0,1,.68457-0.416,2.44581,2.44581,0,0,1,.86719-0.15186,1.94863,1.94863,0,0,1,.708.11621,1.33552,1.33552,0,0,1,.49219.31592,1.28853,1.28853,0,0,1,.28809.47168,1.732,1.732,0,0,1,.0957.584V60.698c0,0.12793.00488,0.2627,0.0127,0.40381a2.04164,2.04164,0,0,0,.04395.34814H37.09082a2.40452,2.40452,0,0,1-.06348-0.54395H37.00293a1.464,1.464,0,0,1-.52344.47217,1.57487,1.57487,0,0,1-.748.168,1.95172,1.95172,0,0,1-.46777-0.06006,1.35115,1.35115,0,0,1-.44434-0.19629,1.09636,1.09636,0,0,1-.332-0.35986,1.071,1.071,0,0,1-.13184-0.55176,0.97218,0.97218,0,0,1,.23145-0.68408,1.47777,1.47777,0,0,1,.6084-0.38428A3.44973,3.44973,0,0,1,36.043,59.138q0.47314-.04028.95215-0.04v-0.104Zm-0.18359.64795q-0.27979,0-.58008.02393a2.68673,2.68673,0,0,0-.54395.09619,1.02725,1.02725,0,0,0-.4043.21582,0.49282,0.49282,0,0,0-.16016.38428,0.52573,0.52573,0,0,0,.06836.27979,0.56273,0.56273,0,0,0,.17969.18408,0.72848,0.72848,0,0,0,.248.1001,1.39912,1.39912,0,0,0,.28027.02783,1.03406,1.03406,0,0,0,.81152-0.31592,1.14538,1.14538,0,0,0,.28418-0.7959v-0.2002H36.81152Z"/><path class="c" d="M39.76367,57.658q0.01611,0.14429.02344,0.32422,0.00879,0.17944.00879,0.2998h0.02344a1.10649,1.10649,0,0,1,.19629-0.28418,1.42046,1.42046,0,0,1,.28418-0.23193,1.39513,1.39513,0,0,1,.35156-0.15576,1.41418,1.41418,0,0,1,.40039-0.05615,1.47748,1.47748,0,0,1,.63184.124,1.28977,1.28977,0,0,1,.44043.332,1.35451,1.35451,0,0,1,.25977.48779,2.09208,2.09208,0,0,1,.084.6001V61.45h-0.752V59.346a2.63509,2.63509,0,0,0-.03613-0.43994,1.08153,1.08153,0,0,0-.13184-0.36816A0.71984,0.71984,0,0,0,41.2832,58.282a0.86131,0.86131,0,0,0-.43164-0.09619,0.91147,0.91147,0,0,0-.73242.34033,1.36936,1.36936,0,0,0-.2832.90771V61.45H39.084V58.4739q0-.15161-0.00879-0.39209c-0.00488-.15967-0.0127-0.30127-0.02344-0.42383h0.71191Z"/><path class="c" d="M164.33008,8.53005a1.74432,1.74432,0,0,1-.18359.83594,1.5156,1.5156,0,0,1-.49609.54785,2.19187,2.19187,0,0,1-.71973.3042,3.7032,3.7032,0,0,1-.84863.0957h-0.67969V12.45h-1.36816V6.78591h2.08008a3.89339,3.89339,0,0,1,.86816.09229,2.04524,2.04524,0,0,1,.7041.2959,1.44319,1.44319,0,0,1,.47168.53564A1.77641,1.77641,0,0,1,164.33008,8.53005Zm-1.36816.00781a0.60728,0.60728,0,0,0-.08008-0.32812A0.55264,0.55264,0,0,0,162.666,8.01a0.93484,0.93484,0,0,0-.30762-0.09619,2.64269,2.64269,0,0,0-.35645-0.02393h-0.59961V9.22585h0.57617a2.09559,2.09559,0,0,0,.36816-0.03174,0.98427,0.98427,0,0,0,.31543-0.1123,0.59132,0.59132,0,0,0,.21973-0.21191A0.62753,0.62753,0,0,0,162.96191,8.53787Z"/><path class="c" d="M167.74609,9.54617a1.00114,1.00114,0,0,0-.17187-0.03223c-0.05566-.00537-0.11035-0.00781-0.16406-0.00781a0.93046,0.93046,0,0,0-.44336.0957,0.89809,0.89809,0,0,0-.28809.23145,0.873,0.873,0,0,0-.15625.29492,0.98116,0.98116,0,0,0-.04785.2793V12.45h-1.3125V8.47048h1.26465V9.04666h0.01563a1.30179,1.30179,0,0,1,.43164-0.49951,1.11383,1.11383,0,0,1,.64844-0.19336,1.49366,1.49366,0,0,1,.15625.0083,0.60049,0.60049,0,0,1,.124.02393Z"/><path class="c" d="M172.47363,10.50613V10.6658a1.50571,1.50571,0,0,1-.00781.15234h-2.8877a0.69874,0.69874,0,0,0,.09961.30371,0.86247,0.86247,0,0,0,.21582.23633,1.06262,1.06262,0,0,0,.63574.21191,1.10026,1.10026,0,0,0,.52832-0.11621,1.04149,1.04149,0,0,0,.35254-0.2998l0.91113,0.57568a1.84584,1.84584,0,0,1-.73926.62842,2.45323,2.45323,0,0,1-1.06836.21973,2.54733,2.54733,0,0,1-.84766-0.14014,2.06,2.06,0,0,1-.7002-0.40771,1.88286,1.88286,0,0,1-.47168-0.66016,2.20043,2.20043,0,0,1-.17285-0.896,2.23517,2.23517,0,0,1,.16895-0.88379,1.996,1.996,0,0,1,.45508-0.67236A2.04517,2.04517,0,0,1,169.626,8.49a2.32781,2.32781,0,0,1,.84766-0.15186,2.15416,2.15416,0,0,1,.80859.14795,1.76739,1.76739,0,0,1,.63184.42773,2.00015,2.00015,0,0,1,.41211.68018A2.61851,2.61851,0,0,1,172.47363,10.50613Zm-1.208-.50439a0.786,0.786,0,0,0-.19629-0.53564,0.73774,0.73774,0,0,0-.58789-0.22412,0.99131,0.99131,0,0,0-.35156.06006,0.91764,0.91764,0,0,0-.28027.16406,0.81108,0.81108,0,0,0-.19141.24365,0.69773,0.69773,0,0,0-.08008.292h1.6875Z"/><path class="c" d="M175.78711,9.64187a1.48861,1.48861,0,0,0-.376-0.25586,1.04259,1.04259,0,0,0-.45605-0.104,0.80763,0.80763,0,0,0-.34082.07178,0.253,0.253,0,0,0-.15527.248,0.246,0.246,0,0,0,.17188.24023,3.75093,3.75093,0,0,0,.55566.15967,3.05,3.05,0,0,1,.45215.13623,1.60445,1.60445,0,0,1,.41211.23193,1.127,1.127,0,0,1,.2959.35205,1.038,1.038,0,0,1,.1123.49609,1.23683,1.23683,0,0,1-.15234.63574,1.25616,1.25616,0,0,1-.39551.42041,1.72473,1.72473,0,0,1-.54883.23193,2.633,2.633,0,0,1-.60742.07178,3.00267,3.00267,0,0,1-.95605-0.15576,2.00493,2.00493,0,0,1-.78027-0.46l0.73633-.77637a1.468,1.468,0,0,0,.43164.32031,1.2009,1.2009,0,0,0,.54395.12793,0.71752,0.71752,0,0,0,.31641-0.07617,0.27351,0.27351,0,0,0,.15625-0.26807,0.28811,0.28811,0,0,0-.19238-0.272,3.49807,3.49807,0,0,0-.59961-0.18408,2.93047,2.93047,0,0,1-.416-0.12793A1.28822,1.28822,0,0,1,173.623,10.49a1.07739,1.07739,0,0,1-.26855-0.33594,1.0289,1.0289,0,0,1-.10352-0.48,1.17147,1.17147,0,0,1,.15137-0.6123,1.28675,1.28675,0,0,1,.39258-0.41162,1.73552,1.73552,0,0,1,.53223-0.23633,2.30633,2.30633,0,0,1,.5791-0.07568,2.80044,2.80044,0,0,1,.876.13965,1.88969,1.88969,0,0,1,.72461.42041Z"/><path class="c" d="M178.81543,7.19412a0.67635,0.67635,0,0,1-.05957.28369,0.72045,0.72045,0,0,1-.40039.38037,0.78019,0.78019,0,0,1-.292.05566,0.73188,0.73188,0,0,1-.53516-0.21191,0.70295,0.70295,0,0,1-.16016-0.78418,0.65072,0.65072,0,0,1,.16016-0.22754,0.83779,0.83779,0,0,1,.23926-0.15625,0.72529,0.72529,0,0,1,.2959-0.06006,0.78062,0.78062,0,0,1,.292.05615,0.72824,0.72824,0,0,1,.24023.15186,0.73914,0.73914,0,0,1,.16016.228A0.677,0.677,0,0,1,178.81543,7.19412ZM177.4082,12.45V8.46609h1.31152V12.45H177.4082Z"/><path class="c" d="M182.91211,12.45V11.93h-0.0166a1.2456,1.2456,0,0,1-.54785.46826,1.79127,1.79127,0,0,1-.75586.16357,1.76438,1.76438,0,0,1-.7998-0.17578,1.8341,1.8341,0,0,1-.59668-0.46826,2.0553,2.0553,0,0,1-.37109-0.67578,2.49507,2.49507,0,0,1-.12891-0.7998,2.4144,2.4144,0,0,1,.13281-0.79639,2.074,2.074,0,0,1,.376-0.668,1.75252,1.75252,0,0,1,1.37207-.624,1.51746,1.51746,0,0,1,.74316.168,1.658,1.658,0,0,1,.47266.36816h0.01563V6.40212h1.3125V12.45h-1.208Zm-0.04785-2a1.08636,1.08636,0,0,0-.06836-0.376,1.07188,1.07188,0,0,0-.19238-0.32813,0.951,0.951,0,0,0-.2998-0.23193,0.88428,0.88428,0,0,0-.40039-0.08789,0.89923,0.89923,0,0,0-.40723.08789,0.92657,0.92657,0,0,0-.2959.228,0.93727,0.93727,0,0,0-.18066.32422,1.20134,1.20134,0,0,0-.05957.376,1.24163,1.24163,0,0,0,.05957.37988,0.97766,0.97766,0,0,0,.18066.332,0.88385,0.88385,0,0,0,.70313.31982,0.88428,0.88428,0,0,0,.40039-0.08789,0.951,0.951,0,0,0,.2998-0.23193,1.07188,1.07188,0,0,0,.19238-0.32812A1.08636,1.08636,0,0,0,182.86426,10.45Z"/><path class="c" d="M189.24707,10.50613V10.6658a1.50571,1.50571,0,0,1-.00781.15234h-2.8877a0.69874,0.69874,0,0,0,.09961.30371,0.86247,0.86247,0,0,0,.21582.23633,1.06262,1.06262,0,0,0,.63574.21191,1.10026,1.10026,0,0,0,.52832-0.11621,1.04149,1.04149,0,0,0,.35254-0.2998l0.91113,0.57568a1.84584,1.84584,0,0,1-.73926.62842,2.45323,2.45323,0,0,1-1.06836.21973,2.54733,2.54733,0,0,1-.84766-0.14014,2.06,2.06,0,0,1-.7002-0.40771,1.88286,1.88286,0,0,1-.47168-0.66016,2.20043,2.20043,0,0,1-.17285-0.896,2.23517,2.23517,0,0,1,.16895-0.88379,1.996,1.996,0,0,1,.45508-0.67236A2.04517,2.04517,0,0,1,186.39941,8.49a2.32781,2.32781,0,0,1,.84766-0.15186,2.15416,2.15416,0,0,1,.80859.14795,1.76739,1.76739,0,0,1,.63184.42773,2.00016,2.00016,0,0,1,.41211.68018A2.61851,2.61851,0,0,1,189.24707,10.50613Zm-1.208-.50439a0.786,0.786,0,0,0-.19629-0.53564,0.73774,0.73774,0,0,0-.58789-0.22412,0.99131,0.99131,0,0,0-.35156.06006,0.91764,0.91764,0,0,0-.28027.16406,0.81108,0.81108,0,0,0-.19141.24365,0.69773,0.69773,0,0,0-.08008.292h1.6875Z"/><path class="c" d="M192.83105,12.45V10.27419a1.7769,1.7769,0,0,0-.02832-0.32031,0.87653,0.87653,0,0,0-.0918-0.26807,0.48179,0.48179,0,0,0-.17969-0.18408,0.57417,0.57417,0,0,0-.292-0.06787,0.67434,0.67434,0,0,0-.30859.06787,0.624,0.624,0,0,0-.21973.18848,0.84964,0.84964,0,0,0-.13184.27588,1.18825,1.18825,0,0,0-.04395.32373V12.45h-1.32031V8.46609h1.27246V9.01785h0.01563a1.30144,1.30144,0,0,1,.18848-0.252,1.1333,1.1333,0,0,1,.27148-0.21191,1.73841,1.73841,0,0,1,.33984-0.144,1.3528,1.3528,0,0,1,.39258-0.05615,1.47481,1.47481,0,0,1,.67969.144,1.31039,1.31039,0,0,1,.45215.37207,1.47233,1.47233,0,0,1,.248.52393,2.37224,2.37224,0,0,1,.07617.59229V12.45h-1.32031Z"/><path class="c" d="M196.752,9.44216V10.968a0.68444,0.68444,0,0,0,.1084.42139,0.46239,0.46239,0,0,0,.3877.14063,1.37459,1.37459,0,0,0,.2041-0.01611,0.70917,0.70917,0,0,0,.18066-0.04785l0.01563,0.96a2.18693,2.18693,0,0,1-.34375.084,2.443,2.443,0,0,1-.416.03613,1.95193,1.95193,0,0,1-.67187-0.10059,1.03913,1.03913,0,0,1-.43652-0.28857,1.14245,1.14245,0,0,1-.23633-0.44922,2.19076,2.19076,0,0,1-.07129-0.58154V9.44216H194.832V8.46609h0.63281V7.41775H196.752V8.46609h0.93652V9.44216H196.752Z"/><path class="c" d="M199.96,7.19412a0.67635,0.67635,0,0,1-.05957.28369,0.72045,0.72045,0,0,1-.40039.38037,0.78019,0.78019,0,0,1-.292.05566,0.73188,0.73188,0,0,1-.53516-0.21191,0.70295,0.70295,0,0,1-.16016-0.78418,0.65072,0.65072,0,0,1,.16016-0.22754,0.83779,0.83779,0,0,1,.23926-0.15625,0.72529,0.72529,0,0,1,.2959-0.06006,0.78061,0.78061,0,0,1,.292.05615,0.72824,0.72824,0,0,1,.24023.15186,0.73914,0.73914,0,0,1,.16016.228A0.677,0.677,0,0,1,199.96,7.19412ZM198.55273,12.45V8.46609h1.31152V12.45h-1.31152Z"/><path class="c" d="M200.97559,9.01a2.28746,2.28746,0,0,1,.82031-0.50391,2.79711,2.79711,0,0,1,.95605-0.168,2.54585,2.54585,0,0,1,.85156.124,1.26984,1.26984,0,0,1,.56445.38379,1.6406,1.6406,0,0,1,.31543.65576,3.89093,3.89093,0,0,1,.10059.94043V12.45h-1.2002V12.02615h-0.02441a0.99175,0.99175,0,0,1-.46.38379,1.63095,1.63095,0,0,1-.668.13623,2.05269,2.05269,0,0,1-.49609-0.064,1.465,1.465,0,0,1-.46777-0.208,1.116,1.116,0,0,1-.34766-0.38428,1.18407,1.18407,0,0,1-.13672-0.5918,1.00687,1.00687,0,0,1,.23633-0.69629,1.54755,1.54755,0,0,1,.6084-0.40771,3.21917,3.21917,0,0,1,.82715-0.19238,8.57554,8.57554,0,0,1,.88867-0.04785v-0.064a0.48854,0.48854,0,0,0-.208-0.436,0.8981,0.8981,0,0,0-.5127-0.14014,1.2683,1.2683,0,0,0-.53906.12012,1.7141,1.7141,0,0,0-.44434.28809Zm2.4082,1.7041h-0.168c-0.14453,0-.29.00635-0.43652,0.02a1.792,1.792,0,0,0-.3916.07568,0.72444,0.72444,0,0,0-.28418.16406,0.37586,0.37586,0,0,0-.1123.28418,0.34027,0.34027,0,0,0,.05273.19189,0.39306,0.39306,0,0,0,.13184.12793,0.54453,0.54453,0,0,0,.18359.06787,1.03048,1.03048,0,0,0,.2002.02,0.81261,0.81261,0,0,0,.6123-0.21973,0.8254,0.8254,0,0,0,.21191-0.59619V10.71414Z"/><path class="c" d="M205.73535,12.45V6.40212h1.33594V12.45h-1.33594Z"/><path class="c" d="M212.85449,9.75417a0.79539,0.79539,0,0,0-.30371-0.23242,0.93261,0.93261,0,0,0-.3916-0.08789,0.83126,0.83126,0,0,0-.376.084,0.914,0.914,0,0,0-.28809.22412,1.06109,1.06109,0,0,0-.18848.32422,1.12826,1.12826,0,0,0-.06738.3916,1.17489,1.17489,0,0,0,.06348.39209,0.95465,0.95465,0,0,0,.18848.32422,0.88145,0.88145,0,0,0,.2959.21973,0.90256,0.90256,0,0,0,.3877.08008,1.10039,1.10039,0,0,0,.39648-0.07568,0.76206,0.76206,0,0,0,.31543-0.22021l0.72852,0.88818a1.72219,1.72219,0,0,1-.64062.376,2.524,2.524,0,0,1-.832.13574,2.62881,2.62881,0,0,1-.88086-0.144,2.04334,2.04334,0,0,1-.71094-0.41992,1.97185,1.97185,0,0,1-.47461-0.668,2.33482,2.33482,0,0,1,0-1.76807,1.97185,1.97185,0,0,1,.47461-0.668,2.09791,2.09791,0,0,1,.71094-0.42383,2.54526,2.54526,0,0,1,.873-0.14795,2.275,2.275,0,0,1,.42773.04,2.81258,2.81258,0,0,1,.4082.10791,1.85017,1.85017,0,0,1,.36035.168,1.521,1.521,0,0,1,.28418.21973Z"/><path class="c" d="M214.31152,9.01a2.28746,2.28746,0,0,1,.82031-0.50391,2.79712,2.79712,0,0,1,.95605-0.168,2.54585,2.54585,0,0,1,.85156.124,1.26984,1.26984,0,0,1,.56445.38379,1.6406,1.6406,0,0,1,.31543.65576,3.89093,3.89093,0,0,1,.10059.94043V12.45h-1.2002V12.02615h-0.02441a0.99175,0.99175,0,0,1-.46.38379,1.63095,1.63095,0,0,1-.668.13623,2.05269,2.05269,0,0,1-.49609-0.064,1.465,1.465,0,0,1-.46777-0.208,1.116,1.116,0,0,1-.34766-0.38428,1.18407,1.18407,0,0,1-.13672-0.5918,1.00687,1.00687,0,0,1,.23633-0.69629,1.54755,1.54755,0,0,1,.6084-0.40771,3.21917,3.21917,0,0,1,.82715-0.19238,8.57554,8.57554,0,0,1,.88867-0.04785v-0.064a0.48854,0.48854,0,0,0-.208-0.436,0.8981,0.8981,0,0,0-.5127-0.14014,1.2683,1.2683,0,0,0-.53906.12012,1.7141,1.7141,0,0,0-.44434.28809Zm2.4082,1.7041h-0.168c-0.14453,0-.29.00635-0.43652,0.02a1.792,1.792,0,0,0-.3916.07568,0.72444,0.72444,0,0,0-.28418.16406,0.37586,0.37586,0,0,0-.1123.28418,0.34027,0.34027,0,0,0,.05273.19189,0.39306,0.39306,0,0,0,.13184.12793,0.54453,0.54453,0,0,0,.18359.06787,1.03048,1.03048,0,0,0,.2002.02,0.81261,0.81261,0,0,0,.6123-0.21973,0.8254,0.8254,0,0,0,.21191-0.59619V10.71414Z"/><path class="c" d="M221.6748,12.45V10.27419a1.7769,1.7769,0,0,0-.02832-0.32031,0.87653,0.87653,0,0,0-.0918-0.26807,0.48179,0.48179,0,0,0-.17969-0.18408,0.57417,0.57417,0,0,0-.292-0.06787,0.67434,0.67434,0,0,0-.30859.06787,0.624,0.624,0,0,0-.21973.18848,0.84964,0.84964,0,0,0-.13184.27588,1.18825,1.18825,0,0,0-.04395.32373V12.45h-1.32031V8.46609h1.27246V9.01785h0.01563a1.30144,1.30144,0,0,1,.18848-0.252,1.1333,1.1333,0,0,1,.27148-0.21191,1.73841,1.73841,0,0,1,.33984-0.144,1.3528,1.3528,0,0,1,.39258-0.05615,1.47481,1.47481,0,0,1,.67969.144,1.31039,1.31039,0,0,1,.45215.37207,1.47233,1.47233,0,0,1,.248.52393,2.37224,2.37224,0,0,1,.07617.59229V12.45H221.6748Z"/><path class="c" d="M227.1582,12.45V11.93h-0.0166a1.2456,1.2456,0,0,1-.54785.46826,1.79127,1.79127,0,0,1-.75586.16357,1.76438,1.76438,0,0,1-.7998-0.17578,1.8341,1.8341,0,0,1-.59668-0.46826,2.0553,2.0553,0,0,1-.37109-0.67578,2.49507,2.49507,0,0,1-.12891-0.7998,2.4144,2.4144,0,0,1,.13281-0.79639,2.074,2.074,0,0,1,.376-0.668,1.75252,1.75252,0,0,1,1.37207-.624,1.51746,1.51746,0,0,1,.74316.168,1.658,1.658,0,0,1,.47266.36816h0.01563V6.40212h1.3125V12.45h-1.208Zm-0.04785-2a1.08636,1.08636,0,0,0-.06836-0.376,1.07188,1.07188,0,0,0-.19238-0.32813,0.951,0.951,0,0,0-.2998-0.23193,0.88428,0.88428,0,0,0-.40039-0.08789,0.89923,0.89923,0,0,0-.40723.08789,0.92657,0.92657,0,0,0-.2959.228,0.93727,0.93727,0,0,0-.18066.32422,1.20133,1.20133,0,0,0-.05957.376,1.24162,1.24162,0,0,0,.05957.37988,0.97765,0.97765,0,0,0,.18066.332,0.88385,0.88385,0,0,0,.70313.31982,0.88428,0.88428,0,0,0,.40039-0.08789,0.951,0.951,0,0,0,.2998-0.23193A1.07188,1.07188,0,0,0,227.042,10.826,1.08636,1.08636,0,0,0,227.11035,10.45Z"/><path class="c" d="M230.96484,7.19412a0.67635,0.67635,0,0,1-.05957.28369,0.72045,0.72045,0,0,1-.40039.38037,0.78019,0.78019,0,0,1-.292.05566,0.73188,0.73188,0,0,1-.53516-0.21191,0.70295,0.70295,0,0,1-.16016-0.78418,0.65072,0.65072,0,0,1,.16016-0.22754A0.83779,0.83779,0,0,1,229.917,6.534a0.72529,0.72529,0,0,1,.2959-0.06006,0.78061,0.78061,0,0,1,.292.05615,0.72824,0.72824,0,0,1,.24023.15186,0.73914,0.73914,0,0,1,.16016.228A0.677,0.677,0,0,1,230.96484,7.19412ZM229.55762,12.45V8.46609h1.31152V12.45h-1.31152Z"/><path class="c" d="M235.06055,12.45V11.93h-0.0166a1.2456,1.2456,0,0,1-.54785.46826,1.79127,1.79127,0,0,1-.75586.16357,1.76438,1.76438,0,0,1-.7998-0.17578,1.8341,1.8341,0,0,1-.59668-0.46826,2.0553,2.0553,0,0,1-.37109-0.67578,2.49508,2.49508,0,0,1-.12891-0.7998,2.4144,2.4144,0,0,1,.13281-0.79639,2.074,2.074,0,0,1,.376-0.668,1.75252,1.75252,0,0,1,1.37207-.624,1.51746,1.51746,0,0,1,.74316.168,1.658,1.658,0,0,1,.47266.36816h0.01563V6.40212h1.3125V12.45h-1.208Zm-0.04785-2a1.08636,1.08636,0,0,0-.06836-0.376,1.07188,1.07188,0,0,0-.19238-0.32813,0.951,0.951,0,0,0-.2998-0.23193,0.88428,0.88428,0,0,0-.40039-0.08789,0.89923,0.89923,0,0,0-.40723.08789,0.92657,0.92657,0,0,0-.2959.228,0.93727,0.93727,0,0,0-.18066.32422,1.20133,1.20133,0,0,0-.05957.376,1.24162,1.24162,0,0,0,.05957.37988,0.97765,0.97765,0,0,0,.18066.332,0.88385,0.88385,0,0,0,.70313.31982,0.88428,0.88428,0,0,0,.40039-0.08789,0.951,0.951,0,0,0,.2998-0.23193,1.07188,1.07188,0,0,0,.19238-0.32812A1.08636,1.08636,0,0,0,235.0127,10.45Z"/><path class="c" d="M237.40332,9.01a2.28746,2.28746,0,0,1,.82031-0.50391,2.79711,2.79711,0,0,1,.95605-0.168,2.54585,2.54585,0,0,1,.85156.124,1.26984,1.26984,0,0,1,.56445.38379,1.6406,1.6406,0,0,1,.31543.65576,3.89093,3.89093,0,0,1,.10059.94043V12.45h-1.2002V12.02615h-0.02441a0.99175,0.99175,0,0,1-.46.38379,1.63095,1.63095,0,0,1-.668.13623,2.05269,2.05269,0,0,1-.49609-0.064,1.465,1.465,0,0,1-.46777-0.208,1.116,1.116,0,0,1-.34766-0.38428,1.18407,1.18407,0,0,1-.13672-0.5918,1.00687,1.00687,0,0,1,.23633-0.69629,1.54755,1.54755,0,0,1,.6084-0.40771,3.21917,3.21917,0,0,1,.82715-0.19238,8.57554,8.57554,0,0,1,.88867-0.04785v-0.064a0.48854,0.48854,0,0,0-.208-0.436,0.8981,0.8981,0,0,0-.5127-0.14014,1.2683,1.2683,0,0,0-.53906.12012,1.7141,1.7141,0,0,0-.44434.28809Zm2.4082,1.7041h-0.168c-0.14453,0-.29.00635-0.43652,0.02a1.792,1.792,0,0,0-.3916.07568,0.72444,0.72444,0,0,0-.28418.16406,0.37586,0.37586,0,0,0-.1123.28418,0.34027,0.34027,0,0,0,.05273.19189,0.39306,0.39306,0,0,0,.13184.12793,0.54453,0.54453,0,0,0,.18359.06787,1.03048,1.03048,0,0,0,.2002.02,0.81261,0.81261,0,0,0,.6123-0.21973,0.8254,0.8254,0,0,0,.21191-0.59619V10.71414Z"/><path class="c" d="M243.58105,9.44216V10.968a0.68444,0.68444,0,0,0,.1084.42139,0.46239,0.46239,0,0,0,.3877.14063,1.37459,1.37459,0,0,0,.2041-0.01611,0.70917,0.70917,0,0,0,.18066-0.04785l0.01563,0.96a2.18694,2.18694,0,0,1-.34375.084,2.443,2.443,0,0,1-.416.03613,1.95193,1.95193,0,0,1-.67187-0.10059,1.03913,1.03913,0,0,1-.43652-0.28857,1.14245,1.14245,0,0,1-.23633-0.44922,2.19076,2.19076,0,0,1-.07129-0.58154V9.44216h-0.64062V8.46609h0.63281V7.41775h1.28711V8.46609h0.93652V9.44216h-0.93652Z"/><path class="c" d="M249.25586,10.50613V10.6658a1.50571,1.50571,0,0,1-.00781.15234h-2.8877a0.69874,0.69874,0,0,0,.09961.30371,0.86247,0.86247,0,0,0,.21582.23633,1.06262,1.06262,0,0,0,.63574.21191,1.10026,1.10026,0,0,0,.52832-0.11621,1.04149,1.04149,0,0,0,.35254-0.2998l0.91113,0.57568a1.84584,1.84584,0,0,1-.73926.62842,2.45323,2.45323,0,0,1-1.06836.21973,2.54733,2.54733,0,0,1-.84766-0.14014,2.06,2.06,0,0,1-.7002-0.40771,1.88286,1.88286,0,0,1-.47168-0.66016,2.20043,2.20043,0,0,1-.17285-0.896,2.23517,2.23517,0,0,1,.16895-0.88379,1.996,1.996,0,0,1,.45508-0.67236A2.04517,2.04517,0,0,1,246.4082,8.49a2.32781,2.32781,0,0,1,.84766-0.15186,2.15416,2.15416,0,0,1,.80859.14795,1.76739,1.76739,0,0,1,.63184.42773,2.00015,2.00015,0,0,1,.41211.68018A2.61851,2.61851,0,0,1,249.25586,10.50613Zm-1.208-.50439a0.786,0.786,0,0,0-.19629-0.53564,0.73774,0.73774,0,0,0-.58789-0.22412,0.99131,0.99131,0,0,0-.35156.06006,0.91764,0.91764,0,0,0-.28027.16406,0.81108,0.81108,0,0,0-.19141.24365,0.69773,0.69773,0,0,0-.08008.292h1.6875Z"/><path class="c" d="M164.12988,30.31375h0.0166V25.78591h0.792V31.45h-1l-2.99219-4.624h-0.01562V31.45h-0.792V25.78591h1.03125Z"/><path class="c" d="M168.79688,28.99392A0.75311,0.75311,0,0,0,168.541,28.366a1.05866,1.05866,0,0,0-.67969-0.2041,1.49633,1.49633,0,0,0-.60449.124,1.53219,1.53219,0,0,0-.47559.31592l-0.40039-.48a2.026,2.026,0,0,1,.68457-0.416,2.44581,2.44581,0,0,1,.86719-0.15186,1.94863,1.94863,0,0,1,.708.11621,1.33553,1.33553,0,0,1,.49219.31592,1.28853,1.28853,0,0,1,.28809.47168,1.732,1.732,0,0,1,.0957.584V30.698c0,0.12793.00488,0.2627,0.0127,0.40381a2.04164,2.04164,0,0,0,.04395.34814h-0.68066a2.40452,2.40452,0,0,1-.06348-0.54395h-0.02441a1.464,1.464,0,0,1-.52344.47217,1.57487,1.57487,0,0,1-.748.168,1.95172,1.95172,0,0,1-.46777-0.06006,1.35115,1.35115,0,0,1-.44434-0.19629,1.09636,1.09636,0,0,1-.332-0.35986,1.071,1.071,0,0,1-.13184-0.55176,0.97218,0.97218,0,0,1,.23145-0.68408,1.47777,1.47777,0,0,1,.6084-0.38428,3.44973,3.44973,0,0,1,.84766-0.17187q0.47314-.04028.95215-0.04v-0.104Zm-0.18359.64795q-0.27979,0-.58008.02393a2.68673,2.68673,0,0,0-.54395.09619,1.02725,1.02725,0,0,0-.4043.21582,0.49282,0.49282,0,0,0-.16016.38428,0.52573,0.52573,0,0,0,.06836.27979,0.56272,0.56272,0,0,0,.17969.18408,0.72848,0.72848,0,0,0,.248.1001,1.39912,1.39912,0,0,0,.28027.02783,1.03406,1.03406,0,0,0,.81152-0.31592,1.14538,1.14538,0,0,0,.28418-0.7959v-0.2002h-0.18359Z"/><path class="c" d="M172.084,27.76589a1.313,1.313,0,0,1,.748-0.21191,1.37217,1.37217,0,0,1,.69238.17578,1.18033,1.18033,0,0,1,.4834.584,1.35934,1.35934,0,0,1,.53613-0.564,1.59969,1.59969,0,0,1,1.38477-.07178,1.2767,1.2767,0,0,1,.43945.332,1.33966,1.33966,0,0,1,.25977.48779,2.05859,2.05859,0,0,1,.084.6001V31.45H175.96V29.346a2.27142,2.27142,0,0,0-.04-0.43994,1.10635,1.10635,0,0,0-.13574-0.36816,0.73363,0.73363,0,0,0-.25586-0.25586,0.78439,0.78439,0,0,0-.4082-0.09619,0.84761,0.84761,0,0,0-.43945.1084,0.90851,0.90851,0,0,0-.30078.27979,1.19757,1.19757,0,0,0-.168.38818,1.89526,1.89526,0,0,0-.05176.43994V31.45h-0.752V29.19412a1.9479,1.9479,0,0,0-.04-0.4082,0.83262,0.83262,0,0,0-.13574-0.31592,0.6779,0.6779,0,0,0-.248-0.208,0.83454,0.83454,0,0,0-.376-0.07617,0.85791,0.85791,0,0,0-.69238.34033,1.39913,1.39913,0,0,0-.27539.90771V31.45h-0.752V28.4739q0-.15161-0.00879-0.39209c-0.00488-.15967-0.0127-0.30127-0.02344-0.42383h0.71191q0.01611,0.14429.02344,0.32422,0.00879,0.17944.00879,0.2998H171.624A1.28759,1.28759,0,0,1,172.084,27.76589Z"/><path class="c" d="M181.65332,29.52175v0.12842a0.9441,0.9441,0,0,1-.00879.12793h-3.01562a1.10321,1.10321,0,0,0,.1084.44873,1.17209,1.17209,0,0,0,.26758.36572,1.32491,1.32491,0,0,0,1.52051.16162,1.35437,1.35437,0,0,0,.43945-0.4082l0.52832,0.42383a1.88909,1.88909,0,0,1-.71582.59375,2.29815,2.29815,0,0,1-1.7168.04639,1.85,1.85,0,0,1-.63184-0.40381,1.88139,1.88139,0,0,1-.416-0.62793,2.11614,2.11614,0,0,1-.15137-0.81641,2.17922,2.17922,0,0,1,.14746-0.812,1.841,1.841,0,0,1,1.03906-1.04785,2.14514,2.14514,0,0,1,1.53516-.01172,1.5689,1.5689,0,0,1,.57715.3916,1.76473,1.76473,0,0,1,.36426.62012A2.446,2.446,0,0,1,181.65332,29.52175Zm-0.76855-.30371a1.39517,1.39517,0,0,0-.07617-0.41992,0.92213,0.92213,0,0,0-.52734-0.56836,1.16824,1.16824,0,0,0-.46-0.084,1.22,1.22,0,0,0-.45215.084,1.17421,1.17421,0,0,0-.36816.228,1.18807,1.18807,0,0,0-.25586.34033,1.07169,1.07169,0,0,0-.11621.41992h2.25586Z"/><path class="c" d="M164.41016,41.95388a1.83972,1.83972,0,0,0-.65234-0.44775,2.235,2.235,0,0,0-.88379-0.168,2.16166,2.16166,0,0,0-.89551.17969,2.01253,2.01253,0,0,0-.68066.49219,2.22892,2.22892,0,0,0-.43164.72412,2.50339,2.50339,0,0,0-.15234.876,2.56126,2.56126,0,0,0,.15234.8877,2.174,2.174,0,0,0,.43164.72412,1.9615,1.9615,0,0,0,.68848.48389,2.27307,2.27307,0,0,0,.91211.17627,3.48365,3.48365,0,0,0,.73535-0.07227,2.12458,2.12458,0,0,0,.584-0.208V44.02615h-1.25586V43.35378h2.04v2.74414a4.11015,4.11015,0,0,1-.97559.36816,4.91129,4.91129,0,0,1-1.15234.12793,3.279,3.279,0,0,1-1.21973-.22021,2.7555,2.7555,0,0,1-1.58008-1.56006,3.1499,3.1499,0,0,1-.22363-1.20361,3.11761,3.11761,0,0,1,.22754-1.21191,2.73268,2.73268,0,0,1,.63184-0.936,2.86755,2.86755,0,0,1,.95605-0.604,3.26689,3.26689,0,0,1,1.2002-.21631,3.42812,3.42812,0,0,1,1.21191.2002,2.5672,2.5672,0,0,1,.88379.53613Z"/><path class="c" d="M170.01855,44.52175v0.12842a0.9441,0.9441,0,0,1-.00879.12793h-3.01562a1.10321,1.10321,0,0,0,.1084.44873,1.17209,1.17209,0,0,0,.26758.36572,1.32491,1.32491,0,0,0,1.52051.16162,1.35437,1.35437,0,0,0,.43945-0.4082l0.52832,0.42383a1.88909,1.88909,0,0,1-.71582.59375,2.29815,2.29815,0,0,1-1.7168.04639,1.85,1.85,0,0,1-.63184-0.40381,1.88139,1.88139,0,0,1-.416-0.62793,2.11614,2.11614,0,0,1-.15137-0.81641,2.17923,2.17923,0,0,1,.14746-0.812,1.841,1.841,0,0,1,1.03906-1.04785,2.14514,2.14514,0,0,1,1.53516-.01172,1.5689,1.5689,0,0,1,.57715.3916,1.76473,1.76473,0,0,1,.36426.62012A2.446,2.446,0,0,1,170.01855,44.52175ZM169.25,44.218a1.39517,1.39517,0,0,0-.07617-0.41992,0.92213,0.92213,0,0,0-.52734-0.56836,1.16824,1.16824,0,0,0-.46-0.084,1.22,1.22,0,0,0-.45215.084,1.17421,1.17421,0,0,0-.36816.228,1.18808,1.18808,0,0,0-.25586.34033,1.07169,1.07169,0,0,0-.11621.41992H169.25Z"/><path class="c" d="M171.86133,42.658q0.01611,0.14429.02344,0.32422,0.00879,0.17944.00879,0.2998H171.917a1.10649,1.10649,0,0,1,.19629-0.28418,1.42046,1.42046,0,0,1,.28418-0.23193,1.39513,1.39513,0,0,1,.35156-0.15576,1.41418,1.41418,0,0,1,.40039-0.05615,1.47748,1.47748,0,0,1,.63184.124,1.28977,1.28977,0,0,1,.44043.332,1.35451,1.35451,0,0,1,.25977.48779,2.09208,2.09208,0,0,1,.084.6001V46.45h-0.752V44.346a2.6351,2.6351,0,0,0-.03613-0.43994,1.08153,1.08153,0,0,0-.13184-0.36816,0.71984,0.71984,0,0,0-.26465-0.25586,0.86131,0.86131,0,0,0-.43164-0.09619,0.91147,0.91147,0,0,0-.73242.34033,1.36936,1.36936,0,0,0-.2832.90771V46.45h-0.752V43.4739q0-.15161-0.00879-0.39209c-0.00488-.15967-0.0127-0.30127-0.02344-0.42383h0.71191Z"/><path class="c" d="M178.98438,45.84988a1.39241,1.39241,0,0,1-.58789.52393,1.76753,1.76753,0,0,1-.78027.18018,1.94613,1.94613,0,0,1-.792-0.15576,1.77473,1.77473,0,0,1-.59961-0.42822,1.91967,1.91967,0,0,1-.38379-0.64014,2.23771,2.23771,0,0,1-.13672-0.78369,2.20889,2.20889,0,0,1,.13672-0.78027,1.89022,1.89022,0,0,1,.3877-0.63574,1.76882,1.76882,0,0,1,.60352-0.42432,1.94715,1.94715,0,0,1,.77637-0.15186,1.60332,1.60332,0,0,1,.80762.1958,1.68147,1.68147,0,0,1,.54492.47607h0.01563V40.40212h0.752V46.45H179.001v-0.6001h-0.0166Zm-2.49609-1.2998a1.63511,1.63511,0,0,0,.08008.51025,1.31451,1.31451,0,0,0,.24023.439,1.259,1.259,0,0,0,1.46.311,1.2686,1.2686,0,0,0,.4043-0.29932,1.36161,1.36161,0,0,0,.25977-0.43457,1.51054,1.51054,0,0,0,0-1.03711,1.41323,1.41323,0,0,0-.25977-0.43848,1.24422,1.24422,0,0,0-.4043-0.30322,1.21336,1.21336,0,0,0-.52441-0.11182,1.24643,1.24643,0,0,0-.54395.11182,1.165,1.165,0,0,0-.3916.30322,1.31221,1.31221,0,0,0-.24023.43848A1.63815,1.63815,0,0,0,176.48828,44.55007Z"/><path class="c" d="M184.708,44.52175v0.12842a0.94412,0.94412,0,0,1-.00879.12793h-3.01562a1.10321,1.10321,0,0,0,.1084.44873,1.17209,1.17209,0,0,0,.26758.36572,1.32491,1.32491,0,0,0,1.52051.16162,1.35436,1.35436,0,0,0,.43945-0.4082l0.52832,0.42383a1.88909,1.88909,0,0,1-.71582.59375,2.29815,2.29815,0,0,1-1.7168.04639,1.85,1.85,0,0,1-.63184-0.40381,1.88139,1.88139,0,0,1-.416-0.62793,2.11614,2.11614,0,0,1-.15137-0.81641,2.17923,2.17923,0,0,1,.14746-0.812,1.841,1.841,0,0,1,1.03906-1.04785,2.14514,2.14514,0,0,1,1.53516-.01172,1.5689,1.5689,0,0,1,.57715.3916,1.76473,1.76473,0,0,1,.36426.62012A2.446,2.446,0,0,1,184.708,44.52175Zm-0.76855-.30371a1.39517,1.39517,0,0,0-.07617-0.41992,0.92213,0.92213,0,0,0-.52734-0.56836,1.16824,1.16824,0,0,0-.46-0.084,1.22,1.22,0,0,0-.45215.084,1.17421,1.17421,0,0,0-.36816.228,1.18807,1.18807,0,0,0-.25586.34033,1.07169,1.07169,0,0,0-.11621.41992h2.25586Z"/><path class="c" d="M185.8623,43.08181c-0.00488-.15967-0.0127-0.30127-0.02344-0.42383h0.71191c0.01074,0.09619.01855,0.20654,0.02344,0.332q0.00879,0.18823.00879,0.30811h0.02344a1.30979,1.30979,0,0,1,.46777-0.54,1.22689,1.22689,0,0,1,.69238-0.2041,1.15976,1.15976,0,0,1,.2959.03223l-0.03223.6958a1.40029,1.40029,0,0,0-.34375-0.04,1.0369,1.0369,0,0,0-.47168.1001,0.95791,0.95791,0,0,0-.332.26807,1.1394,1.1394,0,0,0-.19629.3877,1.63031,1.63031,0,0,0-.06348.46V46.45h-0.752V43.4739Q185.87109,43.32229,185.8623,43.08181Z"/><path class="c" d="M160.37012,61.45h-0.87988l2.45605-5.66406H162.666L165.09863,61.45h-0.89648L163.626,60.05789h-2.6875Zm0.84766-2.08789h2.12012l-1.05566-2.65625Z"/><path class="c" d="M166.17969,62.09792a1.81352,1.81352,0,0,0,.62012.44824,1.83487,1.83487,0,0,0,.76367.168,1.62234,1.62234,0,0,0,.63184-0.1084,1.056,1.056,0,0,0,.41211-0.2959,1.14477,1.14477,0,0,0,.22363-0.44385,2.12307,2.12307,0,0,0,.06836-0.55225V60.826h-0.01562a1.3381,1.3381,0,0,1-.56836.48779,1.79151,1.79151,0,0,1-.76855.16846,1.98142,1.98142,0,0,1-.78711-0.15234,1.76292,1.76292,0,0,1-.60449-0.416,1.87194,1.87194,0,0,1-.38379-0.61963,2.12012,2.12012,0,0,1-.13574-0.76416,2.15093,2.15093,0,0,1,.13574-0.76807,1.90964,1.90964,0,0,1,.38379-0.62793,1.79879,1.79879,0,0,1,.59961-0.42432,1.917,1.917,0,0,1,.78418-0.15576,1.80408,1.80408,0,0,1,.78027.17578,1.344,1.344,0,0,1,.58789.53613h0.0166V57.658h0.72754v3.6001a3.00192,3.00192,0,0,1-.10449.7959,1.73283,1.73283,0,0,1-.35156.67188,1.76054,1.76054,0,0,1-.64844.46826,2.46369,2.46369,0,0,1-.99121.17578,2.93044,2.93044,0,0,1-.99609-0.17969,2.53369,2.53369,0,0,1-.86035-0.5083Zm0.22363-2.584a1.52,1.52,0,0,0,.084.50391,1.24226,1.24226,0,0,0,.64648.72021,1.20683,1.20683,0,0,0,.5293.11182,1.32753,1.32753,0,0,0,.53027-0.104,1.21725,1.21725,0,0,0,.40918-0.28369,1.26927,1.26927,0,0,0,.26074-0.42432,1.46671,1.46671,0,0,0,.0918-0.52393,1.41634,1.41634,0,0,0-.0918-0.51221,1.2841,1.2841,0,0,0-.67383-0.71582,1.34487,1.34487,0,0,0-1.05566,0,1.235,1.235,0,0,0-.39746.28809,1.21473,1.21473,0,0,0-.249.42383A1.58627,1.58627,0,0,0,166.40332,59.51394Z"/><path class="c" d="M174.62793,59.52175v0.12842a0.9441,0.9441,0,0,1-.00879.12793h-3.01562a1.10321,1.10321,0,0,0,.1084.44873,1.17209,1.17209,0,0,0,.26758.36572,1.32491,1.32491,0,0,0,1.52051.16162,1.35437,1.35437,0,0,0,.43945-0.4082l0.52832,0.42383a1.88909,1.88909,0,0,1-.71582.59375,2.29815,2.29815,0,0,1-1.7168.04639,1.85,1.85,0,0,1-.63184-0.40381,1.88139,1.88139,0,0,1-.416-0.62793,2.11614,2.11614,0,0,1-.15137-0.81641,2.17923,2.17923,0,0,1,.14746-0.812,1.841,1.841,0,0,1,1.03906-1.04785,2.14514,2.14514,0,0,1,1.53516-.01172,1.5689,1.5689,0,0,1,.57715.3916,1.76473,1.76473,0,0,1,.36426.62012A2.446,2.446,0,0,1,174.62793,59.52175Zm-0.76855-.30371a1.39517,1.39517,0,0,0-.07617-0.41992,0.92213,0.92213,0,0,0-.52734-0.56836,1.16824,1.16824,0,0,0-.46-0.084,1.22,1.22,0,0,0-.45215.084,1.17421,1.17421,0,0,0-.36816.228,1.18808,1.18808,0,0,0-.25586.34033,1.07169,1.07169,0,0,0-.11621.41992h2.25586Z"/></svg>