<svg xmlns="http://www.w3.org/2000/svg" viewBox="0 0 90.9 85.46159"><defs><style>.a{fill:#cdbbdc;}.a,.b{stroke:#3d4752;stroke-miterlimit:10;stroke-width:0.9px;}.b{fill:none;}.c{fill:#3d4752;}</style></defs><title>database design diagrams</title><path class="a" d="M90.45,2.7V18.45h-90V2.7A2.23439,2.23439,0,0,1,2.7.45H88.2A2.26631,2.26631,0,0,1,90.45,2.7Z"/><path class="b" d="M90.45,18.45V82.76159a2.28636,2.28636,0,0,1-2.25,2.25H2.7a2.25338,2.25338,0,0,1-2.25-2.25V18.45h90Z"/><path class="c" d="M11.33008,8.52991a1.743,1.743,0,0,1-.18359.83594,1.5156,1.5156,0,0,1-.49609.54785,2.20294,2.20294,0,0,1-.71973.30469,3.7305,3.7305,0,0,1-.84863.0957H8.40234v2.13574H7.03418V6.78577H9.11426a3.89276,3.89276,0,0,1,.86816.09277,2.02658,2.02658,0,0,1,.7041.2959,1.44548,1.44548,0,0,1,.47168.53516A1.77641,1.77641,0,0,1,11.33008,8.52991Zm-1.36816.00781a0.6096,0.6096,0,0,0-.08008-0.32812A0.55145,0.55145,0,0,0,9.666,8.01037,0.94686,0.94686,0,0,0,9.3584,7.91369,2.64372,2.64372,0,0,0,9.002,7.89026H8.40234V9.22619H8.97852A2.04947,2.04947,0,0,0,9.34668,9.194a0.98427,0.98427,0,0,0,.31543-0.1123,0.5876,0.5876,0,0,0,.21973-0.21191A0.62635,0.62635,0,0,0,9.96191,8.53772Z"/><path class="c" d="M14.74609,9.54651a0.91534,0.91534,0,0,0-.17187-0.03223,1.56216,1.56216,0,0,0-.16406-0.00781,0.92473,0.92473,0,0,0-.44336.0957,0.88529,0.88529,0,0,0-.28809.23145,0.86848,0.86848,0,0,0-.15625.29492,0.97843,0.97843,0,0,0-.04785.2793v2.042h-1.3125V8.47034h1.26465V9.04651h0.01563a1.30035,1.30035,0,0,1,.43164-0.499,1.11383,1.11383,0,0,1,.64844-0.19336c0.05273,0,.10547.00293,0.15625,0.00781a0.6309,0.6309,0,0,1,.124.02441Z"/><path class="c" d="M19.74609,10.442a2.13852,2.13852,0,0,1-.17676.88379,1.97515,1.97515,0,0,1-.47949.67188,2.19918,2.19918,0,0,1-.7041.42871,2.48478,2.48478,0,0,1-1.708,0,2.13742,2.13742,0,0,1-.7041-0.42871A1.99218,1.99218,0,0,1,15.498,11.3258a2.15426,2.15426,0,0,1-.17676-0.88379A2.12915,2.12915,0,0,1,15.498,9.56213a1.9698,1.9698,0,0,1,.47559-0.66406,2.06057,2.06057,0,0,1,.7041-0.416,2.612,2.612,0,0,1,1.708,0,2.11746,2.11746,0,0,1,.7041.416,1.9532,1.9532,0,0,1,.47949.66406A2.11365,2.11365,0,0,1,19.74609,10.442Zm-1.26465,0a1.15578,1.15578,0,0,0-.06348-0.376,1.0011,1.0011,0,0,0-.18457-0.32422,0.94322,0.94322,0,0,0-.2959-0.22754,0.98962,0.98962,0,0,0-.81543,0,0.88486,0.88486,0,0,0-.292.22754,0.96635,0.96635,0,0,0-.17676.32422,1.21627,1.21627,0,0,0,0,.752,1.02562,1.02562,0,0,0,.18066.332,0.88816,0.88816,0,0,0,.2959.23633,0.98962,0.98962,0,0,0,.81543,0A0.88216,0.88216,0,0,0,18.24219,11.15a1.042,1.042,0,0,0,.17969-0.332A1.20134,1.20134,0,0,0,18.48145,10.442Z"/><path class="c" d="M23.74707,12.44983V11.9303h-0.0166a1.24773,1.24773,0,0,1-.54785.46777,1.78431,1.78431,0,0,1-.75586.16406,1.76438,1.76438,0,0,1-.7998-0.17578,1.829,1.829,0,0,1-.59668-0.46875,2.0553,2.0553,0,0,1-.37109-0.67578,2.49507,2.49507,0,0,1-.12891-0.7998,2.40939,2.40939,0,0,1,.13281-0.7959,2.074,2.074,0,0,1,.376-0.668,1.75252,1.75252,0,0,1,1.37207-.624,1.51208,1.51208,0,0,1,.74316.168,1.64945,1.64945,0,0,1,.47266.36816h0.01563V6.402h1.3125v6.04785h-1.208Zm-0.04785-2a1.09352,1.09352,0,0,0-.26074-0.7041,0.94964,0.94964,0,0,0-.2998-0.23145,0.88428,0.88428,0,0,0-.40039-0.08789,0.89923,0.89923,0,0,0-.40723.08789,0.93223,0.93223,0,0,0-.2959.22754,0.94172,0.94172,0,0,0-.18066.32422,1.20582,1.20582,0,0,0-.05957.376,1.23932,1.23932,0,0,0,.05957.37988,0.96859,0.96859,0,0,0,.18066.332,0.88223,0.88223,0,0,0,.70313.32031,0.88428,0.88428,0,0,0,.40039-0.08789,0.95242,0.95242,0,0,0,.2998-0.23242,1.06048,1.06048,0,0,0,.19238-0.32812A1.08431,1.08431,0,0,0,23.69922,10.44983Z"/><path class="c" d="M28.77148,12.44983V11.89807H28.75586a1.12876,1.12876,0,0,1-.18848.25586,1.18416,1.18416,0,0,1-.27148.208,1.73028,1.73028,0,0,1-.34375.14453,1.39432,1.39432,0,0,1-.39648.05566,1.43752,1.43752,0,0,1-.67578-0.14453,1.30258,1.30258,0,0,1-.44824-0.37109,1.48423,1.48423,0,0,1-.248-0.52051,2.35029,2.35029,0,0,1-.07617-0.5957V8.46643h1.32031v2.15918a1.98265,1.98265,0,0,0,.02441.32031,0.78118,0.78118,0,0,0,.0918.27246,0.50277,0.50277,0,0,0,.17969.1875,0.5625,0.5625,0,0,0,.2959.06836,0.60043,0.60043,0,0,0,.52441-0.25586,1.01745,1.01745,0,0,0,.17969-0.60059V8.46643h1.3125v3.9834H28.77148Z"/><path class="c" d="M33.96387,9.75452a0.78594,0.78594,0,0,0-.30371-0.23242,0.93262,0.93262,0,0,0-.3916-0.08789,0.83126,0.83126,0,0,0-.376.084,0.91259,0.91259,0,0,0-.28809.22363,1.06691,1.06691,0,0,0-.18848.32422,1.13025,1.13025,0,0,0-.06738.3916,1.17777,1.17777,0,0,0,.06348.39258,0.95932,0.95932,0,0,0,.18848.32422,0.88556,0.88556,0,0,0,.68359.2998,1.09074,1.09074,0,0,0,.39648-0.07617,0.76563,0.76563,0,0,0,.31543-0.21973l0.72852,0.8877a1.71569,1.71569,0,0,1-.64062.376,2.51134,2.51134,0,0,1-.832.13574,2.641,2.641,0,0,1-.88086-0.14355,2.05085,2.05085,0,0,1-.71094-0.41992,1.98144,1.98144,0,0,1-.47461-0.668,2.1669,2.1669,0,0,1-.17383-0.88867,2.14424,2.14424,0,0,1,.17383-0.87988,1.98144,1.98144,0,0,1,.47461-0.668A2.10578,2.10578,0,0,1,32.37109,8.486a2.54506,2.54506,0,0,1,.873-0.14746,2.235,2.235,0,0,1,.42773.04,2.87577,2.87577,0,0,1,.4082.10742,1.909,1.909,0,0,1,.36035.168,1.54182,1.54182,0,0,1,.28418.21973Z"/><path class="c" d="M37.08691,9.442v1.52637a0.68381,0.68381,0,0,0,.1084.4209,0.46239,0.46239,0,0,0,.3877.14063,1.37165,1.37165,0,0,0,.2041-0.01562,0.70917,0.70917,0,0,0,.18066-0.04785l0.01563,0.96a2.30162,2.30162,0,0,1-.34375.084,2.49368,2.49368,0,0,1-.416.03613,1.96374,1.96374,0,0,1-.67187-0.10059,1.03541,1.03541,0,0,1-.43652-0.28906,1.1391,1.1391,0,0,1-.23633-0.44922,2.187,2.187,0,0,1-.07129-0.58105V9.442H35.167V8.46643H35.7998V7.4176h1.28711V8.46643h0.93652V9.442H37.08691Z"/><path class="c" d="M41.30664,9.64221a1.476,1.476,0,0,0-.376-0.25586,1.04309,1.04309,0,0,0-.45605-0.10449,0.80792,0.80792,0,0,0-.34082.07227,0.25256,0.25256,0,0,0-.15527.248,0.246,0.246,0,0,0,.17188.24023,3.76381,3.76381,0,0,0,.55566.15918,3.05313,3.05313,0,0,1,.45215.13672,1.60306,1.60306,0,0,1,.41211.23145,1.1344,1.1344,0,0,1,.2959.35254,1.03667,1.03667,0,0,1,.1123.49609,1.23807,1.23807,0,0,1-.15234.63574,1.25458,1.25458,0,0,1-.39551.41992,1.73668,1.73668,0,0,1-.54883.23242,2.63225,2.63225,0,0,1-.60742.07129,3.01583,3.01583,0,0,1-.95605-0.15527,2.01686,2.01686,0,0,1-.78027-0.46l0.73633-.77637a1.47658,1.47658,0,0,0,.43164.32031,1.20725,1.20725,0,0,0,.54395.12793,0.71752,0.71752,0,0,0,.31641-0.07617,0.27466,0.27466,0,0,0,.15625-0.26855,0.28751,0.28751,0,0,0-.19238-0.27148,3.48992,3.48992,0,0,0-.59961-0.18457,2.86859,2.86859,0,0,1-.416-0.12793,1.2772,1.2772,0,0,1-.37207-0.21582,1.07183,1.07183,0,0,1-.26855-0.33594,1.02544,1.02544,0,0,1-.10352-0.47949,1.17147,1.17147,0,0,1,.15137-0.6123A1.28836,1.28836,0,0,1,39.31445,8.65a1.74723,1.74723,0,0,1,.53223-0.23633,2.32807,2.32807,0,0,1,.5791-0.0752,2.78636,2.78636,0,0,1,.876.13965,1.895,1.895,0,0,1,.72461.41992Z"/><path class="c" d="M11.99414,30.56994a2.54288,2.54288,0,0,1-.87207.74023,2.71809,2.71809,0,0,1-1.28809.28418,3.16327,3.16327,0,0,1-1.19531-.2207,2.775,2.775,0,0,1-.94434-0.61523,2.85044,2.85044,0,0,1-.62012-0.94434,3.34728,3.34728,0,0,1,.00391-2.416A2.73065,2.73065,0,0,1,7.71,26.46252,2.86872,2.86872,0,0,1,8.666,25.858a3.27683,3.27683,0,0,1,1.2002-.21582,3.15112,3.15112,0,0,1,.584.05566,2.93328,2.93328,0,0,1,.56836.168,2.39321,2.39321,0,0,1,.49609.27637,1.83884,1.83884,0,0,1,.38379.37988l-0.624.47949a1.56334,1.56334,0,0,0-.58789-0.47559,1.83209,1.83209,0,0,0-.82031-0.1875,2.126,2.126,0,0,0-.8916.17969,2.01622,2.01622,0,0,0-.67676.49219,2.23177,2.23177,0,0,0-.43164.72363,2.50339,2.50339,0,0,0-.15234.876,2.65657,2.65657,0,0,0,.14844.89648,2.15431,2.15431,0,0,0,.42383.72363,1.95777,1.95777,0,0,0,.67188.48438,2.15727,2.15727,0,0,0,.88379.17578,1.95433,1.95433,0,0,0,.87207-0.19238,1.6793,1.6793,0,0,0,.64844-0.55957Z"/><path class="c" d="M16.793,29.54651a2.05666,2.05666,0,0,1-.15625.80762,1.90933,1.90933,0,0,1-1.084,1.05176,2.27391,2.27391,0,0,1-1.61621,0,1.89281,1.89281,0,0,1-.64746-0.416,1.95741,1.95741,0,0,1-.42871-0.63574,2.05632,2.05632,0,0,1-.15527-0.80762,2.03151,2.03151,0,0,1,.15527-0.80469,1.89949,1.89949,0,0,1,1.07617-1.04,2.288,2.288,0,0,1,1.61621,0,1.98949,1.98949,0,0,1,.65234.41211,1.90169,1.90169,0,0,1,.43164.62793A2.03181,2.03181,0,0,1,16.793,29.54651Zm-0.78418.00391a1.61186,1.61186,0,0,0-.084-0.51855,1.31024,1.31024,0,0,0-.24512-0.43457,1.18744,1.18744,0,0,0-.39746-0.2998,1.37261,1.37261,0,0,0-1.083,0,1.17777,1.17777,0,0,0-.39746.2998,1.31024,1.31024,0,0,0-.24512.43457,1.64288,1.64288,0,0,0,0,1.03711,1.36912,1.36912,0,0,0,.24512.43848,1.13678,1.13678,0,0,0,.39746.30273,1.36165,1.36165,0,0,0,1.083,0,1.14574,1.14574,0,0,0,.39746-0.30273A1.36912,1.36912,0,0,0,15.9248,30.069,1.61186,1.61186,0,0,0,16.00879,29.55041Z"/><path class="c" d="M18.72168,31.44983h-0.752V25.402h0.752v6.04785Z"/><path class="c" d="M23.99609,29.54651a2.05666,2.05666,0,0,1-.15625.80762,1.90933,1.90933,0,0,1-1.084,1.05176,2.27391,2.27391,0,0,1-1.61621,0,1.89281,1.89281,0,0,1-.64746-0.416,1.95741,1.95741,0,0,1-.42871-0.63574,2.05632,2.05632,0,0,1-.15527-0.80762,2.03151,2.03151,0,0,1,.15527-0.80469,1.89949,1.89949,0,0,1,1.07617-1.04,2.288,2.288,0,0,1,1.61621,0,1.98949,1.98949,0,0,1,.65234.41211,1.90169,1.90169,0,0,1,.43164.62793A2.03181,2.03181,0,0,1,23.99609,29.54651Zm-0.78418.00391a1.61186,1.61186,0,0,0-.084-0.51855,1.31024,1.31024,0,0,0-.24512-0.43457,1.18744,1.18744,0,0,0-.39746-0.2998,1.37261,1.37261,0,0,0-1.083,0,1.17777,1.17777,0,0,0-.39746.2998,1.31024,1.31024,0,0,0-.24512.43457,1.64288,1.64288,0,0,0,0,1.03711,1.36912,1.36912,0,0,0,.24512.43848,1.13678,1.13678,0,0,0,.39746.30273,1.36165,1.36165,0,0,0,1.083,0,1.14574,1.14574,0,0,0,.39746-0.30273,1.36912,1.36912,0,0,0,.24512-0.43848A1.61186,1.61186,0,0,0,23.21191,29.55041Z"/><path class="c" d="M25.14844,28.08166c-0.00488-.15918-0.0127-0.30078-0.02344-0.42383h0.71191c0.01074,0.09668.01855,0.207,0.02344,0.332,0.00586,0.126.00879,0.22852,0.00879,0.30859h0.02344a1.30675,1.30675,0,0,1,.46777-0.54,1.22311,1.22311,0,0,1,.69238-0.2041,1.15976,1.15976,0,0,1,.2959.03223l-0.03223.69531a1.42425,1.42425,0,0,0-.34375-0.04,1.03058,1.03058,0,0,0-.47168.10059,0.95116,0.95116,0,0,0-.332.26758,1.14387,1.14387,0,0,0-.19629.3877,1.63524,1.63524,0,0,0-.06348.46v1.99219h-0.752V28.47424Q25.15723,28.3219,25.14844,28.08166Z"/><path class="c" d="M30.41016,31.44983H29.6416V26.7301l-1.07227.89551-0.45605-.53516,1.60742-1.30469h0.68945v5.66406Z"/><path class="c" d="M11.99414,45.56994a2.54288,2.54288,0,0,1-.87207.74023,2.71809,2.71809,0,0,1-1.28809.28418,3.16327,3.16327,0,0,1-1.19531-.2207,2.775,2.775,0,0,1-.94434-0.61523,2.85044,2.85044,0,0,1-.62012-0.94434,3.34728,3.34728,0,0,1,.00391-2.416A2.73065,2.73065,0,0,1,7.71,41.46252,2.86872,2.86872,0,0,1,8.666,40.858a3.27683,3.27683,0,0,1,1.2002-.21582,3.15112,3.15112,0,0,1,.584.05566,2.93328,2.93328,0,0,1,.56836.168,2.39321,2.39321,0,0,1,.49609.27637,1.83884,1.83884,0,0,1,.38379.37988l-0.624.47949a1.56334,1.56334,0,0,0-.58789-0.47559,1.83209,1.83209,0,0,0-.82031-0.1875,2.126,2.126,0,0,0-.8916.17969,2.01622,2.01622,0,0,0-.67676.49219,2.23177,2.23177,0,0,0-.43164.72363,2.50339,2.50339,0,0,0-.15234.876,2.65657,2.65657,0,0,0,.14844.89648,2.15431,2.15431,0,0,0,.42383.72363,1.95777,1.95777,0,0,0,.67188.48438,2.15727,2.15727,0,0,0,.88379.17578,1.95433,1.95433,0,0,0,.87207-0.19238,1.6793,1.6793,0,0,0,.64844-0.55957Z"/><path class="c" d="M16.793,44.54651a2.05666,2.05666,0,0,1-.15625.80762,1.90933,1.90933,0,0,1-1.084,1.05176,2.27391,2.27391,0,0,1-1.61621,0,1.89281,1.89281,0,0,1-.64746-0.416,1.95741,1.95741,0,0,1-.42871-0.63574,2.05632,2.05632,0,0,1-.15527-0.80762,2.03151,2.03151,0,0,1,.15527-0.80469,1.89949,1.89949,0,0,1,1.07617-1.04,2.288,2.288,0,0,1,1.61621,0,1.98949,1.98949,0,0,1,.65234.41211,1.90169,1.90169,0,0,1,.43164.62793A2.03181,2.03181,0,0,1,16.793,44.54651Zm-0.78418.00391a1.61186,1.61186,0,0,0-.084-0.51855,1.31024,1.31024,0,0,0-.24512-0.43457,1.18744,1.18744,0,0,0-.39746-0.2998,1.37261,1.37261,0,0,0-1.083,0,1.17777,1.17777,0,0,0-.39746.2998,1.31024,1.31024,0,0,0-.24512.43457,1.64288,1.64288,0,0,0,0,1.03711,1.36912,1.36912,0,0,0,.24512.43848,1.13678,1.13678,0,0,0,.39746.30273,1.36165,1.36165,0,0,0,1.083,0,1.14574,1.14574,0,0,0,.39746-0.30273A1.36912,1.36912,0,0,0,15.9248,45.069,1.61186,1.61186,0,0,0,16.00879,44.55041Z"/><path class="c" d="M18.72168,46.44983h-0.752V40.402h0.752v6.04785Z"/><path class="c" d="M23.99609,44.54651a2.05666,2.05666,0,0,1-.15625.80762,1.90933,1.90933,0,0,1-1.084,1.05176,2.27391,2.27391,0,0,1-1.61621,0,1.89281,1.89281,0,0,1-.64746-0.416,1.95741,1.95741,0,0,1-.42871-0.63574,2.05632,2.05632,0,0,1-.15527-0.80762,2.03151,2.03151,0,0,1,.15527-0.80469,1.89949,1.89949,0,0,1,1.07617-1.04,2.288,2.288,0,0,1,1.61621,0,1.98949,1.98949,0,0,1,.65234.41211,1.90169,1.90169,0,0,1,.43164.62793A2.03181,2.03181,0,0,1,23.99609,44.54651Zm-0.78418.00391a1.61186,1.61186,0,0,0-.084-0.51855,1.31024,1.31024,0,0,0-.24512-0.43457,1.18744,1.18744,0,0,0-.39746-0.2998,1.37261,1.37261,0,0,0-1.083,0,1.17777,1.17777,0,0,0-.39746.2998,1.31024,1.31024,0,0,0-.24512.43457,1.64288,1.64288,0,0,0,0,1.03711,1.36912,1.36912,0,0,0,.24512.43848,1.13678,1.13678,0,0,0,.39746.30273,1.36165,1.36165,0,0,0,1.083,0,1.14574,1.14574,0,0,0,.39746-0.30273,1.36912,1.36912,0,0,0,.24512-0.43848A1.61186,1.61186,0,0,0,23.21191,44.55041Z"/><path class="c" d="M25.14844,43.08166c-0.00488-.15918-0.0127-0.30078-0.02344-0.42383h0.71191c0.01074,0.09668.01855,0.207,0.02344,0.332,0.00586,0.126.00879,0.22852,0.00879,0.30859h0.02344a1.30675,1.30675,0,0,1,.46777-0.54,1.22311,1.22311,0,0,1,.69238-0.2041,1.15976,1.15976,0,0,1,.2959.03223l-0.03223.69531a1.42425,1.42425,0,0,0-.34375-0.04,1.03058,1.03058,0,0,0-.47168.10059,0.95116,0.95116,0,0,0-.332.26758,1.14387,1.14387,0,0,0-.19629.3877,1.63524,1.63524,0,0,0-.06348.46v1.99219h-0.752V43.47424Q25.15723,43.3219,25.14844,43.08166Z"/><path class="c" d="M31.65918,46.44983H27.96387V45.70569l2.25586-2.23926a3.53056,3.53056,0,0,0,.43945-0.55273,1.17153,1.17153,0,0,0,.18457-0.64746,0.99576,0.99576,0,0,0-.08008-0.4043,0.95481,0.95481,0,0,0-.21582-0.30762,0.9415,0.9415,0,0,0-.32031-0.19629,1.13627,1.13627,0,0,0-.39258-0.06836,0.97493,0.97493,0,0,0-.71191.27637,1.25133,1.25133,0,0,0-.35156.708l-0.75977-.12793a1.6924,1.6924,0,0,1,.2041-0.5957,1.73372,1.73372,0,0,1,.95117-0.7959,2.00045,2.00045,0,0,1,.67676-0.1123,2.19692,2.19692,0,0,1,.67578.10352,1.75947,1.75947,0,0,1,.57227.30469,1.44758,1.44758,0,0,1,.39551.50391,1.56834,1.56834,0,0,1,.14844.69531,1.70493,1.70493,0,0,1-.07227.50488,2.01429,2.01429,0,0,1-.19629.43945,2.60271,2.60271,0,0,1-.292.39648c-0.11133.125-.22949,0.249-0.35156,0.37207l-1.83984,1.792h2.77539v0.69531Z"/><path class="c" d="M11.99414,60.56994a2.54288,2.54288,0,0,1-.87207.74023,2.71809,2.71809,0,0,1-1.28809.28418,3.16327,3.16327,0,0,1-1.19531-.2207,2.775,2.775,0,0,1-.94434-0.61523,2.85044,2.85044,0,0,1-.62012-0.94434,3.34728,3.34728,0,0,1,.00391-2.416A2.73065,2.73065,0,0,1,7.71,56.46252,2.86872,2.86872,0,0,1,8.666,55.858a3.27683,3.27683,0,0,1,1.2002-.21582,3.15112,3.15112,0,0,1,.584.05566,2.93328,2.93328,0,0,1,.56836.168,2.39321,2.39321,0,0,1,.49609.27637,1.83884,1.83884,0,0,1,.38379.37988l-0.624.47949a1.56334,1.56334,0,0,0-.58789-0.47559,1.83209,1.83209,0,0,0-.82031-0.1875,2.126,2.126,0,0,0-.8916.17969,2.01622,2.01622,0,0,0-.67676.49219,2.23177,2.23177,0,0,0-.43164.72363,2.50339,2.50339,0,0,0-.15234.876,2.65657,2.65657,0,0,0,.14844.89648,2.15431,2.15431,0,0,0,.42383.72363,1.95777,1.95777,0,0,0,.67188.48438,2.15727,2.15727,0,0,0,.88379.17578,1.95433,1.95433,0,0,0,.87207-0.19238,1.6793,1.6793,0,0,0,.64844-0.55957Z"/><path class="c" d="M16.793,59.54651a2.05666,2.05666,0,0,1-.15625.80762,1.90933,1.90933,0,0,1-1.084,1.05176,2.27391,2.27391,0,0,1-1.61621,0,1.89281,1.89281,0,0,1-.64746-0.416,1.95741,1.95741,0,0,1-.42871-0.63574,2.05632,2.05632,0,0,1-.15527-0.80762,2.03151,2.03151,0,0,1,.15527-0.80469,1.89949,1.89949,0,0,1,1.07617-1.04,2.288,2.288,0,0,1,1.61621,0,1.98949,1.98949,0,0,1,.65234.41211,1.90169,1.90169,0,0,1,.43164.62793A2.03181,2.03181,0,0,1,16.793,59.54651Zm-0.78418.00391a1.61186,1.61186,0,0,0-.084-0.51855,1.31024,1.31024,0,0,0-.24512-0.43457,1.18744,1.18744,0,0,0-.39746-0.2998,1.37261,1.37261,0,0,0-1.083,0,1.17777,1.17777,0,0,0-.39746.2998,1.31024,1.31024,0,0,0-.24512.43457,1.64288,1.64288,0,0,0,0,1.03711,1.36912,1.36912,0,0,0,.24512.43848,1.13678,1.13678,0,0,0,.39746.30273,1.36165,1.36165,0,0,0,1.083,0,1.14574,1.14574,0,0,0,.39746-0.30273A1.36912,1.36912,0,0,0,15.9248,60.069,1.61186,1.61186,0,0,0,16.00879,59.55041Z"/><path class="c" d="M18.72168,61.44983h-0.752V55.402h0.752v6.04785Z"/><path class="c" d="M23.99609,59.54651a2.05666,2.05666,0,0,1-.15625.80762,1.90933,1.90933,0,0,1-1.084,1.05176,2.27391,2.27391,0,0,1-1.61621,0,1.89281,1.89281,0,0,1-.64746-0.416,1.95741,1.95741,0,0,1-.42871-0.63574,2.05632,2.05632,0,0,1-.15527-0.80762,2.03151,2.03151,0,0,1,.15527-0.80469,1.89949,1.89949,0,0,1,1.07617-1.04,2.288,2.288,0,0,1,1.61621,0,1.98949,1.98949,0,0,1,.65234.41211,1.90169,1.90169,0,0,1,.43164.62793A2.03181,2.03181,0,0,1,23.99609,59.54651Zm-0.78418.00391a1.61186,1.61186,0,0,0-.084-0.51855,1.31024,1.31024,0,0,0-.24512-0.43457,1.18744,1.18744,0,0,0-.39746-0.2998,1.37261,1.37261,0,0,0-1.083,0,1.17777,1.17777,0,0,0-.39746.2998,1.31024,1.31024,0,0,0-.24512.43457,1.64288,1.64288,0,0,0,0,1.03711,1.36912,1.36912,0,0,0,.24512.43848,1.13678,1.13678,0,0,0,.39746.30273,1.36165,1.36165,0,0,0,1.083,0,1.14574,1.14574,0,0,0,.39746-0.30273,1.36912,1.36912,0,0,0,.24512-0.43848A1.61186,1.61186,0,0,0,23.21191,59.55041Z"/><path class="c" d="M25.14844,58.08166c-0.00488-.15918-0.0127-0.30078-0.02344-0.42383h0.71191c0.01074,0.09668.01855,0.207,0.02344,0.332,0.00586,0.126.00879,0.22852,0.00879,0.30859h0.02344a1.30675,1.30675,0,0,1,.46777-0.54,1.22311,1.22311,0,0,1,.69238-0.2041,1.15976,1.15976,0,0,1,.2959.03223l-0.03223.69531a1.42425,1.42425,0,0,0-.34375-0.04,1.03058,1.03058,0,0,0-.47168.10059,0.95116,0.95116,0,0,0-.332.26758,1.14387,1.14387,0,0,0-.19629.3877,1.63524,1.63524,0,0,0-.06348.46v1.99219h-0.752V58.47424Q25.15723,58.3219,25.14844,58.08166Z"/><path class="c" d="M28.96387,58.17834h0.248a2.46642,2.46642,0,0,0,.46777-0.04395,1.21329,1.21329,0,0,0,.4043-0.15332,0.834,0.834,0,0,0,.28418-0.293,1.01046,1.01046,0,0,0,.02734-0.84766,0.85138,0.85138,0,0,0-.21973-0.293,1.08545,1.08545,0,0,0-.32031-0.18945,1.07356,1.07356,0,0,0-.37988-0.06836,1.0097,1.0097,0,0,0-.6123.18457,1.12342,1.12342,0,0,0-.37988.51172l-0.7041-.248a1.67223,1.67223,0,0,1,.66895-0.80371,1.93317,1.93317,0,0,1,1.05957-.292,2.21152,2.21152,0,0,1,.668.09961,1.69686,1.69686,0,0,1,.55371.293,1.37658,1.37658,0,0,1,.376.48047,1.5272,1.5272,0,0,1,.13867.665,1.2936,1.2936,0,0,1-.07617.44824,1.36039,1.36039,0,0,1-.208.377,1.29385,1.29385,0,0,1-.31641.28809,1.33415,1.33415,0,0,1-.39941.17676V58.486a1.51821,1.51821,0,0,1,.46.168,1.32247,1.32247,0,0,1,.36328.2998,1.39408,1.39408,0,0,1,.32813.915,1.68128,1.68128,0,0,1-.1582.74707,1.58861,1.58861,0,0,1-.41992.53906,1.83051,1.83051,0,0,1-.60547.32715,2.37944,2.37944,0,0,1-1.8877-.19238,1.73218,1.73218,0,0,1-.74414-0.94336l0.71973-.24023a1.2442,1.2442,0,0,0,.43555.59961,1.22047,1.22047,0,0,0,.75684.23242,1.309,1.309,0,0,0,.41992-0.06836,1.07475,1.07475,0,0,0,.36328-0.2041,0.99111,0.99111,0,0,0,.25684-0.33594,1.084,1.084,0,0,0,.0957-0.47168A0.90711,0.90711,0,0,0,30.5,59.36194a1.03249,1.03249,0,0,0-.332-0.32422,1.45328,1.45328,0,0,0-.46-0.17578,2.5665,2.5665,0,0,0-.50391-0.05176H28.96387V58.17834Z"/><path class="c" d="M7.13867,70.78577H8.86621a3.49437,3.49437,0,0,1,.832.09277,1.78576,1.78576,0,0,1,.63965.2832,1.28588,1.28588,0,0,1,.4082.48828,1.61786,1.61786,0,0,1,.14453.71191,1.58531,1.58531,0,0,1-.15625.72852,1.35152,1.35152,0,0,1-.43262.49609,1.91481,1.91481,0,0,1-.65527.2832,3.47644,3.47644,0,0,1-.82031.09277H7.93066v2.4873h-0.792V70.78577Zm0.792,2.50391H8.77051a2.51413,2.51413,0,0,0,.53125-0.05176,1.3176,1.3176,0,0,0,.4209-0.16016,0.74051,0.74051,0,0,0,.27148-0.2832,0.891,0.891,0,0,0,.0957-0.43262,0.84013,0.84013,0,0,0-.09961-0.42773,0.79614,0.79614,0,0,0-.27246-0.28027,1.17318,1.17318,0,0,0-.41113-0.15234,2.99034,2.99034,0,0,0-.52051-0.04395H7.93066v1.832Z"/><path class="c" d="M11.92773,73.08166c-0.00488-.15918-0.0127-0.30078-0.02344-0.42383h0.71191c0.01074,0.09668.01855,0.207,0.02344,0.332,0.00586,0.126.00879,0.22852,0.00879,0.30859h0.02344a1.30675,1.30675,0,0,1,.46777-0.54,1.22311,1.22311,0,0,1,.69238-0.2041,1.15976,1.15976,0,0,1,.2959.03223l-0.03223.69531a1.42425,1.42425,0,0,0-.34375-0.04,1.03058,1.03058,0,0,0-.47168.10059,0.95116,0.95116,0,0,0-.332.26758,1.14387,1.14387,0,0,0-.19629.3877,1.63524,1.63524,0,0,0-.06348.46v1.99219h-0.752V73.47424Q11.93652,73.3219,11.92773,73.08166Z"/><path class="c" d="M15.89648,71.28967a0.45179,0.45179,0,0,1-.14746.34473,0.5,0.5,0,0,1-.35254.13574,0.48343,0.48343,0,0,1-.34961-0.13965,0.46167,0.46167,0,0,1-.14258-0.34082,0.46915,0.46915,0,0,1,.14258-0.34766,0.48343,0.48343,0,0,1,.34961-0.13965,0.4951,0.4951,0,0,1,.35254.13965A0.46256,0.46256,0,0,1,15.89648,71.28967Zm-0.12012,5.16016h-0.752v-3.792h0.752v3.792Z"/><path class="c" d="M19.85254,73.6178a0.93213,0.93213,0,0,0-.35937-0.30762,1.09788,1.09788,0,0,0-.5127-0.124,1.16265,1.16265,0,0,0-.52344.1123,1.19993,1.19993,0,0,0-.38867.2998,1.31056,1.31056,0,0,0-.24316.43555,1.65194,1.65194,0,0,0,0,1.04,1.3152,1.3152,0,0,0,.24316.43652,1.17746,1.17746,0,0,0,.9209.41211,1.21232,1.21232,0,0,0,.52344-0.1123,1.07164,1.07164,0,0,0,.3877-0.30371l0.50488,0.45605a1.62742,1.62742,0,0,1-.60059.43555,2.04083,2.04083,0,0,1-.81543.15625,2.21718,2.21718,0,0,1-.8125-0.14453,1.91932,1.91932,0,0,1-.64355-0.40332,1.87349,1.87349,0,0,1-.42871-0.62793,2.27122,2.27122,0,0,1-.00391-1.64062,1.8689,1.8689,0,0,1,.42383-0.63184,1.91434,1.91434,0,0,1,.64453-0.4082,2.21244,2.21244,0,0,1,.80371-0.14355,2.0941,2.0941,0,0,1,.7959.16016,1.443,1.443,0,0,1,.62793.46387Z"/><path class="c" d="M24.80273,74.52209V74.65a0.93873,0.93873,0,0,1-.00879.12793H21.77832a1.10547,1.10547,0,0,0,.1084.44922,1.17,1.17,0,0,0,.26758.36523,1.25928,1.25928,0,0,0,.85645.33008,1.27545,1.27545,0,0,0,.66406-0.168,1.35436,1.35436,0,0,0,.43945-0.4082l0.52832,0.42383a1.89357,1.89357,0,0,1-.71582.59375,2.29477,2.29477,0,0,1-1.7168.0459,1.84887,1.84887,0,0,1-.63184-0.40332,1.88632,1.88632,0,0,1-.416-0.62793,2.11788,2.11788,0,0,1-.15137-0.81641,2.1818,2.1818,0,0,1,.14746-0.8125,1.841,1.841,0,0,1,1.03906-1.04785,2.15205,2.15205,0,0,1,1.53516-.01172,1.58078,1.58078,0,0,1,.57715.3916,1.76911,1.76911,0,0,1,.36426.62012A2.45094,2.45094,0,0,1,24.80273,74.52209Zm-0.76855-.30371a1.39238,1.39238,0,0,0-.07617-0.41992,0.9659,0.9659,0,0,0-.19922-0.34082,0.95458,0.95458,0,0,0-.32812-0.22754,1.16824,1.16824,0,0,0-.46-0.084,1.22,1.22,0,0,0-.45215.084,1.16423,1.16423,0,0,0-.36816.22754,1.19706,1.19706,0,0,0-.25586.34082,1.06939,1.06939,0,0,0-.11621.41992h2.25586Z"/></svg>