<svg xmlns="http://www.w3.org/2000/svg" viewBox="0 0 90.9 70.16728"><defs><style>.a{fill:#d2e5b3;}.a,.b{stroke:#3d4752;stroke-miterlimit:10;stroke-width:0.9px;}.b{fill:none;}.c{fill:#3d4752;}</style></defs><title>student</title><path class="a" d="M90.45,2.7V18.45h-90V2.7A2.22821,2.22821,0,0,1,2.7.45H88.2A2.25978,2.25978,0,0,1,90.45,2.7Z"/><path class="b" d="M90.45,18.45V67.46728a2.29312,2.29312,0,0,1-2.25,2.25H2.7a2.25978,2.25978,0,0,1-2.25-2.25V18.45h90Z"/><path class="c" d="M10.02637,8.25807a1.23063,1.23063,0,0,0-.46-0.356,1.2933,1.2933,0,0,0-.54785-0.13232,1.61872,1.61872,0,0,0-.27637.02441,0.69746,0.69746,0,0,0-.252.0918,0.62289,0.62289,0,0,0-.18848.17578,0.46872,0.46872,0,0,0-.0752.27637,0.44435,0.44435,0,0,0,.05957.23975,0.53423,0.53423,0,0,0,.17578.168,1.553,1.553,0,0,0,.27637.13232c0.10645,0.03955.22656,0.08105,0.36035,0.12354,0.19141,0.06445.3916,0.13477,0.59961,0.2124a2.24531,2.24531,0,0,1,.56836.30762,1.64139,1.64139,0,0,1,.42383.47607,1.37769,1.37769,0,0,1,.168.708,1.848,1.848,0,0,1-.18066.84424,1.67877,1.67877,0,0,1-.4834.58789,2.07508,2.07508,0,0,1-.69629.34424,2.93759,2.93759,0,0,1-.80762.11182,3.33734,3.33734,0,0,1-1.17578-.21191,2.49793,2.49793,0,0,1-.94434-0.604L7.46582,10.866a1.64884,1.64884,0,0,0,.54883.42822,1.483,1.483,0,0,0,.67578.17188,1.35334,1.35334,0,0,0,.2959-0.03223,0.7295,0.7295,0,0,0,.252-0.104A0.51865,0.51865,0,0,0,9.41016,11.138a0.6006,0.6006,0,0,0,.06445-0.28809,0.46037,0.46037,0,0,0-.08008-0.272,0.79171,0.79171,0,0,0-.22852-0.2041,1.86559,1.86559,0,0,0-.36816-0.168q-0.21973-.07544-0.5-0.16406a4.75174,4.75174,0,0,1-.53125-0.208,1.78585,1.78585,0,0,1-.46484-0.30762,1.42,1.42,0,0,1-.32715-0.45605,1.54123,1.54123,0,0,1-.124-0.65234A1.602,1.602,0,0,1,7.042,7.61012,1.668,1.668,0,0,1,7.5459,7.05787,2.17511,2.17511,0,0,1,8.25,6.742a3.207,3.207,0,0,1,.792-0.1001,2.94876,2.94876,0,0,1,.98047.17627,2.52433,2.52433,0,0,1,.876.52Z"/><path class="c" d="M13.22363,9.44215V10.968a0.68444,0.68444,0,0,0,.1084.42139,0.46239,0.46239,0,0,0,.3877.14063,1.37459,1.37459,0,0,0,.2041-0.01611,0.70917,0.70917,0,0,0,.18066-0.04785l0.01563,0.96a2.18694,2.18694,0,0,1-.34375.084,2.443,2.443,0,0,1-.416.03613,1.95193,1.95193,0,0,1-.67187-0.10059A1.03913,1.03913,0,0,1,12.252,12.157a1.14245,1.14245,0,0,1-.23633-0.44922,2.19076,2.19076,0,0,1-.07129-0.58154V9.44215H11.30371V8.46608h0.63281V7.41774h1.28711V8.46608h0.93652V9.44215H13.22363Z"/><path class="c" d="M17.64258,12.45V11.89821H17.627a1.13963,1.13963,0,0,1-.18848.25586,1.18416,1.18416,0,0,1-.27148.208,1.701,1.701,0,0,1-.34375.144,1.39432,1.39432,0,0,1-.39648.05566,1.44357,1.44357,0,0,1-.67578-0.144,1.29839,1.29839,0,0,1-.44824-0.37158,1.48191,1.48191,0,0,1-.248-0.52,2.35408,2.35408,0,0,1-.07617-0.59619V8.46608h1.32031v2.15967a1.98265,1.98265,0,0,0,.02441.32031,0.782,0.782,0,0,0,.0918.272,0.50784,0.50784,0,0,0,.17969.188,0.5673,0.5673,0,0,0,.2959.06787A0.60043,0.60043,0,0,0,17.415,11.218a1.01594,1.01594,0,0,0,.17969-0.6001V8.46608h1.3125V12.45H17.64258Z"/><path class="c" d="M23.10742,12.45v-0.52h-0.0166a1.2456,1.2456,0,0,1-.54785.46826,1.79127,1.79127,0,0,1-.75586.16357,1.76438,1.76438,0,0,1-.7998-0.17578,1.8341,1.8341,0,0,1-.59668-0.46826,2.0553,2.0553,0,0,1-.37109-0.67578,2.49507,2.49507,0,0,1-.12891-0.7998,2.4144,2.4144,0,0,1,.13281-0.79639,2.074,2.074,0,0,1,.376-0.668,1.75252,1.75252,0,0,1,1.37207-.624,1.51746,1.51746,0,0,1,.74316.168,1.658,1.658,0,0,1,.47266.36816h0.01563V6.40211h1.3125V12.45h-1.208Zm-0.04785-2a1.08636,1.08636,0,0,0-.06836-0.376,1.07188,1.07188,0,0,0-.19238-0.32813,0.951,0.951,0,0,0-.2998-0.23193A0.88428,0.88428,0,0,0,22.09863,9.426a0.89923,0.89923,0,0,0-.40723.08789,0.92657,0.92657,0,0,0-.2959.228,0.93727,0.93727,0,0,0-.18066.32422,1.20134,1.20134,0,0,0-.05957.376,1.24162,1.24162,0,0,0,.05957.37988,0.97765,0.97765,0,0,0,.18066.332,0.88385,0.88385,0,0,0,.70313.31982A0.88428,0.88428,0,0,0,22.499,11.386a0.951,0.951,0,0,0,.2998-0.23193,1.07188,1.07188,0,0,0,.19238-0.32812A1.08636,1.08636,0,0,0,23.05957,10.45Z"/><path class="c" d="M29.44727,10.50612v0.15967a1.50571,1.50571,0,0,1-.00781.15234h-2.8877a0.69874,0.69874,0,0,0,.09961.30371,0.86247,0.86247,0,0,0,.21582.23633,1.06262,1.06262,0,0,0,.63574.21191,1.10026,1.10026,0,0,0,.52832-0.11621,1.04149,1.04149,0,0,0,.35254-0.2998l0.91113,0.57568a1.84584,1.84584,0,0,1-.73926.62842,2.45323,2.45323,0,0,1-1.06836.21973,2.54733,2.54733,0,0,1-.84766-0.14014,2.06,2.06,0,0,1-.7002-0.40771,1.88286,1.88286,0,0,1-.47168-0.66016,2.20043,2.20043,0,0,1-.17285-0.896,2.23517,2.23517,0,0,1,.16895-0.88379,1.996,1.996,0,0,1,.45508-0.67236A2.04517,2.04517,0,0,1,26.59961,8.49a2.32781,2.32781,0,0,1,.84766-0.15186,2.15416,2.15416,0,0,1,.80859.14795,1.76739,1.76739,0,0,1,.63184.42773,2.00016,2.00016,0,0,1,.41211.68018A2.61851,2.61851,0,0,1,29.44727,10.50612Zm-1.208-.50439A0.786,0.786,0,0,0,28.043,9.46608,0.73774,0.73774,0,0,0,27.45508,9.242a0.99131,0.99131,0,0,0-.35156.06006,0.91764,0.91764,0,0,0-.28027.16406,0.81108,0.81108,0,0,0-.19141.24365,0.69773,0.69773,0,0,0-.08008.292h1.6875Z"/><path class="c" d="M33.03125,12.45V10.27418a1.7769,1.7769,0,0,0-.02832-0.32031,0.87653,0.87653,0,0,0-.0918-0.26807,0.48179,0.48179,0,0,0-.17969-0.18408,0.57417,0.57417,0,0,0-.292-0.06787,0.67434,0.67434,0,0,0-.30859.06787,0.624,0.624,0,0,0-.21973.18848,0.84964,0.84964,0,0,0-.13184.27588,1.18826,1.18826,0,0,0-.04395.32373V12.45H30.415V8.46608H31.6875V9.01784h0.01563a1.30144,1.30144,0,0,1,.18848-0.252A1.1333,1.1333,0,0,1,32.16309,8.554a1.73841,1.73841,0,0,1,.33984-0.144,1.3528,1.3528,0,0,1,.39258-0.05615,1.47481,1.47481,0,0,1,.67969.144,1.31039,1.31039,0,0,1,.45215.37207,1.47233,1.47233,0,0,1,.248.52393,2.37224,2.37224,0,0,1,.07617.59229V12.45H33.03125Z"/><path class="c" d="M36.95215,9.44215V10.968a0.68444,0.68444,0,0,0,.1084.42139,0.46239,0.46239,0,0,0,.3877.14063,1.37459,1.37459,0,0,0,.2041-0.01611,0.70917,0.70917,0,0,0,.18066-0.04785l0.01563,0.96a2.18693,2.18693,0,0,1-.34375.084,2.443,2.443,0,0,1-.416.03613,1.95193,1.95193,0,0,1-.67187-0.10059,1.03913,1.03913,0,0,1-.43652-0.28857,1.14245,1.14245,0,0,1-.23633-0.44922,2.19076,2.19076,0,0,1-.07129-0.58154V9.44215H35.03223V8.46608H35.665V7.41774h1.28711V8.46608h0.93652V9.44215H36.95215Z"/><path class="c" d="M9.9541,26.83375A1.26532,1.26532,0,0,0,9.498,26.45387a1.39551,1.39551,0,0,0-.64746-0.14795,1.51525,1.51525,0,0,0-.38867.05225,1.05471,1.05471,0,0,0-.35547.168,0.91549,0.91549,0,0,0-.25977.2876,0.80055,0.80055,0,0,0-.10059.41211,0.75146,0.75146,0,0,0,.0918.38818,0.846,0.846,0,0,0,.248.26416,1.58028,1.58028,0,0,0,.36816.18359Q8.6665,28.138,8.90625,28.218q0.28857,0.08789.584,0.19971a2.11664,2.11664,0,0,1,.53613.29639,1.45522,1.45522,0,0,1,.3916.46,1.43723,1.43723,0,0,1,.15234.69971,1.67124,1.67124,0,0,1-.16406.76416,1.56743,1.56743,0,0,1-.43652.53613A1.85477,1.85477,0,0,1,9.3418,31.49a2.59641,2.59641,0,0,1-.73145.104,2.67107,2.67107,0,0,1-1.03613-.208,2.06048,2.06048,0,0,1-.82812-0.61621l0.61621-.52a1.52047,1.52047,0,0,0,1.66406.6084,1.13573,1.13573,0,0,0,.36426-0.17627,0.98058,0.98058,0,0,0,.26758-0.2998,0.8577,0.8577,0,0,0,.10352-0.436,0.7885,0.7885,0,0,0-.10742-0.42822,0.96788,0.96788,0,0,0-.292-0.292,1.95316,1.95316,0,0,0-.42773-0.2041q-0.24463-.0835-0.5166-0.17187a4.56432,4.56432,0,0,1-.53613-0.1958,1.86538,1.86538,0,0,1-.47168-0.2959,1.36236,1.36236,0,0,1-.33594-0.44434,1.502,1.502,0,0,1-.12793-0.65576,1.45977,1.45977,0,0,1,.17188-0.728,1.55583,1.55583,0,0,1,.44824-0.50391,1.85237,1.85237,0,0,1,.624-0.292,2.71467,2.71467,0,0,1,.7002-0.09229,2.43986,2.43986,0,0,1,.92773.17627,1.85236,1.85236,0,0,1,.69629.47168Z"/><path class="c" d="M13.59961,28.27418H12.5918v1.96973a0.75043,0.75043,0,0,0,.12793.49072,0.51374,0.51374,0,0,0,.4082.14746,1.24472,1.24472,0,0,0,.22363-0.022,0.90228,0.90228,0,0,0,.21582-0.06592l0.02441,0.61572a1.83959,1.83959,0,0,1-.2998.07617,2.02909,2.02909,0,0,1-.33984.02783,1.08468,1.08468,0,0,1-.82031-0.2959,1.23709,1.23709,0,0,1-.28418-0.88818V28.27418H11.12012V27.658h0.72754V26.57008H12.5918V27.658h1.00781v0.61621Z"/><path class="c" d="M17.21777,31.45c-0.01074-.09619-0.01953-0.2041-0.02441-0.32422-0.00488-.11963-0.00781-0.21973-0.00781-0.2998H17.16992a1.24376,1.24376,0,0,1-.48437.51611,1.40113,1.40113,0,0,1-.75586.21191,1.54182,1.54182,0,0,1-.63574-0.12012,1.16178,1.16178,0,0,1-.44043-0.332,1.401,1.401,0,0,1-.25586-0.4917,2.05859,2.05859,0,0,1-.084-0.6001V27.658h0.752v2.09619a2.60183,2.60183,0,0,0,.03613.44385,1.04533,1.04533,0,0,0,.13184.37207,0.717,0.717,0,0,0,.26367.25586,0.86524,0.86524,0,0,0,.43262.09619,0.90513,0.90513,0,0,0,.73535-0.34033,1.3843,1.3843,0,0,0,.28027-0.90771V27.658h0.752V30.634c0,0.10107.00293,0.23193,0.00781,0.39209,0.00586,0.15967.01367,0.30127,0.02441,0.42383H17.21777Z"/><path class="c" d="M22.35254,30.84987a1.39241,1.39241,0,0,1-.58789.52393,1.76753,1.76753,0,0,1-.78027.18018,1.94613,1.94613,0,0,1-.792-0.15576A1.77474,1.77474,0,0,1,19.59277,30.97a1.91967,1.91967,0,0,1-.38379-0.64014,2.23771,2.23771,0,0,1-.13672-0.78369,2.20889,2.20889,0,0,1,.13672-0.78027,1.89022,1.89022,0,0,1,.3877-0.63574,1.76882,1.76882,0,0,1,.60352-0.42432,1.94715,1.94715,0,0,1,.77637-0.15186,1.60332,1.60332,0,0,1,.80762.1958,1.68147,1.68147,0,0,1,.54492.47607h0.01563V25.40211h0.752V31.45H22.36914v-0.6001h-0.0166Zm-2.49609-1.2998a1.63511,1.63511,0,0,0,.08008.51025,1.31451,1.31451,0,0,0,.24023.439,1.259,1.259,0,0,0,1.46.311A1.2686,1.2686,0,0,0,22.041,30.511a1.36161,1.36161,0,0,0,.25977-0.43457,1.51054,1.51054,0,0,0,0-1.03711,1.41324,1.41324,0,0,0-.25977-0.43848,1.24422,1.24422,0,0,0-.4043-0.30322,1.21336,1.21336,0,0,0-.52441-0.11182,1.24643,1.24643,0,0,0-.54395.11182,1.165,1.165,0,0,0-.3916.30322,1.31221,1.31221,0,0,0-.24023.43848A1.63815,1.63815,0,0,0,19.85645,29.55006Z"/><path class="c" d="M28.0752,29.52174v0.12842a0.94411,0.94411,0,0,1-.00879.12793H25.05078a1.10321,1.10321,0,0,0,.1084.44873,1.17209,1.17209,0,0,0,.26758.36572,1.32491,1.32491,0,0,0,1.52051.16162,1.35436,1.35436,0,0,0,.43945-0.4082L27.915,30.76979a1.88909,1.88909,0,0,1-.71582.59375,2.29815,2.29815,0,0,1-1.7168.04639,1.85,1.85,0,0,1-.63184-0.40381,1.88139,1.88139,0,0,1-.416-0.62793,2.11614,2.11614,0,0,1-.15137-0.81641,2.17923,2.17923,0,0,1,.14746-0.812,1.841,1.841,0,0,1,1.03906-1.04785,2.14514,2.14514,0,0,1,1.53516-.01172,1.5689,1.5689,0,0,1,.57715.3916,1.76473,1.76473,0,0,1,.36426.62012A2.446,2.446,0,0,1,28.0752,29.52174ZM27.30664,29.218a1.39517,1.39517,0,0,0-.07617-0.41992,0.92213,0.92213,0,0,0-.52734-0.56836,1.16824,1.16824,0,0,0-.46-0.084,1.22,1.22,0,0,0-.45215.084,1.17421,1.17421,0,0,0-.36816.228,1.18807,1.18807,0,0,0-.25586.34033,1.07169,1.07169,0,0,0-.11621.41992h2.25586Z"/><path class="c" d="M29.916,27.658q0.01611,0.14429.02344,0.32422,0.00879,0.17944.00879,0.2998h0.02344a1.10649,1.10649,0,0,1,.19629-0.28418,1.42046,1.42046,0,0,1,.28418-0.23193,1.39513,1.39513,0,0,1,.35156-0.15576A1.41418,1.41418,0,0,1,31.2041,27.554a1.47748,1.47748,0,0,1,.63184.124,1.28977,1.28977,0,0,1,.44043.332,1.35451,1.35451,0,0,1,.25977.48779,2.09208,2.09208,0,0,1,.084.6001V31.45h-0.752V29.346A2.63509,2.63509,0,0,0,31.832,28.906a1.08153,1.08153,0,0,0-.13184-0.36816,0.71984,0.71984,0,0,0-.26465-0.25586,0.86131,0.86131,0,0,0-.43164-0.09619,0.91147,0.91147,0,0,0-.73242.34033,1.36936,1.36936,0,0,0-.2832.90771V31.45h-0.752V28.47389q0-.15161-0.00879-0.39209c-0.00488-.15967-0.0127-0.30127-0.02344-0.42383H29.916Z"/><path class="c" d="M35.90625,28.27418H34.89844v1.96973a0.75043,0.75043,0,0,0,.12793.49072,0.51374,0.51374,0,0,0,.4082.14746,1.24472,1.24472,0,0,0,.22363-0.022A0.90228,0.90228,0,0,0,35.874,30.7942l0.02441,0.61572a1.83959,1.83959,0,0,1-.2998.07617,2.02909,2.02909,0,0,1-.33984.02783,1.08468,1.08468,0,0,1-.82031-0.2959,1.23709,1.23709,0,0,1-.28418-0.88818V28.27418H33.42676V27.658H34.1543V26.57008h0.74414V27.658h1.00781v0.61621Z"/><path class="c" d="M39.51465,31.45h-0.792V25.7859h0.792V31.45Z"/><path class="c" d="M41.05762,25.7859H43.001a3.82922,3.82922,0,0,1,1.08789.16016,2.91493,2.91493,0,0,1,.98438.50391,2.59173,2.59173,0,0,1,.71191.87988,2.81529,2.81529,0,0,1,.27246,1.28809,2.73346,2.73346,0,0,1-.27246,1.26025,2.63944,2.63944,0,0,1-.71191.87988,3.06312,3.06312,0,0,1-.98437.52A3.58829,3.58829,0,0,1,43.001,31.45H41.05762V25.7859Zm0.792,4.96826h0.99121a3.01592,3.01592,0,0,0,.94824-0.144,2.19625,2.19625,0,0,0,.752-0.416,1.85431,1.85431,0,0,0,.49219-0.67236,2.22416,2.22416,0,0,0,.17578-0.90381,2.287,2.287,0,0,0-.17578-0.92773,1.82363,1.82363,0,0,0-.49219-0.66846,2.18073,2.18073,0,0,0-.752-0.40771,3.08859,3.08859,0,0,0-.94824-0.14014H41.84961v4.28027Z"/><path class="c" d="M7.13867,40.7859H9.08984a2.893,2.893,0,0,1,.64063.07227,1.68916,1.68916,0,0,1,.57129.23975,1.28932,1.28932,0,0,1,.4082.43994,1.34674,1.34674,0,0,1,.15625.68018,1.17986,1.17986,0,0,1-.27246.792A1.38442,1.38442,0,0,1,9.874,43.45v0.01611a1.64417,1.64417,0,0,1,.50391.13965,1.31785,1.31785,0,0,1,.40039.28418,1.23485,1.23485,0,0,1,.25977.416,1.48474,1.48474,0,0,1,.0918.53613,1.44515,1.44515,0,0,1-.168.71191,1.43049,1.43049,0,0,1-.45605.5,2.12114,2.12114,0,0,1-.67578.2959A3.29518,3.29518,0,0,1,9.002,46.45H7.13867V40.7859Zm0.792,2.39209H8.96191a1.713,1.713,0,0,0,.42871-0.05225,1.05605,1.05605,0,0,0,.35547-0.15967,0.78381,0.78381,0,0,0,.24023-0.272,0.828,0.828,0,0,0,.08789-0.396,0.69578,0.69578,0,0,0-.33594-0.65234A1.79306,1.79306,0,0,0,8.834,41.45H7.93066v1.728Zm0,2.6001H8.92188a2.89974,2.89974,0,0,0,.5-0.04395,1.45973,1.45973,0,0,0,.45605-0.15625,0.907,0.907,0,0,0,.32813-0.2998,0.84586,0.84586,0,0,0,.124-0.47607,0.80343,0.80343,0,0,0-.34375-0.728,1.82264,1.82264,0,0,0-.99219-0.22412H7.93066v1.92822Z"/><path class="c" d="M13.23438,41.28981a0.45074,0.45074,0,0,1-.14746.34424,0.5,0.5,0,0,1-.35254.13574,0.48145,0.48145,0,0,1-.34961-0.13965,0.4606,0.4606,0,0,1-.14258-0.34033,0.46838,0.46838,0,0,1,.14258-0.34766,0.48188,0.48188,0,0,1,.34961-0.14014,0.49349,0.49349,0,0,1,.35254.14014A0.4618,0.4618,0,0,1,13.23438,41.28981ZM13.11426,46.45h-0.752V42.658h0.752V46.45Z"/><path class="c" d="M14.52734,43.0818c-0.00488-.15967-0.0127-0.30127-0.02344-0.42383h0.71191c0.01074,0.09619.01855,0.20654,0.02344,0.332q0.00879,0.18823.00879,0.30811h0.02344a1.30979,1.30979,0,0,1,.46777-0.54,1.22689,1.22689,0,0,1,.69238-0.2041,1.15976,1.15976,0,0,1,.2959.03223l-0.03223.6958a1.40029,1.40029,0,0,0-.34375-0.04,1.0369,1.0369,0,0,0-.47168.1001,0.95791,0.95791,0,0,0-.332.26807,1.1394,1.1394,0,0,0-.19629.3877,1.63031,1.63031,0,0,0-.06348.46V46.45h-0.752V43.47389Q14.53613,43.32228,14.52734,43.0818Z"/><path class="c" d="M19.7666,43.27418H18.75879v1.96973a0.75043,0.75043,0,0,0,.12793.49072,0.51374,0.51374,0,0,0,.4082.14746,1.24472,1.24472,0,0,0,.22363-0.022,0.90228,0.90228,0,0,0,.21582-0.06592l0.02441,0.61572a1.83959,1.83959,0,0,1-.2998.07617,2.02909,2.02909,0,0,1-.33984.02783,1.08468,1.08468,0,0,1-.82031-0.2959,1.23709,1.23709,0,0,1-.28418-0.88818V43.27418H17.28711V42.658h0.72754V41.57008h0.74414V42.658H19.7666v0.61621Z"/><path class="c" d="M21.49023,43.23414a1.172,1.172,0,0,1,.46484-0.48,1.38287,1.38287,0,0,1,.73535-0.2002,1.47748,1.47748,0,0,1,.63184.124,1.27133,1.27133,0,0,1,.44043.332,1.33966,1.33966,0,0,1,.25977.48779,2.09208,2.09208,0,0,1,.084.6001V46.45h-0.752V44.34889a2.55263,2.55263,0,0,0-.03613-0.44141,1.04453,1.04453,0,0,0-.13184-0.36865,0.72363,0.72363,0,0,0-.25977-0.25684A0.84071,0.84071,0,0,0,22.499,43.1858a0.92214,0.92214,0,0,0-.73633.34082,1.36292,1.36292,0,0,0-.28809.91064V46.45h-0.752V40.40211h0.752v2.832h0.01563Z"/><path class="c" d="M30.40234,45.84987a1.39241,1.39241,0,0,1-.58789.52393,1.76753,1.76753,0,0,1-.78027.18018,1.94613,1.94613,0,0,1-.792-0.15576A1.77474,1.77474,0,0,1,27.64258,45.97a1.91967,1.91967,0,0,1-.38379-0.64014,2.23771,2.23771,0,0,1-.13672-0.78369,2.20889,2.20889,0,0,1,.13672-0.78027,1.89022,1.89022,0,0,1,.3877-0.63574A1.76882,1.76882,0,0,1,28.25,42.70582a1.94715,1.94715,0,0,1,.77637-0.15186,1.60332,1.60332,0,0,1,.80762.1958,1.68147,1.68147,0,0,1,.54492.47607h0.01563V40.40211h0.752V46.45H30.41895v-0.6001h-0.0166Zm-2.49609-1.2998a1.63511,1.63511,0,0,0,.08008.51025,1.31451,1.31451,0,0,0,.24023.439,1.259,1.259,0,0,0,1.46.311,1.2686,1.2686,0,0,0,.4043-0.29932,1.36161,1.36161,0,0,0,.25977-0.43457,1.51054,1.51054,0,0,0,0-1.03711,1.41324,1.41324,0,0,0-.25977-0.43848,1.24422,1.24422,0,0,0-.4043-0.30322,1.21336,1.21336,0,0,0-.52441-0.11182,1.24643,1.24643,0,0,0-.54395.11182,1.165,1.165,0,0,0-.3916.30322,1.31221,1.31221,0,0,0-.24023.43848A1.63815,1.63815,0,0,0,27.90625,44.55006Z"/><path class="c" d="M34.94336,43.99391A0.75311,0.75311,0,0,0,34.6875,43.366a1.05866,1.05866,0,0,0-.67969-0.2041,1.49633,1.49633,0,0,0-.60449.124,1.53219,1.53219,0,0,0-.47559.31592l-0.40039-.48a2.026,2.026,0,0,1,.68457-0.416A2.44581,2.44581,0,0,1,34.0791,42.554a1.94863,1.94863,0,0,1,.708.11621,1.33552,1.33552,0,0,1,.49219.31592,1.28853,1.28853,0,0,1,.28809.47168,1.732,1.732,0,0,1,.0957.584V45.698c0,0.12793.00488,0.2627,0.0127,0.40381a2.04164,2.04164,0,0,0,.04395.34814H35.03906a2.40452,2.40452,0,0,1-.06348-0.54395H34.95117a1.464,1.464,0,0,1-.52344.47217,1.57487,1.57487,0,0,1-.748.168,1.95172,1.95172,0,0,1-.46777-0.06006,1.35115,1.35115,0,0,1-.44434-0.19629,1.09636,1.09636,0,0,1-.332-0.35986,1.071,1.071,0,0,1-.13184-0.55176,0.97218,0.97218,0,0,1,.23145-0.68408,1.47777,1.47777,0,0,1,.6084-0.38428,3.44973,3.44973,0,0,1,.84766-0.17187q0.47314-.04028.95215-0.04v-0.104Zm-0.18359.64795q-0.27979,0-.58008.02393a2.68673,2.68673,0,0,0-.54395.09619,1.02725,1.02725,0,0,0-.4043.21582,0.49282,0.49282,0,0,0-.16016.38428,0.52573,0.52573,0,0,0,.06836.27979,0.56273,0.56273,0,0,0,.17969.18408,0.72848,0.72848,0,0,0,.248.1001,1.39912,1.39912,0,0,0,.28027.02783,1.03406,1.03406,0,0,0,.81152-0.31592,1.14538,1.14538,0,0,0,.28418-0.7959v-0.2002H34.75977Z"/><path class="c" d="M38.94141,43.27418H37.93359v1.96973a0.75043,0.75043,0,0,0,.12793.49072,0.51374,0.51374,0,0,0,.4082.14746,1.24472,1.24472,0,0,0,.22363-0.022,0.90228,0.90228,0,0,0,.21582-0.06592l0.02441,0.61572a1.83959,1.83959,0,0,1-.2998.07617,2.02909,2.02909,0,0,1-.33984.02783,1.08468,1.08468,0,0,1-.82031-0.2959,1.23709,1.23709,0,0,1-.28418-0.88818V43.27418H36.46191V42.658h0.72754V41.57008h0.74414V42.658h1.00781v0.61621Z"/><path class="c" d="M43.38184,44.52174v0.12842a0.94411,0.94411,0,0,1-.00879.12793H40.35742a1.10321,1.10321,0,0,0,.1084.44873,1.17209,1.17209,0,0,0,.26758.36572,1.32491,1.32491,0,0,0,1.52051.16162,1.35436,1.35436,0,0,0,.43945-0.4082l0.52832,0.42383a1.88909,1.88909,0,0,1-.71582.59375,2.29815,2.29815,0,0,1-1.7168.04639,1.85,1.85,0,0,1-.63184-0.40381,1.88139,1.88139,0,0,1-.416-0.62793,2.11614,2.11614,0,0,1-.15137-0.81641,2.17923,2.17923,0,0,1,.14746-0.812,1.841,1.841,0,0,1,1.03906-1.04785,2.14514,2.14514,0,0,1,1.53516-.01172,1.5689,1.5689,0,0,1,.57715.3916,1.76473,1.76473,0,0,1,.36426.62012A2.446,2.446,0,0,1,43.38184,44.52174ZM42.61328,44.218a1.39517,1.39517,0,0,0-.07617-0.41992,0.92213,0.92213,0,0,0-.52734-0.56836,1.16824,1.16824,0,0,0-.46-0.084,1.22,1.22,0,0,0-.45215.084,1.17421,1.17421,0,0,0-.36816.228,1.18807,1.18807,0,0,0-.25586.34033,1.07169,1.07169,0,0,0-.11621.41992h2.25586Z"/><path class="c" d="M11.41016,56.95387a1.83972,1.83972,0,0,0-.65234-0.44775,2.235,2.235,0,0,0-.88379-0.168,2.16166,2.16166,0,0,0-.89551.17969,2.01253,2.01253,0,0,0-.68066.49219,2.22892,2.22892,0,0,0-.43164.72412,2.50339,2.50339,0,0,0-.15234.876,2.56126,2.56126,0,0,0,.15234.8877,2.174,2.174,0,0,0,.43164.72412,1.9615,1.9615,0,0,0,.68848.48389,2.27307,2.27307,0,0,0,.91211.17627,3.48365,3.48365,0,0,0,.73535-0.07227,2.12458,2.12458,0,0,0,.584-0.208V59.02614H9.96191V58.35377h2.04v2.74414a4.11015,4.11015,0,0,1-.97559.36816A4.91129,4.91129,0,0,1,9.874,61.594a3.279,3.279,0,0,1-1.21973-.22021,2.7555,2.7555,0,0,1-1.58008-1.56006,3.1499,3.1499,0,0,1-.22363-1.20361,3.11761,3.11761,0,0,1,.22754-1.21191,2.73268,2.73268,0,0,1,.63184-0.936,2.86755,2.86755,0,0,1,.95605-0.604,3.26688,3.26688,0,0,1,1.2002-.21631,3.42812,3.42812,0,0,1,1.21191.2002,2.5672,2.5672,0,0,1,.88379.53613Z"/><path class="c" d="M13.44238,58.0818c-0.00488-.15967-0.0127-0.30127-0.02344-0.42383h0.71191c0.01074,0.09619.01855,0.20654,0.02344,0.332q0.00879,0.18823.00879,0.30811h0.02344a1.30979,1.30979,0,0,1,.46777-0.54,1.22689,1.22689,0,0,1,.69238-0.2041,1.15976,1.15976,0,0,1,.2959.03223l-0.03223.6958a1.40029,1.40029,0,0,0-.34375-0.04,1.0369,1.0369,0,0,0-.47168.1001,0.95791,0.95791,0,0,0-.332.26807,1.1394,1.1394,0,0,0-.19629.3877,1.63031,1.63031,0,0,0-.06348.46V61.45h-0.752V58.47389Q13.45117,58.32228,13.44238,58.0818Z"/><path class="c" d="M18.90918,58.99391a0.75311,0.75311,0,0,0-.25586-0.62793,1.05866,1.05866,0,0,0-.67969-0.2041,1.49633,1.49633,0,0,0-.60449.124,1.53219,1.53219,0,0,0-.47559.31592l-0.40039-.48a2.026,2.026,0,0,1,.68457-0.416,2.44581,2.44581,0,0,1,.86719-0.15186,1.94863,1.94863,0,0,1,.708.11621,1.33552,1.33552,0,0,1,.49219.31592,1.28853,1.28853,0,0,1,.28809.47168,1.732,1.732,0,0,1,.0957.584V60.698c0,0.12793.00488,0.2627,0.0127,0.40381a2.04164,2.04164,0,0,0,.04395.34814H19.00488a2.40452,2.40452,0,0,1-.06348-0.54395H18.917a1.464,1.464,0,0,1-.52344.47217,1.57487,1.57487,0,0,1-.748.168,1.95172,1.95172,0,0,1-.46777-0.06006,1.35115,1.35115,0,0,1-.44434-0.19629,1.09636,1.09636,0,0,1-.332-0.35986,1.071,1.071,0,0,1-.13184-0.55176A0.97218,0.97218,0,0,1,16.501,59.6941a1.47777,1.47777,0,0,1,.6084-0.38428A3.44973,3.44973,0,0,1,17.957,59.138q0.47314-.04028.95215-0.04v-0.104Zm-0.18359.64795q-0.27979,0-.58008.02393a2.68673,2.68673,0,0,0-.54395.09619,1.02725,1.02725,0,0,0-.4043.21582,0.49282,0.49282,0,0,0-.16016.38428,0.52573,0.52573,0,0,0,.06836.27979,0.56273,0.56273,0,0,0,.17969.18408,0.72848,0.72848,0,0,0,.248.1001,1.39912,1.39912,0,0,0,.28027.02783A1.03406,1.03406,0,0,0,18.625,60.638a1.14538,1.14538,0,0,0,.28418-0.7959v-0.2002H18.72559Z"/><path class="c" d="M24.0332,60.84987a1.39241,1.39241,0,0,1-.58789.52393,1.76753,1.76753,0,0,1-.78027.18018,1.94613,1.94613,0,0,1-.792-0.15576A1.77474,1.77474,0,0,1,21.27344,60.97a1.91967,1.91967,0,0,1-.38379-0.64014,2.23771,2.23771,0,0,1-.13672-0.78369,2.20889,2.20889,0,0,1,.13672-0.78027,1.89022,1.89022,0,0,1,.3877-0.63574,1.76882,1.76882,0,0,1,.60352-0.42432,1.94715,1.94715,0,0,1,.77637-0.15186,1.60332,1.60332,0,0,1,.80762.1958,1.68147,1.68147,0,0,1,.54492.47607h0.01563V55.40211h0.752V61.45H24.0498v-0.6001H24.0332Zm-2.49609-1.2998a1.63511,1.63511,0,0,0,.08008.51025,1.31451,1.31451,0,0,0,.24023.439,1.259,1.259,0,0,0,1.46.311,1.2686,1.2686,0,0,0,.4043-0.29932,1.36161,1.36161,0,0,0,.25977-0.43457,1.51054,1.51054,0,0,0,0-1.03711,1.41324,1.41324,0,0,0-.25977-0.43848,1.24422,1.24422,0,0,0-.4043-0.30322A1.21336,1.21336,0,0,0,22.793,58.1858a1.24643,1.24643,0,0,0-.54395.11182,1.165,1.165,0,0,0-.3916.30322,1.31221,1.31221,0,0,0-.24023.43848A1.63815,1.63815,0,0,0,21.53711,59.55006Z"/><path class="c" d="M29.75781,59.52174v0.12842a0.94411,0.94411,0,0,1-.00879.12793H26.7334a1.10321,1.10321,0,0,0,.1084.44873,1.17209,1.17209,0,0,0,.26758.36572,1.32491,1.32491,0,0,0,1.52051.16162,1.35436,1.35436,0,0,0,.43945-0.4082l0.52832,0.42383a1.88909,1.88909,0,0,1-.71582.59375,2.29815,2.29815,0,0,1-1.7168.04639,1.85,1.85,0,0,1-.63184-0.40381,1.88139,1.88139,0,0,1-.416-0.62793,2.11614,2.11614,0,0,1-.15137-0.81641,2.17923,2.17923,0,0,1,.14746-0.812,1.841,1.841,0,0,1,1.03906-1.04785,2.14514,2.14514,0,0,1,1.53516-.01172,1.5689,1.5689,0,0,1,.57715.3916,1.76473,1.76473,0,0,1,.36426.62012A2.446,2.446,0,0,1,29.75781,59.52174ZM28.98926,59.218a1.39517,1.39517,0,0,0-.07617-0.41992,0.92213,0.92213,0,0,0-.52734-0.56836,1.16824,1.16824,0,0,0-.46-0.084,1.22,1.22,0,0,0-.45215.084,1.17421,1.17421,0,0,0-.36816.228,1.18807,1.18807,0,0,0-.25586.34033,1.07169,1.07169,0,0,0-.11621.41992h2.25586Z"/><path class="c" d="M33.56543,61.45h-0.752V55.40211h0.752V61.45Z"/><path class="c" d="M38.54785,59.52174v0.12842a0.94411,0.94411,0,0,1-.00879.12793H35.52344a1.10321,1.10321,0,0,0,.1084.44873,1.17209,1.17209,0,0,0,.26758.36572,1.32491,1.32491,0,0,0,1.52051.16162,1.35436,1.35436,0,0,0,.43945-0.4082l0.52832,0.42383a1.88909,1.88909,0,0,1-.71582.59375,2.29815,2.29815,0,0,1-1.7168.04639,1.85,1.85,0,0,1-.63184-0.40381,1.88139,1.88139,0,0,1-.416-0.62793,2.11614,2.11614,0,0,1-.15137-0.81641,2.17923,2.17923,0,0,1,.14746-0.812,1.841,1.841,0,0,1,1.03906-1.04785,2.14514,2.14514,0,0,1,1.53516-.01172,1.5689,1.5689,0,0,1,.57715.3916,1.76473,1.76473,0,0,1,.36426.62012A2.446,2.446,0,0,1,38.54785,59.52174ZM37.7793,59.218a1.39517,1.39517,0,0,0-.07617-0.41992,0.92213,0.92213,0,0,0-.52734-0.56836,1.16824,1.16824,0,0,0-.46-0.084,1.22,1.22,0,0,0-.45215.084,1.17421,1.17421,0,0,0-.36816.228,1.18807,1.18807,0,0,0-.25586.34033,1.07169,1.07169,0,0,0-.11621.41992H37.7793Z"/><path class="c" d="M41.44336,61.45H40.62793L39.084,57.658h0.832l1.11133,2.98389h0.0166L42.16406,57.658h0.7998Z"/><path class="c" d="M47.28613,59.52174v0.12842a0.94411,0.94411,0,0,1-.00879.12793H44.26172a1.10321,1.10321,0,0,0,.1084.44873,1.17209,1.17209,0,0,0,.26758.36572,1.32491,1.32491,0,0,0,1.52051.16162,1.35436,1.35436,0,0,0,.43945-0.4082L47.126,60.76979a1.88909,1.88909,0,0,1-.71582.59375,2.29815,2.29815,0,0,1-1.7168.04639,1.85,1.85,0,0,1-.63184-0.40381,1.88139,1.88139,0,0,1-.416-0.62793,2.11614,2.11614,0,0,1-.15137-0.81641,2.17923,2.17923,0,0,1,.14746-0.812,1.841,1.841,0,0,1,1.03906-1.04785,2.14514,2.14514,0,0,1,1.53516-.01172,1.5689,1.5689,0,0,1,.57715.3916,1.76473,1.76473,0,0,1,.36426.62012A2.446,2.446,0,0,1,47.28613,59.52174ZM46.51758,59.218a1.39517,1.39517,0,0,0-.07617-0.41992,0.92213,0.92213,0,0,0-.52734-0.56836,1.16824,1.16824,0,0,0-.46-0.084,1.22,1.22,0,0,0-.45215.084,1.17421,1.17421,0,0,0-.36816.228,1.18807,1.18807,0,0,0-.25586.34033,1.07169,1.07169,0,0,0-.11621.41992h2.25586Z"/><path class="c" d="M49.22754,61.45h-0.752V55.40211h0.752V61.45Z"/></svg>