<svg xmlns="http://www.w3.org/2000/svg" viewBox="0 0 243.9 69.53"><defs><style>.a{fill:#abddf3;}.a,.b,.d{stroke:#3d4752;stroke-miterlimit:10;stroke-width:0.9px;}.b{fill:none;}.c{fill:#3d4752;}.d{fill:#fff;}</style></defs><title>database design diagrams</title><path class="a" d="M90.45,2.7V18.45h-90V2.7A2.22821,2.22821,0,0,1,2.7.45H88.2A2.25978,2.25978,0,0,1,90.45,2.7Z"/><path class="b" d="M90.45,18.45V66.83a2.29312,2.29312,0,0,1-2.25,2.25H2.7A2.25978,2.25978,0,0,1,.45,66.83V18.45h90Z"/><path class="a" d="M243.45,2.93V18.68h-90V2.93A2.22817,2.22817,0,0,1,155.7.68h85.5A2.25974,2.25974,0,0,1,243.45,2.93Z"/><path class="b" d="M243.45,18.68V66.83a2.28636,2.28636,0,0,1-2.25,2.25H155.7a2.25338,2.25338,0,0,1-2.25-2.25V18.68h90Z"/><polyline class="b" points="90.45 27.675 121.95 27.675 153.45 27.675"/><rect class="c" x="94.50003" y="23.17504" width="0.9" height="9"/><rect class="c" x="143.55002" y="23.17504" width="0.89999" height="9"/><path class="c" d="M11.08984,12.34961a3.03052,3.03052,0,0,1-1.27148.252,3.31467,3.31467,0,0,1-1.21191-.21582A2.80031,2.80031,0,0,1,7.002,10.82568a3.32558,3.32558,0,0,1,.00391-2.44775A2.74119,2.74119,0,0,1,7.6582,7.4375a2.89394,2.89394,0,0,1,.97559-0.5957,3.50116,3.50116,0,0,1,2.38867.00391,2.25567,2.25567,0,0,1,.93945.62012l-0.92773.92773a1.15047,1.15047,0,0,0-.50391-0.39209,1.68013,1.68013,0,0,0-.63965-0.12793,1.61538,1.61538,0,0,0-.66016.13232,1.55021,1.55021,0,0,0-.5166.36377,1.66956,1.66956,0,0,0-.33594.54785,1.93441,1.93441,0,0,0-.12012.69238,1.98535,1.98535,0,0,0,.12012.70361,1.64086,1.64086,0,0,0,.332.54834,1.501,1.501,0,0,0,.50781.356,1.61612,1.61612,0,0,0,.64844.12793,1.50417,1.50417,0,0,0,.71191-0.16016,1.3764,1.3764,0,0,0,.48828-0.416l0.95215,0.896A2.69879,2.69879,0,0,1,11.08984,12.34961Z"/><path class="c" d="M16.91406,10.44189a2.14013,2.14013,0,0,1-.17676.88379,1.98466,1.98466,0,0,1-.47949.67188,2.20665,2.20665,0,0,1-.7041.42822,2.47728,2.47728,0,0,1-1.708,0,2.14447,2.14447,0,0,1-.7041-0.42822,2.00187,2.00187,0,0,1-.47559-0.67187,2.1559,2.1559,0,0,1-.17676-0.88379A2.13147,2.13147,0,0,1,12.666,9.56152a1.96781,1.96781,0,0,1,.47559-0.66357,2.06057,2.06057,0,0,1,.7041-0.416,2.60362,2.60362,0,0,1,1.708,0,2.11746,2.11746,0,0,1,.7041.416,1.95124,1.95124,0,0,1,.47949.66357A2.116,2.116,0,0,1,16.91406,10.44189Zm-1.26465,0a1.15142,1.15142,0,0,0-.06348-0.376,0.996,0.996,0,0,0-.18457-0.32422,0.93742,0.93742,0,0,0-.2959-0.228,0.98962,0.98962,0,0,0-.81543,0,0.87977,0.87977,0,0,0-.292.228,0.96168,0.96168,0,0,0-.17676.32422,1.21627,1.21627,0,0,0,0,.752,1.03067,1.03067,0,0,0,.18066.332,0.88681,0.88681,0,0,0,.2959.23584,0.98962,0.98962,0,0,0,.81543,0,0.88084,0.88084,0,0,0,.29688-0.23584,1.04722,1.04722,0,0,0,.17969-0.332A1.20358,1.20358,0,0,0,15.64941,10.44189Z"/><path class="c" d="M20.50781,12.44971V11.89795H20.49219a1.13963,1.13963,0,0,1-.18848.25586,1.18416,1.18416,0,0,1-.27148.208,1.701,1.701,0,0,1-.34375.144,1.39432,1.39432,0,0,1-.39648.05566,1.44357,1.44357,0,0,1-.67578-0.144A1.29839,1.29839,0,0,1,18.168,12.0459a1.48191,1.48191,0,0,1-.248-0.52,2.35407,2.35407,0,0,1-.07617-0.59619V8.46582h1.32031v2.15967a1.98265,1.98265,0,0,0,.02441.32031,0.782,0.782,0,0,0,.0918.272,0.50784,0.50784,0,0,0,.17969.188,0.5673,0.5673,0,0,0,.2959.06787,0.60043,0.60043,0,0,0,.52441-0.25586,1.01594,1.01594,0,0,0,.17969-0.6001V8.46582h1.3125v3.98389H20.50781Z"/><path class="c" d="M25.5625,12.44971V10.27393a1.7769,1.7769,0,0,0-.02832-0.32031,0.87653,0.87653,0,0,0-.0918-0.26807,0.48179,0.48179,0,0,0-.17969-0.18408,0.57417,0.57417,0,0,0-.292-0.06787,0.67434,0.67434,0,0,0-.30859.06787,0.624,0.624,0,0,0-.21973.18848,0.84964,0.84964,0,0,0-.13184.27588,1.18826,1.18826,0,0,0-.04395.32373v2.16016H22.94629V8.46582h1.27246V9.01758h0.01563a1.30144,1.30144,0,0,1,.18848-0.252,1.1333,1.1333,0,0,1,.27148-0.21191,1.73841,1.73841,0,0,1,.33984-0.144,1.3528,1.3528,0,0,1,.39258-0.05615,1.47481,1.47481,0,0,1,.67969.144,1.31039,1.31039,0,0,1,.45215.37207,1.47233,1.47233,0,0,1,.248.52393,2.37224,2.37224,0,0,1,.07617.59229v2.46387H25.5625Z"/><path class="c" d="M29.4834,9.44189v1.52588a0.68444,0.68444,0,0,0,.1084.42139,0.46239,0.46239,0,0,0,.3877.14063,1.37459,1.37459,0,0,0,.2041-0.01611,0.70917,0.70917,0,0,0,.18066-0.04785l0.01563,0.96a2.18693,2.18693,0,0,1-.34375.084,2.443,2.443,0,0,1-.416.03613,1.95193,1.95193,0,0,1-.67187-0.10059,1.03913,1.03913,0,0,1-.43652-0.28857,1.14245,1.14245,0,0,1-.23633-0.44922A2.19076,2.19076,0,0,1,28.2041,11.126V9.44189H27.56348V8.46582h0.63281V7.41748H29.4834V8.46582h0.93652V9.44189H29.4834Z"/><path class="c" d="M33.87988,9.5459A1.00114,1.00114,0,0,0,33.708,9.51367c-0.05566-.00537-0.11035-0.00781-0.16406-0.00781a0.93046,0.93046,0,0,0-.44336.0957,0.89809,0.89809,0,0,0-.28809.23145,0.873,0.873,0,0,0-.15625.29492,0.98115,0.98115,0,0,0-.04785.2793v2.04248H31.2959V8.47021h1.26465V9.04639h0.01563a1.30179,1.30179,0,0,1,.43164-0.49951,1.11383,1.11383,0,0,1,.64844-0.19336,1.49366,1.49366,0,0,1,.15625.0083,0.60049,0.60049,0,0,1,.124.02393Z"/><path class="c" d="M37.13965,13.0498a3.48261,3.48261,0,0,1-.26758.55566,1.65437,1.65437,0,0,1-.35254.416,1.38752,1.38752,0,0,1-.47949.26025,2.16091,2.16091,0,0,1-.65234.08789,3.09971,3.09971,0,0,1-.37988-0.02393,2.39531,2.39531,0,0,1-.33984-0.064l0.14355-1.104a1.49626,1.49626,0,0,0,.21191.05176,1.23487,1.23487,0,0,0,.21289.02,0.59253,0.59253,0,0,0,.43945-0.13965,1.14514,1.14514,0,0,0,.23242-0.396l0.12793-.32812L34.37207,8.46582h1.45605l0.8877,2.56006h0.02441l0.792-2.56006h1.3916Z"/><path class="c" d="M9.9541,26.8335A1.26532,1.26532,0,0,0,9.498,26.45361a1.39551,1.39551,0,0,0-.64746-0.14795,1.51525,1.51525,0,0,0-.38867.05225,1.05471,1.05471,0,0,0-.35547.168,0.91549,0.91549,0,0,0-.25977.2876,0.80055,0.80055,0,0,0-.10059.41211,0.75146,0.75146,0,0,0,.0918.38818,0.846,0.846,0,0,0,.248.26416,1.58028,1.58028,0,0,0,.36816.18359q0.2124,0.07617.45215,0.15625,0.28857,0.08789.584,0.19971a2.11664,2.11664,0,0,1,.53613.29639,1.45522,1.45522,0,0,1,.3916.46,1.43723,1.43723,0,0,1,.15234.69971,1.67124,1.67124,0,0,1-.16406.76416,1.56743,1.56743,0,0,1-.43652.53613,1.85477,1.85477,0,0,1-.62793.31592,2.59641,2.59641,0,0,1-.73145.104,2.67107,2.67107,0,0,1-1.03613-.208,2.06048,2.06048,0,0,1-.82812-0.61621l0.61621-.52a1.52047,1.52047,0,0,0,1.66406.6084,1.13573,1.13573,0,0,0,.36426-0.17627,0.98058,0.98058,0,0,0,.26758-0.2998,0.8577,0.8577,0,0,0,.10352-0.436,0.7885,0.7885,0,0,0-.10742-0.42822,0.96788,0.96788,0,0,0-.292-0.292,1.95316,1.95316,0,0,0-.42773-0.2041Q8.68994,28.938,8.418,28.84961a4.56433,4.56433,0,0,1-.53613-0.1958,1.86538,1.86538,0,0,1-.47168-0.2959,1.36236,1.36236,0,0,1-.33594-0.44434,1.502,1.502,0,0,1-.12793-0.65576,1.45977,1.45977,0,0,1,.17188-0.728,1.55583,1.55583,0,0,1,.44824-0.50391,1.85237,1.85237,0,0,1,.624-0.292,2.71467,2.71467,0,0,1,.7002-0.09229,2.43986,2.43986,0,0,1,.92773.17627,1.85236,1.85236,0,0,1,.69629.47168Z"/><path class="c" d="M12.64453,26.28955a0.45074,0.45074,0,0,1-.14746.34424,0.5,0.5,0,0,1-.35254.13574,0.48145,0.48145,0,0,1-.34961-0.13965,0.4606,0.4606,0,0,1-.14258-0.34033,0.46838,0.46838,0,0,1,.14258-0.34766,0.48188,0.48188,0,0,1,.34961-0.14014,0.49349,0.49349,0,0,1,.35254.14014A0.4618,0.4618,0,0,1,12.64453,26.28955Zm-0.12012,5.16016h-0.752v-3.792h0.752v3.792Z"/><path class="c" d="M16.623,28.27393l-2.15918,2.54395h2.248v0.63184H13.53516V30.8335l2.14453-2.55957h-2.04V27.65771H16.623v0.61621Z"/><path class="c" d="M21.21,29.52148V29.6499a0.94411,0.94411,0,0,1-.00879.12793H18.18555a1.10321,1.10321,0,0,0,.1084.44873,1.17209,1.17209,0,0,0,.26758.36572,1.32491,1.32491,0,0,0,1.52051.16162,1.35436,1.35436,0,0,0,.43945-0.4082l0.52832,0.42383a1.88909,1.88909,0,0,1-.71582.59375,2.29815,2.29815,0,0,1-1.7168.04639,1.85,1.85,0,0,1-.63184-0.40381,1.88139,1.88139,0,0,1-.416-0.62793,2.11614,2.11614,0,0,1-.15137-0.81641,2.17923,2.17923,0,0,1,.14746-0.812,1.841,1.841,0,0,1,1.03906-1.04785,2.14514,2.14514,0,0,1,1.53516-.01172,1.5689,1.5689,0,0,1,.57715.3916,1.76473,1.76473,0,0,1,.36426.62012A2.446,2.446,0,0,1,21.21,29.52148Zm-0.76855-.30371a1.39517,1.39517,0,0,0-.07617-0.41992,0.92213,0.92213,0,0,0-.52734-0.56836,1.16824,1.16824,0,0,0-.46-0.084,1.22,1.22,0,0,0-.45215.084,1.17421,1.17421,0,0,0-.36816.228,1.18807,1.18807,0,0,0-.25586.34033,1.07169,1.07169,0,0,0-.11621.41992h2.25586Z"/><path class="c" d="M24.55371,29.14551a5.34554,5.34554,0,0,0,.28027,1.71631,5.52744,5.52744,0,0,0,.752,1.4917l-0.54395.35205a6.06168,6.06168,0,0,1-.84863-1.63184,5.97972,5.97972,0,0,1,0-3.856,6.06168,6.06168,0,0,1,.84863-1.63184l0.54395,0.35156a5.53768,5.53768,0,0,0-.752,1.49219A5.347,5.347,0,0,0,24.55371,29.14551Z"/><path class="c" d="M28.66406,28.61768a0.99064,0.99064,0,0,0-.36035-0.33984,1.033,1.033,0,0,0-.51953-0.13232,1.21015,1.21015,0,0,0-.25684.02832,0.74644,0.74644,0,0,0-.22754.08789,0.49259,0.49259,0,0,0-.16016.15186,0.40972,0.40972,0,0,0-.05957.228,0.37788,0.37788,0,0,0,.21582.356,2.638,2.638,0,0,0,.64746.21191,4.10708,4.10708,0,0,1,.50488.15234,1.57326,1.57326,0,0,1,.40332.21973,0.95021,0.95021,0,0,1,.26855.31641,0.92693,0.92693,0,0,1,.0957.43164,1.167,1.167,0,0,1-.12793.56836,1.12665,1.12665,0,0,1-.33984.37988,1.39263,1.39263,0,0,1-.48437.21191,2.44915,2.44915,0,0,1-.55957.064,2.22569,2.22569,0,0,1-.84473-0.168,1.65166,1.65166,0,0,1-.68359-0.51221l0.53613-.45605a1.2318,1.2318,0,0,0,.41992.37646,1.17473,1.17473,0,0,0,.58789.15186,1.30666,1.30666,0,0,0,.27637-0.02832,0.76674,0.76674,0,0,0,.23926-0.0918,0.49545,0.49545,0,0,0,.17285-0.168,0.50259,0.50259,0,0,0,.06348-0.26416,0.41627,0.41627,0,0,0-.252-0.39209,3.4098,3.4098,0,0,0-.74023-0.23975c-0.12793-.03223-0.25684-0.0708-0.3877-0.11621a1.29571,1.29571,0,0,1-.35645-0.188,0.93408,0.93408,0,0,1-.25977-0.2998,0.90666,0.90666,0,0,1-.09961-0.44385,1.04625,1.04625,0,0,1,.124-0.52393,1.0666,1.0666,0,0,1,.32422-0.36035,1.42619,1.42619,0,0,1,.45508-0.208,2.0679,2.0679,0,0,1,.52832-0.06787,2.00394,2.00394,0,0,1,.78809.16016,1.30412,1.30412,0,0,1,.58789.46387Z"/><path class="c" d="M33.334,30.88184a1.39667,1.39667,0,0,1-.57227.49609,1.75488,1.75488,0,0,1-.77246.17578,1.94613,1.94613,0,0,1-.792-0.15576,1.77473,1.77473,0,0,1-.59961-0.42822,1.91967,1.91967,0,0,1-.38379-0.64014,2.23771,2.23771,0,0,1-.13672-0.78369,2.20889,2.20889,0,0,1,.13672-0.78027,1.89022,1.89022,0,0,1,.3877-0.63574,1.76882,1.76882,0,0,1,.60352-0.42432,1.94715,1.94715,0,0,1,.77637-0.15186,1.67605,1.67605,0,0,1,.82031.1958,1.46907,1.46907,0,0,1,.54785.5H33.374v-0.5918h0.72754v5.71191h-0.752V30.88184H33.334ZM30.86133,29.5459a1.64426,1.64426,0,0,0,.08008.51172,1.31438,1.31438,0,0,0,.24023.43994,1.25541,1.25541,0,0,0,1.46.312,1.26275,1.26275,0,0,0,.4043-0.2998,1.3686,1.3686,0,0,0,.25977-0.436,1.51883,1.51883,0,0,0,0-1.04,1.42039,1.42039,0,0,0-.25977-0.43994,1.24012,1.24012,0,0,0-.4043-0.3042,1.20634,1.20634,0,0,0-.52441-0.11182,1.23951,1.23951,0,0,0-.54395.11182,1.16148,1.16148,0,0,0-.3916.3042,1.31911,1.31911,0,0,0-.24023.43994A1.64731,1.64731,0,0,0,30.86133,29.5459Z"/><path class="c" d="M36.459,30.96973a0.519,0.519,0,0,1-.15234.36816,0.508,0.508,0,0,1-.38379.15967A0.51575,0.51575,0,0,1,35.543,31.3418a0.497,0.497,0,0,1-.15625-0.36426,0.52612,0.52612,0,0,1,.53613-0.52783,0.52185,0.52185,0,0,1,.38379.15186A0.50133,0.50133,0,0,1,36.459,30.96973Z"/><path class="c" d="M40.80664,27.76563a1.313,1.313,0,0,1,.748-0.21191,1.37217,1.37217,0,0,1,.69238.17578,1.18033,1.18033,0,0,1,.4834.584,1.35934,1.35934,0,0,1,.53613-0.564,1.59969,1.59969,0,0,1,1.38477-.07178,1.2767,1.2767,0,0,1,.43945.332,1.33966,1.33966,0,0,1,.25977.48779,2.05859,2.05859,0,0,1,.084.6001v2.35205h-0.752v-2.104a2.27141,2.27141,0,0,0-.04-0.43994,1.10635,1.10635,0,0,0-.13574-0.36816,0.73363,0.73363,0,0,0-.25586-0.25586,0.78439,0.78439,0,0,0-.4082-0.09619,0.84761,0.84761,0,0,0-.43945.1084,0.90851,0.90851,0,0,0-.30078.27979,1.19757,1.19757,0,0,0-.168.38818,1.89526,1.89526,0,0,0-.05176.43994v2.04785h-0.752V29.19385a1.94789,1.94789,0,0,0-.04-0.4082,0.83262,0.83262,0,0,0-.13574-0.31592,0.6779,0.6779,0,0,0-.248-0.208,0.83454,0.83454,0,0,0-.376-0.07617,0.85791,0.85791,0,0,0-.69238.34033,1.39913,1.39913,0,0,0-.27539.90771v2.01611h-0.752V28.47363q0-.15161-0.00879-0.39209c-0.00488-.15967-0.0127-0.30127-0.02344-0.42383H40.291q0.01611,0.14429.02344,0.32422,0.00879,0.17944.00879,0.2998h0.02344A1.28759,1.28759,0,0,1,40.80664,27.76563Z"/><path class="c" d="M47.68262,26.28955a0.45074,0.45074,0,0,1-.14746.34424,0.5,0.5,0,0,1-.35254.13574,0.48145,0.48145,0,0,1-.34961-0.13965,0.4606,0.4606,0,0,1-.14258-0.34033,0.46838,0.46838,0,0,1,.14258-0.34766,0.48188,0.48188,0,0,1,.34961-0.14014,0.49349,0.49349,0,0,1,.35254.14014A0.4618,0.4618,0,0,1,47.68262,26.28955ZM47.5625,31.44971h-0.752v-3.792h0.752v3.792Z"/><path class="c" d="M49.78711,29.14551a5.37392,5.37392,0,0,0-.28027-1.71582,5.566,5.566,0,0,0-.752-1.49219l0.54395-.35156a6.05961,6.05961,0,0,1,.84766,1.63184,5.96246,5.96246,0,0,1,0,3.856,6.05961,6.05961,0,0,1-.84766,1.63184l-0.54395-.35205a5.55571,5.55571,0,0,0,.752-1.4917A5.37246,5.37246,0,0,0,49.78711,29.14551Z"/><path class="c" d="M12.85059,43.60986a3.09681,3.09681,0,0,1-.22852,1.20361,2.85971,2.85971,0,0,1-.62793.94434,2.8192,2.8192,0,0,1-.95215.61572,3.20533,3.20533,0,0,1-1.2002.22021,3.17262,3.17262,0,0,1-1.19531-.22021,2.77219,2.77219,0,0,1-1.57227-1.56006,3.37314,3.37314,0,0,1,0-2.41553,2.71415,2.71415,0,0,1,.624-0.936,2.83306,2.83306,0,0,1,.94824-0.604A3.22979,3.22979,0,0,1,9.8418,40.6416a3.26317,3.26317,0,0,1,1.2002.21631,2.82123,2.82123,0,0,1,.95215.604,2.76518,2.76518,0,0,1,.62793.936A3.11783,3.11783,0,0,1,12.85059,43.60986Zm-0.85645,0a2.50339,2.50339,0,0,0-.15234-0.876,2.212,2.212,0,0,0-.43164-0.72412,2.02207,2.02207,0,0,0-.67578-0.49219,2.1414,2.1414,0,0,0-.89258-0.17969,2.11942,2.11942,0,0,0-.88379.17969,1.9777,1.9777,0,0,0-.67187.49219,2.25431,2.25431,0,0,0-.42773.72412,2.50339,2.50339,0,0,0-.15234.876,2.56126,2.56126,0,0,0,.15234.8877,2.15784,2.15784,0,0,0,.43164.72412,2.007,2.007,0,0,0,.67188.48389,2.12125,2.12125,0,0,0,.87988.17627,2.17934,2.17934,0,0,0,.88867-0.17627,1.98105,1.98105,0,0,0,.67969-0.48389,2.15784,2.15784,0,0,0,.43164-0.72412A2.56126,2.56126,0,0,0,11.99414,43.60986Z"/><path class="c" d="M15.9834,43.27393H15.10352v3.17578h-0.752V43.27393h-0.752V42.65771h0.752v-0.792a2.38934,2.38934,0,0,1,.07617-0.62012,1.27508,1.27508,0,0,1,.248-0.4917,1.18361,1.18361,0,0,1,.44043-0.32812,1.58357,1.58357,0,0,1,.65137-0.12012,1.7571,1.7571,0,0,1,.47266.05615l-0.08887.64795c-0.05859-.01611-0.11719-0.0293-0.17578-0.04a1.11526,1.11526,0,0,0-.2002-0.01611,0.6923,0.6923,0,0,0-.34766.07617,0.53558,0.53558,0,0,0-.2041.2041,0.82964,0.82964,0,0,0-.0957.292,2.26322,2.26322,0,0,0-.02441.33984v0.792H15.9834v0.61621Z"/><path class="c" d="M18.9375,43.27393H18.05762v3.17578h-0.752V43.27393h-0.752V42.65771h0.752v-0.792a2.38934,2.38934,0,0,1,.07617-0.62012,1.27508,1.27508,0,0,1,.248-0.4917,1.18361,1.18361,0,0,1,.44043-0.32812,1.58357,1.58357,0,0,1,.65137-0.12012,1.7571,1.7571,0,0,1,.47266.05615l-0.08887.64795c-0.05859-.01611-0.11719-0.0293-0.17578-0.04a1.11526,1.11526,0,0,0-.2002-0.01611,0.6923,0.6923,0,0,0-.34766.07617,0.53558,0.53558,0,0,0-.2041.2041,0.82964,0.82964,0,0,0-.0957.292,2.26322,2.26322,0,0,0-.02441.33984v0.792H18.9375v0.61621Zm1.61621-1.98437a0.44991,0.44991,0,0,1-.14648.34424,0.5007,0.5007,0,0,1-.35352.13574,0.47764,0.47764,0,0,1-.34863-0.13965,0.45783,0.45783,0,0,1-.14355-0.34033,0.46555,0.46555,0,0,1,.14355-0.34766,0.47806,0.47806,0,0,1,.34863-0.14014,0.49414,0.49414,0,0,1,.35352.14014A0.461,0.461,0,0,1,20.55371,41.28955Zm-0.12012,5.16016h-0.752v-3.792h0.752v3.792Z"/><path class="c" d="M24.5127,43.61768a0.929,0.929,0,0,0-.35937-0.30811,1.10381,1.10381,0,0,0-.5127-0.124,1.16917,1.16917,0,0,0-.52344.1123,1.20668,1.20668,0,0,0-.38867.2998,1.31773,1.31773,0,0,0-.24316.436,1.65194,1.65194,0,0,0,0,1.04,1.31288,1.31288,0,0,0,.24316.436,1.17746,1.17746,0,0,0,.9209.41211,1.20529,1.20529,0,0,0,.52344-0.1123,1.06643,1.06643,0,0,0,.3877-0.30371l0.50488,0.45605a1.634,1.634,0,0,1-.60059.436,2.04081,2.04081,0,0,1-.81543.15576,2.22725,2.22725,0,0,1-.8125-0.144,1.92046,1.92046,0,0,1-.64355-0.40381,1.86862,1.86862,0,0,1-.42871-0.62793,2.26991,2.26991,0,0,1-.00391-1.64014,1.87576,1.87576,0,0,1,.42383-0.63232,1.90566,1.90566,0,0,1,.64453-0.40771,2.20236,2.20236,0,0,1,.80371-0.144,2.10344,2.10344,0,0,1,.7959.16016,1.44682,1.44682,0,0,1,.62793.46387Z"/><path class="c" d="M26.85547,41.28955a0.45074,0.45074,0,0,1-.14746.34424,0.5,0.5,0,0,1-.35254.13574,0.48145,0.48145,0,0,1-.34961-0.13965,0.4606,0.4606,0,0,1-.14258-0.34033,0.46838,0.46838,0,0,1,.14258-0.34766,0.48188,0.48188,0,0,1,.34961-0.14014,0.49349,0.49349,0,0,1,.35254.14014A0.4618,0.4618,0,0,1,26.85547,41.28955Zm-0.12012,5.16016h-0.752v-3.792h0.752v3.792Z"/><path class="c" d="M30.51465,43.99365a0.75311,0.75311,0,0,0-.25586-0.62793,1.05866,1.05866,0,0,0-.67969-0.2041,1.49633,1.49633,0,0,0-.60449.124,1.53219,1.53219,0,0,0-.47559.31592l-0.40039-.48a2.026,2.026,0,0,1,.68457-0.416,2.44581,2.44581,0,0,1,.86719-0.15186,1.94863,1.94863,0,0,1,.708.11621,1.33552,1.33552,0,0,1,.49219.31592,1.28853,1.28853,0,0,1,.28809.47168,1.732,1.732,0,0,1,.0957.584v1.65625c0,0.12793.00488,0.2627,0.0127,0.40381a2.04164,2.04164,0,0,0,.04395.34814H30.61035a2.40452,2.40452,0,0,1-.06348-0.54395H30.52246a1.464,1.464,0,0,1-.52344.47217,1.57487,1.57487,0,0,1-.748.168,1.95172,1.95172,0,0,1-.46777-0.06006,1.35115,1.35115,0,0,1-.44434-0.19629,1.09636,1.09636,0,0,1-.332-0.35986,1.071,1.071,0,0,1-.13184-0.55176,0.97218,0.97218,0,0,1,.23145-0.68408,1.47777,1.47777,0,0,1,.6084-0.38428,3.44973,3.44973,0,0,1,.84766-0.17187q0.47314-.04028.95215-0.04v-0.104Zm-0.18359.64795q-0.27979,0-.58008.02393a2.68673,2.68673,0,0,0-.54395.09619,1.02725,1.02725,0,0,0-.4043.21582,0.49282,0.49282,0,0,0-.16016.38428,0.52573,0.52573,0,0,0,.06836.27979,0.56273,0.56273,0,0,0,.17969.18408,0.72848,0.72848,0,0,0,.248.1001,1.39912,1.39912,0,0,0,.28027.02783,1.03406,1.03406,0,0,0,.81152-0.31592,1.14538,1.14538,0,0,0,.28418-0.7959V44.6416H30.33105Z"/><path class="c" d="M33.36621,46.44971h-0.752V40.40186h0.752v6.04785Z"/><path class="c" d="M37.44629,46.44971h-0.752V40.40186h0.752v6.04785Z"/><path class="c" d="M41.23535,43.99365a0.75311,0.75311,0,0,0-.25586-0.62793,1.05866,1.05866,0,0,0-.67969-0.2041,1.49633,1.49633,0,0,0-.60449.124,1.53219,1.53219,0,0,0-.47559.31592l-0.40039-.48a2.026,2.026,0,0,1,.68457-0.416,2.44581,2.44581,0,0,1,.86719-0.15186,1.94863,1.94863,0,0,1,.708.11621,1.33552,1.33552,0,0,1,.49219.31592,1.28853,1.28853,0,0,1,.28809.47168,1.732,1.732,0,0,1,.0957.584v1.65625c0,0.12793.00488,0.2627,0.0127,0.40381a2.04164,2.04164,0,0,0,.04395.34814H41.33105a2.40452,2.40452,0,0,1-.06348-0.54395H41.24316a1.464,1.464,0,0,1-.52344.47217,1.57487,1.57487,0,0,1-.748.168,1.95172,1.95172,0,0,1-.46777-0.06006,1.35115,1.35115,0,0,1-.44434-0.19629,1.09636,1.09636,0,0,1-.332-0.35986,1.071,1.071,0,0,1-.13184-0.55176,0.97218,0.97218,0,0,1,.23145-0.68408,1.47777,1.47777,0,0,1,.6084-0.38428,3.44973,3.44973,0,0,1,.84766-0.17187q0.47314-.04028.95215-0.04v-0.104Zm-0.18359.64795q-0.27979,0-.58008.02393a2.68673,2.68673,0,0,0-.54395.09619,1.02725,1.02725,0,0,0-.4043.21582,0.49282,0.49282,0,0,0-.16016.38428,0.52573,0.52573,0,0,0,.06836.27979,0.56273,0.56273,0,0,0,.17969.18408,0.72848,0.72848,0,0,0,.248.1001,1.39912,1.39912,0,0,0,.28027.02783,1.03406,1.03406,0,0,0,.81152-0.31592,1.14538,1.14538,0,0,0,.28418-0.7959V44.6416H41.05176Z"/><path class="c" d="M44.00781,42.65771q0.01611,0.14429.02344,0.32422,0.00879,0.17944.00879,0.2998h0.02344a1.10649,1.10649,0,0,1,.19629-0.28418,1.42046,1.42046,0,0,1,.28418-0.23193,1.39513,1.39513,0,0,1,.35156-0.15576,1.41418,1.41418,0,0,1,.40039-0.05615,1.47748,1.47748,0,0,1,.63184.124,1.28977,1.28977,0,0,1,.44043.332,1.35451,1.35451,0,0,1,.25977.48779,2.09208,2.09208,0,0,1,.084.6001v2.35205H45.96v-2.104a2.63509,2.63509,0,0,0-.03613-0.43994A1.08153,1.08153,0,0,0,45.792,43.5376a0.71984,0.71984,0,0,0-.26465-0.25586,0.86131,0.86131,0,0,0-.43164-0.09619,0.91147,0.91147,0,0,0-.73242.34033,1.36936,1.36936,0,0,0-.2832.90771v2.01611h-0.752V43.47363q0-.15161-0.00879-0.39209c-0.00488-.15967-0.0127-0.30127-0.02344-0.42383h0.71191Z"/><path class="c" d="M48.40527,47.09766a1.81352,1.81352,0,0,0,.62012.44824,1.83487,1.83487,0,0,0,.76367.168,1.62234,1.62234,0,0,0,.63184-0.1084,1.056,1.056,0,0,0,.41211-0.2959,1.14477,1.14477,0,0,0,.22363-0.44385,2.12307,2.12307,0,0,0,.06836-0.55225V45.82568H51.10938a1.3381,1.3381,0,0,1-.56836.48779,1.79151,1.79151,0,0,1-.76855.16846,1.98142,1.98142,0,0,1-.78711-0.15234,1.76292,1.76292,0,0,1-.60449-0.416,1.87194,1.87194,0,0,1-.38379-0.61963,2.12012,2.12012,0,0,1-.13574-0.76416,2.15093,2.15093,0,0,1,.13574-0.76807,1.90964,1.90964,0,0,1,.38379-0.62793,1.79879,1.79879,0,0,1,.59961-0.42432,1.917,1.917,0,0,1,.78418-0.15576,1.80408,1.80408,0,0,1,.78027.17578,1.344,1.344,0,0,1,.58789.53613h0.0166V42.65771H51.877v3.6001a3.00192,3.00192,0,0,1-.10449.7959,1.73283,1.73283,0,0,1-.35156.67188,1.76054,1.76054,0,0,1-.64844.46826,2.46369,2.46369,0,0,1-.99121.17578,2.93044,2.93044,0,0,1-.99609-0.17969,2.53369,2.53369,0,0,1-.86035-0.5083Zm0.22363-2.584a1.52,1.52,0,0,0,.084.50391,1.24226,1.24226,0,0,0,.64648.72021,1.20683,1.20683,0,0,0,.5293.11182,1.32752,1.32752,0,0,0,.53027-0.104,1.21725,1.21725,0,0,0,.40918-0.28369,1.26927,1.26927,0,0,0,.26074-0.42432,1.46671,1.46671,0,0,0,.0918-0.52393,1.41634,1.41634,0,0,0-.0918-0.51221,1.2841,1.2841,0,0,0-.67383-0.71582,1.34487,1.34487,0,0,0-1.05566,0,1.235,1.235,0,0,0-.39746.28809,1.21473,1.21473,0,0,0-.249.42383A1.58627,1.58627,0,0,0,48.62891,44.51367Z"/><path class="c" d="M55.95508,46.44971c-0.01074-.09619-0.01953-0.2041-0.02441-0.32422-0.00488-.11963-0.00781-0.21973-0.00781-0.2998H55.90723a1.24376,1.24376,0,0,1-.48437.51611,1.40113,1.40113,0,0,1-.75586.21191,1.54182,1.54182,0,0,1-.63574-0.12012,1.16178,1.16178,0,0,1-.44043-0.332,1.401,1.401,0,0,1-.25586-0.4917,2.05859,2.05859,0,0,1-.084-0.6001V42.65771h0.752v2.09619a2.60183,2.60183,0,0,0,.03613.44385,1.04533,1.04533,0,0,0,.13184.37207,0.717,0.717,0,0,0,.26367.25586,0.86524,0.86524,0,0,0,.43262.09619,0.90513,0.90513,0,0,0,.73535-0.34033,1.3843,1.3843,0,0,0,.28027-0.90771V42.65771h0.752v2.97607c0,0.10107.00293,0.23193,0.00781,0.39209,0.00586,0.15967.01367,0.30127,0.02441,0.42383H55.95508Z"/><path class="c" d="M60.41113,43.99365a0.75311,0.75311,0,0,0-.25586-0.62793,1.05866,1.05866,0,0,0-.67969-0.2041,1.49633,1.49633,0,0,0-.60449.124,1.53219,1.53219,0,0,0-.47559.31592l-0.40039-.48a2.026,2.026,0,0,1,.68457-0.416,2.44581,2.44581,0,0,1,.86719-0.15186,1.94863,1.94863,0,0,1,.708.11621,1.33552,1.33552,0,0,1,.49219.31592,1.28853,1.28853,0,0,1,.28809.47168,1.732,1.732,0,0,1,.0957.584v1.65625c0,0.12793.00488,0.2627,0.0127,0.40381a2.04164,2.04164,0,0,0,.04395.34814H60.50684a2.40452,2.40452,0,0,1-.06348-0.54395H60.41895a1.464,1.464,0,0,1-.52344.47217,1.57487,1.57487,0,0,1-.748.168,1.95172,1.95172,0,0,1-.46777-0.06006,1.35115,1.35115,0,0,1-.44434-0.19629,1.09636,1.09636,0,0,1-.332-0.35986,1.071,1.071,0,0,1-.13184-0.55176,0.97218,0.97218,0,0,1,.23145-0.68408,1.47777,1.47777,0,0,1,.6084-0.38428A3.44973,3.44973,0,0,1,59.459,44.1377q0.47314-.04028.95215-0.04v-0.104Zm-0.18359.64795q-0.27979,0-.58008.02393a2.68673,2.68673,0,0,0-.54395.09619,1.02725,1.02725,0,0,0-.4043.21582,0.49282,0.49282,0,0,0-.16016.38428,0.52573,0.52573,0,0,0,.06836.27979,0.56273,0.56273,0,0,0,.17969.18408,0.72848,0.72848,0,0,0,.248.1001,1.39912,1.39912,0,0,0,.28027.02783A1.03406,1.03406,0,0,0,60.127,45.6377a1.14538,1.14538,0,0,0,.28418-0.7959V44.6416H60.22754Z"/><path class="c" d="M62.80371,47.09766a1.81352,1.81352,0,0,0,.62012.44824,1.83487,1.83487,0,0,0,.76367.168,1.62234,1.62234,0,0,0,.63184-0.1084,1.056,1.056,0,0,0,.41211-0.2959,1.14477,1.14477,0,0,0,.22363-0.44385,2.12307,2.12307,0,0,0,.06836-0.55225V45.82568H65.50781a1.3381,1.3381,0,0,1-.56836.48779,1.79151,1.79151,0,0,1-.76855.16846,1.98142,1.98142,0,0,1-.78711-0.15234,1.76292,1.76292,0,0,1-.60449-0.416,1.87194,1.87194,0,0,1-.38379-0.61963,2.12012,2.12012,0,0,1-.13574-0.76416,2.15093,2.15093,0,0,1,.13574-0.76807,1.90964,1.90964,0,0,1,.38379-0.62793,1.79879,1.79879,0,0,1,.59961-0.42432,1.917,1.917,0,0,1,.78418-0.15576,1.80408,1.80408,0,0,1,.78027.17578,1.344,1.344,0,0,1,.58789.53613h0.0166V42.65771h0.72754v3.6001a3.00192,3.00192,0,0,1-.10449.7959,1.73283,1.73283,0,0,1-.35156.67188,1.76054,1.76054,0,0,1-.64844.46826,2.46369,2.46369,0,0,1-.99121.17578,2.93044,2.93044,0,0,1-.99609-0.17969,2.53369,2.53369,0,0,1-.86035-0.5083Zm0.22363-2.584a1.52,1.52,0,0,0,.084.50391,1.24226,1.24226,0,0,0,.64648.72021,1.20683,1.20683,0,0,0,.5293.11182,1.32752,1.32752,0,0,0,.53027-0.104,1.21725,1.21725,0,0,0,.40918-0.28369,1.26927,1.26927,0,0,0,.26074-0.42432,1.46671,1.46671,0,0,0,.0918-0.52393,1.41634,1.41634,0,0,0-.0918-0.51221,1.2841,1.2841,0,0,0-.67383-0.71582,1.34487,1.34487,0,0,0-1.05566,0,1.235,1.235,0,0,0-.39746.28809,1.21473,1.21473,0,0,0-.249.42383A1.58627,1.58627,0,0,0,63.02734,44.51367Z"/><path class="c" d="M71.252,44.52148V44.6499a0.94411,0.94411,0,0,1-.00879.12793H68.22754a1.10321,1.10321,0,0,0,.1084.44873,1.17209,1.17209,0,0,0,.26758.36572,1.32491,1.32491,0,0,0,1.52051.16162,1.35436,1.35436,0,0,0,.43945-0.4082l0.52832,0.42383a1.88909,1.88909,0,0,1-.71582.59375,2.29815,2.29815,0,0,1-1.7168.04639,1.85,1.85,0,0,1-.63184-0.40381,1.88139,1.88139,0,0,1-.416-0.62793A2.11614,2.11614,0,0,1,67.46,44.56152a2.17923,2.17923,0,0,1,.14746-0.812,1.841,1.841,0,0,1,1.03906-1.04785,2.14514,2.14514,0,0,1,1.53516-.01172,1.5689,1.5689,0,0,1,.57715.3916,1.76473,1.76473,0,0,1,.36426.62012A2.446,2.446,0,0,1,71.252,44.52148Zm-0.76855-.30371a1.39517,1.39517,0,0,0-.07617-0.41992,0.92213,0.92213,0,0,0-.52734-0.56836,1.16824,1.16824,0,0,0-.46-0.084,1.22,1.22,0,0,0-.45215.084,1.17421,1.17421,0,0,0-.36816.228,1.18807,1.18807,0,0,0-.25586.34033,1.07169,1.07169,0,0,0-.11621.41992H70.4834Z"/><path class="c" d="M11.41016,56.95361a1.83972,1.83972,0,0,0-.65234-0.44775,2.235,2.235,0,0,0-.88379-0.168,2.16166,2.16166,0,0,0-.89551.17969,2.01253,2.01253,0,0,0-.68066.49219,2.22892,2.22892,0,0,0-.43164.72412,2.50339,2.50339,0,0,0-.15234.876,2.56126,2.56126,0,0,0,.15234.8877,2.174,2.174,0,0,0,.43164.72412,1.9615,1.9615,0,0,0,.68848.48389,2.27307,2.27307,0,0,0,.91211.17627,3.48365,3.48365,0,0,0,.73535-0.07227,2.12458,2.12458,0,0,0,.584-0.208V59.02588H9.96191V58.35352h2.04v2.74414a4.11015,4.11015,0,0,1-.97559.36816,4.91129,4.91129,0,0,1-1.15234.12793,3.279,3.279,0,0,1-1.21973-.22021,2.7555,2.7555,0,0,1-1.58008-1.56006,3.1499,3.1499,0,0,1-.22363-1.20361,3.11761,3.11761,0,0,1,.22754-1.21191,2.73268,2.73268,0,0,1,.63184-0.936,2.86755,2.86755,0,0,1,.95605-0.604,3.26688,3.26688,0,0,1,1.2002-.21631,3.42812,3.42812,0,0,1,1.21191.2002,2.5672,2.5672,0,0,1,.88379.53613Z"/><path class="c" d="M13.501,55.78564h1.94336a3.82922,3.82922,0,0,1,1.08789.16016,2.91493,2.91493,0,0,1,.98438.50391,2.59173,2.59173,0,0,1,.71191.87988,2.81529,2.81529,0,0,1,.27246,1.28809,2.73346,2.73346,0,0,1-.27246,1.26025,2.63944,2.63944,0,0,1-.71191.87988,3.06312,3.06312,0,0,1-.98437.52,3.58829,3.58829,0,0,1-1.08789.17188H13.501V55.78564Zm0.792,4.96826h0.99121a3.01591,3.01591,0,0,0,.94824-0.144,2.19625,2.19625,0,0,0,.752-0.416,1.85431,1.85431,0,0,0,.49219-0.67236,2.22416,2.22416,0,0,0,.17578-0.90381,2.287,2.287,0,0,0-.17578-0.92773,1.82363,1.82363,0,0,0-.49219-0.66846,2.18073,2.18073,0,0,0-.752-0.40771,3.08859,3.08859,0,0,0-.94824-0.14014H14.293v4.28027Z"/><path class="c" d="M19.74219,55.78564h1.72754a3.49528,3.49528,0,0,1,.832.09229,1.79477,1.79477,0,0,1,.63965.28369,1.28588,1.28588,0,0,1,.4082.48828,1.61786,1.61786,0,0,1,.14453.71191,1.5832,1.5832,0,0,1-.15625.728,1.3438,1.3438,0,0,1-.43262.49609,1.92482,1.92482,0,0,1-.65527.28369,3.477,3.477,0,0,1-.82031.09229H20.53418v2.48779h-0.792V55.78564Zm0.792,2.50391H21.374a2.54665,2.54665,0,0,0,.53125-0.05176,1.32916,1.32916,0,0,0,.4209-0.16016,0.74522,0.74522,0,0,0,.27148-0.28369,0.889,0.889,0,0,0,.0957-0.43213,0.84328,0.84328,0,0,0-.09961-0.42822,0.79476,0.79476,0,0,0-.27246-0.27979,1.1637,1.1637,0,0,0-.41113-0.15234,2.94348,2.94348,0,0,0-.52051-0.04395H20.53418v1.832Z"/><path class="c" d="M164.66211,11.24609a2.01441,2.01441,0,0,1-.49219.72021,2.26886,2.26886,0,0,1-.77148.46777,3.09862,3.09862,0,0,1-2.0127,0,2.19745,2.19745,0,0,1-.75977-0.46777,2.02183,2.02183,0,0,1-.47949-0.72021,2.4809,2.4809,0,0,1-.168-0.93213V6.78613h1.35938v3.416a1.57771,1.57771,0,0,0,.06055.43994,1.12373,1.12373,0,0,0,.18359.37207,0.8725,0.8725,0,0,0,.32813.26025,1.31348,1.31348,0,0,0,.98438,0,0.90981,0.90981,0,0,0,.332-0.26025,1.03733,1.03733,0,0,0,.18359-0.37207,1.6944,1.6944,0,0,0,.05566-0.43994v-3.416H164.834V10.314A2.44348,2.44348,0,0,1,164.66211,11.24609Z"/><path class="c" d="M169.73242,12.4502l-2.2793-3.7041h-0.02441l0.03223,3.7041h-1.32812V6.78613h1.55957l2.27246,3.69629h0.02441L169.957,6.78613h1.32813V12.4502h-1.55273Z"/><path class="c" d="M176.96387,9.54639a1.00114,1.00114,0,0,0-.17187-0.03223c-0.05566-.00537-0.11035-0.00781-0.16406-0.00781a0.93046,0.93046,0,0,0-.44336.0957,0.89809,0.89809,0,0,0-.28809.23145,0.873,0.873,0,0,0-.15625.29492,0.98115,0.98115,0,0,0-.04785.2793V12.4502h-1.3125V8.4707h1.26465V9.04688h0.01563a1.30179,1.30179,0,0,1,.43164-0.49951,1.11383,1.11383,0,0,1,.64844-0.19336,1.49366,1.49366,0,0,1,.15625.0083,0.60049,0.60049,0,0,1,.124.02393Z"/><path class="c" d="M181.69238,10.50635V10.666a1.50571,1.50571,0,0,1-.00781.15234h-2.8877a0.69874,0.69874,0,0,0,.09961.30371,0.86247,0.86247,0,0,0,.21582.23633,1.06261,1.06261,0,0,0,.63574.21191,1.10026,1.10026,0,0,0,.52832-0.11621,1.04149,1.04149,0,0,0,.35254-0.2998L181.54,11.73a1.84584,1.84584,0,0,1-.73926.62842,2.45323,2.45323,0,0,1-1.06836.21973,2.54733,2.54733,0,0,1-.84766-0.14014,2.06,2.06,0,0,1-.7002-0.40771,1.88286,1.88286,0,0,1-.47168-0.66016,2.20043,2.20043,0,0,1-.17285-0.896,2.23517,2.23517,0,0,1,.16895-0.88379,1.996,1.996,0,0,1,.45508-0.67236,2.04517,2.04517,0,0,1,.68066-0.42773,2.32781,2.32781,0,0,1,.84766-0.15186,2.15416,2.15416,0,0,1,.80859.14795,1.76739,1.76739,0,0,1,.63184.42773,2.00015,2.00015,0,0,1,.41211.68018A2.61851,2.61851,0,0,1,181.69238,10.50635Zm-1.208-.50439a0.786,0.786,0,0,0-.19629-0.53564,0.73774,0.73774,0,0,0-.58789-0.22412,0.99131,0.99131,0,0,0-.35156.06006,0.91764,0.91764,0,0,0-.28027.16406A0.81108,0.81108,0,0,0,178.877,9.71a0.69773,0.69773,0,0,0-.08008.292h1.6875Z"/><path class="c" d="M187.10449,10.44238a2.52157,2.52157,0,0,1-.12793.7998,2.07532,2.07532,0,0,1-.37207.67578,1.8341,1.8341,0,0,1-.59668.46826,1.76438,1.76438,0,0,1-.7998.17578,1.67564,1.67564,0,0,1-.69629-0.14795A1.24118,1.24118,0,0,1,184,12.01025h-0.01562v2.35986h-1.3125V8.46631h1.248V8.9541h0.02441a1.61661,1.61661,0,0,1,.50781-0.41992,1.5466,1.5466,0,0,1,.76367-0.18018A1.79918,1.79918,0,0,1,186,8.522a1.77131,1.77131,0,0,1,.5957.45605,2.074,2.074,0,0,1,.376.668A2.38937,2.38937,0,0,1,187.10449,10.44238Zm-1.27246,0a1.20133,1.20133,0,0,0-.05957-0.376,0.96168,0.96168,0,0,0-.17676-0.32422,0.87977,0.87977,0,0,0-.292-0.228,0.89923,0.89923,0,0,0-.40723-0.08789,0.88428,0.88428,0,0,0-.40039.08789,0.951,0.951,0,0,0-.2998.23193,1.07188,1.07188,0,0,0-.19238.32813,1.08261,1.08261,0,0,0,0,.752,1.07188,1.07188,0,0,0,.19238.32813,0.951,0.951,0,0,0,.2998.23193,0.88428,0.88428,0,0,0,.40039.08789,0.89923,0.89923,0,0,0,.40723-0.08789,0.85936,0.85936,0,0,0,.292-0.23193,1.00393,1.00393,0,0,0,.17676-0.332A1.24162,1.24162,0,0,0,185.832,10.44238Z"/><path class="c" d="M190.67578,9.54639a1.00113,1.00113,0,0,0-.17187-0.03223c-0.05566-.00537-0.11035-0.00781-0.16406-0.00781a0.93046,0.93046,0,0,0-.44336.0957,0.89809,0.89809,0,0,0-.28809.23145,0.873,0.873,0,0,0-.15625.29492,0.98116,0.98116,0,0,0-.04785.2793V12.4502h-1.3125V8.4707h1.26465V9.04688h0.01563a1.30179,1.30179,0,0,1,.43164-0.49951,1.11383,1.11383,0,0,1,.64844-0.19336,1.49366,1.49366,0,0,1,.15625.0083,0.60049,0.60049,0,0,1,.124.02393Z"/><path class="c" d="M195.4043,10.50635V10.666a1.50571,1.50571,0,0,1-.00781.15234h-2.8877a0.69874,0.69874,0,0,0,.09961.30371,0.86247,0.86247,0,0,0,.21582.23633,1.06261,1.06261,0,0,0,.63574.21191,1.10026,1.10026,0,0,0,.52832-0.11621,1.04149,1.04149,0,0,0,.35254-0.2998L195.252,11.73a1.84584,1.84584,0,0,1-.73926.62842,2.45323,2.45323,0,0,1-1.06836.21973,2.54732,2.54732,0,0,1-.84766-0.14014,2.06,2.06,0,0,1-.7002-0.40771,1.88286,1.88286,0,0,1-.47168-0.66016,2.20043,2.20043,0,0,1-.17285-0.896,2.23517,2.23517,0,0,1,.16895-0.88379A1.996,1.996,0,0,1,191.876,8.918a2.04517,2.04517,0,0,1,.68066-0.42773,2.32781,2.32781,0,0,1,.84766-0.15186,2.15416,2.15416,0,0,1,.80859.14795,1.76739,1.76739,0,0,1,.63184.42773,2.00015,2.00015,0,0,1,.41211.68018A2.61851,2.61851,0,0,1,195.4043,10.50635Zm-1.208-.50439A0.786,0.786,0,0,0,194,9.46631a0.73774,0.73774,0,0,0-.58789-0.22412,0.99131,0.99131,0,0,0-.35156.06006,0.91764,0.91764,0,0,0-.28027.16406,0.81108,0.81108,0,0,0-.19141.24365,0.69773,0.69773,0,0,0-.08008.292h1.6875Z"/><path class="c" d="M198.71777,9.64209a1.48861,1.48861,0,0,0-.376-0.25586,1.04259,1.04259,0,0,0-.45605-0.104,0.80763,0.80763,0,0,0-.34082.07178,0.253,0.253,0,0,0-.15527.248,0.246,0.246,0,0,0,.17188.24023,3.75093,3.75093,0,0,0,.55566.15967,3.05,3.05,0,0,1,.45215.13623,1.60446,1.60446,0,0,1,.41211.23193,1.127,1.127,0,0,1,.2959.35205,1.038,1.038,0,0,1,.1123.49609,1.23683,1.23683,0,0,1-.15234.63574,1.25616,1.25616,0,0,1-.39551.42041,1.72473,1.72473,0,0,1-.54883.23193,2.633,2.633,0,0,1-.60742.07178,3.00267,3.00267,0,0,1-.95605-0.15576,2.00493,2.00493,0,0,1-.78027-0.46l0.73633-.77637a1.468,1.468,0,0,0,.43164.32031,1.2009,1.2009,0,0,0,.54395.12793,0.71752,0.71752,0,0,0,.31641-0.07617,0.27351,0.27351,0,0,0,.15625-0.26807,0.28811,0.28811,0,0,0-.19238-0.272,3.49807,3.49807,0,0,0-.59961-0.18408,2.93048,2.93048,0,0,1-.416-0.12793,1.28822,1.28822,0,0,1-.37207-0.21582,1.07739,1.07739,0,0,1-.26855-0.33594,1.0289,1.0289,0,0,1-.10352-0.48A1.17147,1.17147,0,0,1,196.333,9.062a1.28675,1.28675,0,0,1,.39258-0.41162,1.73552,1.73552,0,0,1,.53223-0.23633,2.30632,2.30632,0,0,1,.5791-0.07568,2.80044,2.80044,0,0,1,.876.13965,1.88969,1.88969,0,0,1,.72461.42041Z"/><path class="c" d="M204.25391,10.50635V10.666a1.50571,1.50571,0,0,1-.00781.15234h-2.8877a0.69874,0.69874,0,0,0,.09961.30371,0.86247,0.86247,0,0,0,.21582.23633,1.06262,1.06262,0,0,0,.63574.21191,1.10026,1.10026,0,0,0,.52832-0.11621,1.04149,1.04149,0,0,0,.35254-0.2998L204.10156,11.73a1.84584,1.84584,0,0,1-.73926.62842,2.45323,2.45323,0,0,1-1.06836.21973,2.54732,2.54732,0,0,1-.84766-0.14014,2.06,2.06,0,0,1-.7002-0.40771,1.88285,1.88285,0,0,1-.47168-0.66016,2.20043,2.20043,0,0,1-.17285-0.896,2.23517,2.23517,0,0,1,.16895-0.88379,1.996,1.996,0,0,1,.45508-0.67236,2.04517,2.04517,0,0,1,.68066-0.42773,2.32781,2.32781,0,0,1,.84766-0.15186,2.15416,2.15416,0,0,1,.80859.14795,1.76739,1.76739,0,0,1,.63184.42773,2.00015,2.00015,0,0,1,.41211.68018A2.61851,2.61851,0,0,1,204.25391,10.50635Zm-1.208-.50439a0.786,0.786,0,0,0-.19629-0.53564,0.73774,0.73774,0,0,0-.58789-0.22412,0.99131,0.99131,0,0,0-.35156.06006,0.91764,0.91764,0,0,0-.28027.16406,0.81108,0.81108,0,0,0-.19141.24365,0.69773,0.69773,0,0,0-.08008.292h1.6875Z"/><path class="c" d="M207.83887,12.4502V10.27441a1.7769,1.7769,0,0,0-.02832-0.32031,0.87653,0.87653,0,0,0-.0918-0.26807,0.4818,0.4818,0,0,0-.17969-0.18408,0.57417,0.57417,0,0,0-.292-0.06787,0.67434,0.67434,0,0,0-.30859.06787,0.624,0.624,0,0,0-.21973.18848,0.84964,0.84964,0,0,0-.13184.27588,1.18825,1.18825,0,0,0-.04395.32373V12.4502h-1.32031V8.46631h1.27246V9.01807h0.01563a1.30144,1.30144,0,0,1,.18848-0.252,1.1333,1.1333,0,0,1,.27148-0.21191,1.73841,1.73841,0,0,1,.33984-0.144,1.3528,1.3528,0,0,1,.39258-0.05615,1.47481,1.47481,0,0,1,.67969.144,1.31039,1.31039,0,0,1,.45215.37207,1.47233,1.47233,0,0,1,.248.52393,2.37224,2.37224,0,0,1,.07617.59229V12.4502h-1.32031Z"/><path class="c" d="M211.75879,9.44238v1.52588a0.68444,0.68444,0,0,0,.1084.42139,0.46239,0.46239,0,0,0,.3877.14063,1.37459,1.37459,0,0,0,.2041-0.01611,0.70917,0.70917,0,0,0,.18066-0.04785l0.01563,0.96a2.18694,2.18694,0,0,1-.34375.084,2.443,2.443,0,0,1-.416.03613,1.95193,1.95193,0,0,1-.67187-0.10059,1.03913,1.03913,0,0,1-.43652-0.28857,1.14245,1.14245,0,0,1-.23633-0.44922,2.19076,2.19076,0,0,1-.07129-0.58154V9.44238h-0.64062V8.46631h0.63281V7.418h1.28711V8.46631h0.93652V9.44238h-0.93652Z"/><path class="c" d="M213.49219,9.01025a2.28746,2.28746,0,0,1,.82031-0.50391,2.79711,2.79711,0,0,1,.95605-0.168,2.54585,2.54585,0,0,1,.85156.124,1.26984,1.26984,0,0,1,.56445.38379A1.6406,1.6406,0,0,1,217,9.502a3.89093,3.89093,0,0,1,.10059.94043V12.4502h-1.2002V12.02637H215.876a0.99175,0.99175,0,0,1-.46.38379,1.63095,1.63095,0,0,1-.668.13623,2.05269,2.05269,0,0,1-.49609-0.064,1.465,1.465,0,0,1-.46777-0.208,1.116,1.116,0,0,1-.34766-0.38428,1.18407,1.18407,0,0,1-.13672-0.5918,1.00687,1.00687,0,0,1,.23633-0.69629,1.54755,1.54755,0,0,1,.6084-0.40771,3.21917,3.21917,0,0,1,.82715-0.19238,8.57554,8.57554,0,0,1,.88867-0.04785v-0.064a0.48854,0.48854,0,0,0-.208-0.436,0.8981,0.8981,0,0,0-.5127-0.14014,1.2683,1.2683,0,0,0-.53906.12012,1.7141,1.7141,0,0,0-.44434.28809Zm2.4082,1.7041h-0.168c-0.14453,0-.29.00635-0.43652,0.02a1.792,1.792,0,0,0-.3916.07568,0.72444,0.72444,0,0,0-.28418.16406,0.37586,0.37586,0,0,0-.1123.28418,0.34027,0.34027,0,0,0,.05273.19189,0.39306,0.39306,0,0,0,.13184.12793,0.54453,0.54453,0,0,0,.18359.06787,1.03048,1.03048,0,0,0,.2002.02,0.81261,0.81261,0,0,0,.6123-0.21973,0.8254,0.8254,0,0,0,.21191-0.59619V10.71436Z"/><path class="c" d="M219.66992,9.44238v1.52588a0.68444,0.68444,0,0,0,.1084.42139,0.46239,0.46239,0,0,0,.3877.14063,1.37459,1.37459,0,0,0,.2041-0.01611,0.70917,0.70917,0,0,0,.18066-0.04785l0.01563,0.96a2.18694,2.18694,0,0,1-.34375.084,2.443,2.443,0,0,1-.416.03613,1.95193,1.95193,0,0,1-.67187-0.10059,1.03913,1.03913,0,0,1-.43652-0.28857,1.14245,1.14245,0,0,1-.23633-0.44922,2.19076,2.19076,0,0,1-.07129-0.58154V9.44238H217.75V8.46631h0.63281V7.418h1.28711V8.46631h0.93652V9.44238h-0.93652Z"/><path class="c" d="M222.87891,7.19434a0.67635,0.67635,0,0,1-.05957.28369,0.72045,0.72045,0,0,1-.40039.38037,0.78019,0.78019,0,0,1-.292.05566,0.73188,0.73188,0,0,1-.53516-0.21191,0.70295,0.70295,0,0,1-.16016-0.78418,0.65072,0.65072,0,0,1,.16016-0.22754,0.83779,0.83779,0,0,1,.23926-0.15625,0.72529,0.72529,0,0,1,.2959-0.06006,0.78061,0.78061,0,0,1,.292.05615,0.72824,0.72824,0,0,1,.24023.15186,0.73914,0.73914,0,0,1,.16016.228A0.677,0.677,0,0,1,222.87891,7.19434Zm-1.40723,5.25586V8.46631h1.31152V12.4502h-1.31152Z"/><path class="c" d="M226.47461,12.4502h-1.416l-1.56738-3.98389h1.44824l0.83984,2.584h0.02344l0.83984-2.584H228.043Z"/><path class="c" d="M232.53809,10.50635V10.666a1.50571,1.50571,0,0,1-.00781.15234h-2.8877a0.69874,0.69874,0,0,0,.09961.30371,0.86247,0.86247,0,0,0,.21582.23633,1.06261,1.06261,0,0,0,.63574.21191,1.10026,1.10026,0,0,0,.52832-0.11621,1.04149,1.04149,0,0,0,.35254-0.2998L232.38574,11.73a1.84584,1.84584,0,0,1-.73926.62842,2.45323,2.45323,0,0,1-1.06836.21973,2.54732,2.54732,0,0,1-.84766-0.14014,2.06,2.06,0,0,1-.7002-0.40771,1.88286,1.88286,0,0,1-.47168-0.66016,2.20043,2.20043,0,0,1-.17285-0.896,2.23517,2.23517,0,0,1,.16895-0.88379,1.996,1.996,0,0,1,.45508-0.67236,2.04517,2.04517,0,0,1,.68066-0.42773,2.32781,2.32781,0,0,1,.84766-0.15186,2.15416,2.15416,0,0,1,.80859.14795,1.76739,1.76739,0,0,1,.63184.42773,2.00015,2.00015,0,0,1,.41211.68018A2.61851,2.61851,0,0,1,232.53809,10.50635Zm-1.208-.50439a0.786,0.786,0,0,0-.19629-0.53564,0.73774,0.73774,0,0,0-.58789-0.22412,0.99131,0.99131,0,0,0-.35156.06006,0.91764,0.91764,0,0,0-.28027.16406,0.81108,0.81108,0,0,0-.19141.24365,0.69773,0.69773,0,0,0-.08008.292h1.6875Z"/><path class="c" d="M164.12988,30.314h0.0166V25.78613h0.792V31.4502h-1l-2.99219-4.624h-0.01562v4.624h-0.792V25.78613h1.03125Z"/><path class="c" d="M168.79688,28.99414a0.75311,0.75311,0,0,0-.25586-0.62793,1.05866,1.05866,0,0,0-.67969-0.2041,1.49633,1.49633,0,0,0-.60449.124,1.53219,1.53219,0,0,0-.47559.31592l-0.40039-.48a2.026,2.026,0,0,1,.68457-0.416,2.44581,2.44581,0,0,1,.86719-0.15186,1.94863,1.94863,0,0,1,.708.11621,1.33552,1.33552,0,0,1,.49219.31592,1.28853,1.28853,0,0,1,.28809.47168,1.732,1.732,0,0,1,.0957.584v1.65625c0,0.12793.00488,0.2627,0.0127,0.40381a2.04164,2.04164,0,0,0,.04395.34814h-0.68066a2.40452,2.40452,0,0,1-.06348-0.54395h-0.02441a1.464,1.464,0,0,1-.52344.47217,1.57487,1.57487,0,0,1-.748.168,1.95172,1.95172,0,0,1-.46777-0.06006,1.35115,1.35115,0,0,1-.44434-0.19629,1.09636,1.09636,0,0,1-.332-0.35986,1.071,1.071,0,0,1-.13184-0.55176,0.97218,0.97218,0,0,1,.23145-0.68408,1.47777,1.47777,0,0,1,.6084-0.38428,3.44973,3.44973,0,0,1,.84766-0.17187q0.47314-.04028.95215-0.04v-0.104Zm-0.18359.64795q-0.27979,0-.58008.02393a2.68673,2.68673,0,0,0-.54395.09619,1.02725,1.02725,0,0,0-.4043.21582,0.49282,0.49282,0,0,0-.16016.38428,0.52573,0.52573,0,0,0,.06836.27979,0.56272,0.56272,0,0,0,.17969.18408,0.72848,0.72848,0,0,0,.248.1001,1.39912,1.39912,0,0,0,.28027.02783,1.03406,1.03406,0,0,0,.81152-0.31592,1.14538,1.14538,0,0,0,.28418-0.7959v-0.2002h-0.18359Z"/><path class="c" d="M172.084,27.76611a1.313,1.313,0,0,1,.748-0.21191,1.37217,1.37217,0,0,1,.69238.17578,1.18033,1.18033,0,0,1,.4834.584,1.35934,1.35934,0,0,1,.53613-0.564,1.59969,1.59969,0,0,1,1.38477-.07178,1.2767,1.2767,0,0,1,.43945.332,1.33966,1.33966,0,0,1,.25977.48779,2.05859,2.05859,0,0,1,.084.6001V31.4502H175.96v-2.104a2.27142,2.27142,0,0,0-.04-0.43994,1.10635,1.10635,0,0,0-.13574-0.36816,0.73363,0.73363,0,0,0-.25586-0.25586,0.78439,0.78439,0,0,0-.4082-0.09619,0.84761,0.84761,0,0,0-.43945.1084,0.90851,0.90851,0,0,0-.30078.27979,1.19757,1.19757,0,0,0-.168.38818,1.89526,1.89526,0,0,0-.05176.43994V31.4502h-0.752V29.19434a1.9479,1.9479,0,0,0-.04-0.4082,0.83262,0.83262,0,0,0-.13574-0.31592,0.6779,0.6779,0,0,0-.248-0.208,0.83454,0.83454,0,0,0-.376-0.07617,0.85791,0.85791,0,0,0-.69238.34033,1.39913,1.39913,0,0,0-.27539.90771V31.4502h-0.752V28.47412q0-.15161-0.00879-0.39209c-0.00488-.15967-0.0127-0.30127-0.02344-0.42383h0.71191q0.01611,0.14429.02344,0.32422,0.00879,0.17944.00879,0.2998H171.624A1.28759,1.28759,0,0,1,172.084,27.76611Z"/><path class="c" d="M181.65332,29.522v0.12842a0.9441,0.9441,0,0,1-.00879.12793h-3.01562a1.10321,1.10321,0,0,0,.1084.44873,1.17209,1.17209,0,0,0,.26758.36572,1.32491,1.32491,0,0,0,1.52051.16162,1.35437,1.35437,0,0,0,.43945-0.4082L181.49316,30.77a1.88909,1.88909,0,0,1-.71582.59375,2.29815,2.29815,0,0,1-1.7168.04639,1.85,1.85,0,0,1-.63184-0.40381,1.88139,1.88139,0,0,1-.416-0.62793,2.11614,2.11614,0,0,1-.15137-0.81641,2.17922,2.17922,0,0,1,.14746-0.812,1.841,1.841,0,0,1,1.03906-1.04785,2.14514,2.14514,0,0,1,1.53516-.01172,1.5689,1.5689,0,0,1,.57715.3916,1.76473,1.76473,0,0,1,.36426.62012A2.446,2.446,0,0,1,181.65332,29.522Zm-0.76855-.30371a1.39517,1.39517,0,0,0-.07617-0.41992,0.92213,0.92213,0,0,0-.52734-0.56836,1.16824,1.16824,0,0,0-.46-0.084,1.22,1.22,0,0,0-.45215.084,1.17421,1.17421,0,0,0-.36816.228,1.18807,1.18807,0,0,0-.25586.34033,1.07169,1.07169,0,0,0-.11621.41992h2.25586Z"/><path class="c" d="M164.41016,41.9541a1.83972,1.83972,0,0,0-.65234-0.44775,2.235,2.235,0,0,0-.88379-0.168,2.16166,2.16166,0,0,0-.89551.17969,2.01253,2.01253,0,0,0-.68066.49219,2.22892,2.22892,0,0,0-.43164.72412,2.50339,2.50339,0,0,0-.15234.876,2.56126,2.56126,0,0,0,.15234.8877,2.174,2.174,0,0,0,.43164.72412,1.9615,1.9615,0,0,0,.68848.48389,2.27307,2.27307,0,0,0,.91211.17627,3.48365,3.48365,0,0,0,.73535-0.07227,2.12458,2.12458,0,0,0,.584-0.208V44.02637h-1.25586V43.354h2.04v2.74414a4.11015,4.11015,0,0,1-.97559.36816,4.91129,4.91129,0,0,1-1.15234.12793,3.279,3.279,0,0,1-1.21973-.22021,2.7555,2.7555,0,0,1-1.58008-1.56006,3.1499,3.1499,0,0,1-.22363-1.20361,3.11761,3.11761,0,0,1,.22754-1.21191,2.73268,2.73268,0,0,1,.63184-0.936,2.86755,2.86755,0,0,1,.95605-0.604,3.26688,3.26688,0,0,1,1.2002-.21631,3.42812,3.42812,0,0,1,1.21191.2002,2.5672,2.5672,0,0,1,.88379.53613Z"/><path class="c" d="M170.01855,44.522v0.12842a0.9441,0.9441,0,0,1-.00879.12793h-3.01562a1.10321,1.10321,0,0,0,.1084.44873,1.17209,1.17209,0,0,0,.26758.36572,1.32491,1.32491,0,0,0,1.52051.16162,1.35437,1.35437,0,0,0,.43945-0.4082L169.8584,45.77a1.88909,1.88909,0,0,1-.71582.59375,2.29815,2.29815,0,0,1-1.7168.04639,1.85,1.85,0,0,1-.63184-0.40381,1.88139,1.88139,0,0,1-.416-0.62793,2.11614,2.11614,0,0,1-.15137-0.81641,2.17923,2.17923,0,0,1,.14746-0.812,1.841,1.841,0,0,1,1.03906-1.04785,2.14514,2.14514,0,0,1,1.53516-.01172,1.5689,1.5689,0,0,1,.57715.3916,1.76473,1.76473,0,0,1,.36426.62012A2.446,2.446,0,0,1,170.01855,44.522ZM169.25,44.21826a1.39517,1.39517,0,0,0-.07617-0.41992,0.92213,0.92213,0,0,0-.52734-0.56836,1.16824,1.16824,0,0,0-.46-0.084,1.22,1.22,0,0,0-.45215.084,1.17421,1.17421,0,0,0-.36816.228,1.18808,1.18808,0,0,0-.25586.34033,1.07169,1.07169,0,0,0-.11621.41992H169.25Z"/><path class="c" d="M171.86133,42.6582q0.01611,0.14429.02344,0.32422,0.00879,0.17944.00879,0.2998H171.917a1.10649,1.10649,0,0,1,.19629-0.28418,1.42046,1.42046,0,0,1,.28418-0.23193,1.39513,1.39513,0,0,1,.35156-0.15576,1.41418,1.41418,0,0,1,.40039-0.05615,1.47748,1.47748,0,0,1,.63184.124,1.28977,1.28977,0,0,1,.44043.332,1.35451,1.35451,0,0,1,.25977.48779,2.09208,2.09208,0,0,1,.084.6001V46.4502h-0.752v-2.104a2.6351,2.6351,0,0,0-.03613-0.43994,1.08153,1.08153,0,0,0-.13184-0.36816,0.71984,0.71984,0,0,0-.26465-0.25586,0.86131,0.86131,0,0,0-.43164-0.09619,0.91147,0.91147,0,0,0-.73242.34033,1.36936,1.36936,0,0,0-.2832.90771V46.4502h-0.752V43.47412q0-.15161-0.00879-0.39209c-0.00488-.15967-0.0127-0.30127-0.02344-0.42383h0.71191Z"/><path class="c" d="M178.98438,45.8501a1.39241,1.39241,0,0,1-.58789.52393,1.76753,1.76753,0,0,1-.78027.18018,1.94613,1.94613,0,0,1-.792-0.15576,1.77473,1.77473,0,0,1-.59961-0.42822,1.91967,1.91967,0,0,1-.38379-0.64014,2.23771,2.23771,0,0,1-.13672-0.78369,2.20889,2.20889,0,0,1,.13672-0.78027,1.89022,1.89022,0,0,1,.3877-0.63574,1.76882,1.76882,0,0,1,.60352-0.42432,1.94715,1.94715,0,0,1,.77637-0.15186,1.60332,1.60332,0,0,1,.80762.1958,1.68147,1.68147,0,0,1,.54492.47607h0.01563V40.40234h0.752V46.4502H179.001V45.8501h-0.0166Zm-2.49609-1.2998a1.63511,1.63511,0,0,0,.08008.51025,1.31451,1.31451,0,0,0,.24023.439,1.259,1.259,0,0,0,1.46.311,1.2686,1.2686,0,0,0,.4043-0.29932,1.36161,1.36161,0,0,0,.25977-0.43457,1.51054,1.51054,0,0,0,0-1.03711,1.41323,1.41323,0,0,0-.25977-0.43848,1.24422,1.24422,0,0,0-.4043-0.30322,1.21336,1.21336,0,0,0-.52441-0.11182,1.24643,1.24643,0,0,0-.54395.11182,1.165,1.165,0,0,0-.3916.30322,1.31221,1.31221,0,0,0-.24023.43848A1.63815,1.63815,0,0,0,176.48828,44.55029Z"/><path class="c" d="M184.708,44.522v0.12842a0.94412,0.94412,0,0,1-.00879.12793h-3.01562a1.10321,1.10321,0,0,0,.1084.44873,1.17209,1.17209,0,0,0,.26758.36572,1.32491,1.32491,0,0,0,1.52051.16162,1.35436,1.35436,0,0,0,.43945-0.4082L184.54785,45.77a1.88909,1.88909,0,0,1-.71582.59375,2.29815,2.29815,0,0,1-1.7168.04639,1.85,1.85,0,0,1-.63184-0.40381,1.88139,1.88139,0,0,1-.416-0.62793A2.11614,2.11614,0,0,1,180.916,44.562a2.17923,2.17923,0,0,1,.14746-0.812,1.841,1.841,0,0,1,1.03906-1.04785,2.14514,2.14514,0,0,1,1.53516-.01172,1.5689,1.5689,0,0,1,.57715.3916,1.76473,1.76473,0,0,1,.36426.62012A2.446,2.446,0,0,1,184.708,44.522Zm-0.76855-.30371a1.39517,1.39517,0,0,0-.07617-0.41992,0.92213,0.92213,0,0,0-.52734-0.56836,1.16824,1.16824,0,0,0-.46-0.084,1.22,1.22,0,0,0-.45215.084,1.17421,1.17421,0,0,0-.36816.228,1.18807,1.18807,0,0,0-.25586.34033,1.07169,1.07169,0,0,0-.11621.41992h2.25586Z"/><path class="c" d="M185.8623,43.082c-0.00488-.15967-0.0127-0.30127-0.02344-0.42383h0.71191c0.01074,0.09619.01855,0.20654,0.02344,0.332q0.00879,0.18823.00879,0.30811h0.02344a1.30979,1.30979,0,0,1,.46777-0.54,1.22689,1.22689,0,0,1,.69238-0.2041,1.15976,1.15976,0,0,1,.2959.03223l-0.03223.6958a1.40029,1.40029,0,0,0-.34375-0.04,1.0369,1.0369,0,0,0-.47168.1001,0.95791,0.95791,0,0,0-.332.26807,1.1394,1.1394,0,0,0-.19629.3877,1.63031,1.63031,0,0,0-.06348.46V46.4502h-0.752V43.47412Q185.87109,43.32251,185.8623,43.082Z"/><path class="c" d="M160.37012,61.4502h-0.87988l2.45605-5.66406H162.666l2.43262,5.66406h-0.89648L163.626,60.05811h-2.6875Zm0.84766-2.08789h2.12012l-1.05566-2.65625Z"/><path class="c" d="M166.17969,62.09814a1.81352,1.81352,0,0,0,.62012.44824,1.83487,1.83487,0,0,0,.76367.168,1.62234,1.62234,0,0,0,.63184-0.1084,1.056,1.056,0,0,0,.41211-0.2959,1.14477,1.14477,0,0,0,.22363-0.44385,2.12307,2.12307,0,0,0,.06836-0.55225V60.82617h-0.01562a1.3381,1.3381,0,0,1-.56836.48779,1.79151,1.79151,0,0,1-.76855.16846,1.98142,1.98142,0,0,1-.78711-0.15234,1.76292,1.76292,0,0,1-.60449-0.416,1.87194,1.87194,0,0,1-.38379-0.61963,2.12012,2.12012,0,0,1-.13574-0.76416,2.15093,2.15093,0,0,1,.13574-0.76807,1.90964,1.90964,0,0,1,.38379-0.62793,1.79879,1.79879,0,0,1,.59961-0.42432,1.917,1.917,0,0,1,.78418-0.15576,1.80408,1.80408,0,0,1,.78027.17578,1.344,1.344,0,0,1,.58789.53613h0.0166V57.6582h0.72754v3.6001a3.00192,3.00192,0,0,1-.10449.7959,1.73283,1.73283,0,0,1-.35156.67188,1.76054,1.76054,0,0,1-.64844.46826,2.46369,2.46369,0,0,1-.99121.17578,2.93044,2.93044,0,0,1-.99609-0.17969,2.53369,2.53369,0,0,1-.86035-0.5083Zm0.22363-2.584a1.52,1.52,0,0,0,.084.50391,1.24226,1.24226,0,0,0,.64648.72021,1.20683,1.20683,0,0,0,.5293.11182,1.32752,1.32752,0,0,0,.53027-0.104,1.21725,1.21725,0,0,0,.40918-0.28369,1.26927,1.26927,0,0,0,.26074-0.42432,1.46671,1.46671,0,0,0,.0918-0.52393,1.41634,1.41634,0,0,0-.0918-0.51221,1.2841,1.2841,0,0,0-.67383-0.71582,1.34487,1.34487,0,0,0-1.05566,0,1.235,1.235,0,0,0-.39746.28809,1.21473,1.21473,0,0,0-.249.42383A1.58627,1.58627,0,0,0,166.40332,59.51416Z"/><path class="c" d="M174.62793,59.522v0.12842a0.9441,0.9441,0,0,1-.00879.12793h-3.01562a1.10321,1.10321,0,0,0,.1084.44873,1.17209,1.17209,0,0,0,.26758.36572,1.32491,1.32491,0,0,0,1.52051.16162,1.35437,1.35437,0,0,0,.43945-0.4082L174.46777,60.77a1.88909,1.88909,0,0,1-.71582.59375,2.29815,2.29815,0,0,1-1.7168.04639,1.85,1.85,0,0,1-.63184-0.40381,1.88139,1.88139,0,0,1-.416-0.62793,2.11614,2.11614,0,0,1-.15137-0.81641,2.17923,2.17923,0,0,1,.14746-0.812,1.841,1.841,0,0,1,1.03906-1.04785,2.14514,2.14514,0,0,1,1.53516-.01172,1.5689,1.5689,0,0,1,.57715.3916,1.76473,1.76473,0,0,1,.36426.62012A2.446,2.446,0,0,1,174.62793,59.522Zm-0.76855-.30371a1.39517,1.39517,0,0,0-.07617-0.41992,0.92213,0.92213,0,0,0-.52734-0.56836,1.16824,1.16824,0,0,0-.46-0.084,1.22,1.22,0,0,0-.45215.084,1.17421,1.17421,0,0,0-.36816.228,1.18808,1.18808,0,0,0-.25586.34033,1.07169,1.07169,0,0,0-.11621.41992h2.25586Z"/><circle class="d" cx="103.95003" cy="27.67504" r="4.5"/></svg>