<svg xmlns="http://www.w3.org/2000/svg" viewBox="0 0 243.9 69.53"><defs><style>.a{fill:#abddf3;}.a,.b{stroke:#3d4752;stroke-miterlimit:10;stroke-width:0.9px;}.b{fill:none;}.c{fill:#3d4752;}</style></defs><title>un-representative</title><path class="a" d="M90.45,2.7V18.45h-90V2.7A2.23,2.23,0,0,1,2.66.45H88.2A2.26,2.26,0,0,1,90.45,2.7Z" transform="translate(0 0)"/><path class="b" d="M90.45,18.45V66.83a2.29,2.29,0,0,1-2.25,2.25H2.7A2.26,2.26,0,0,1,.45,66.83V18.45h90Z" transform="translate(0 0)"/><path class="a" d="M243.45,2.93V18.68h-90V2.93A2.23,2.23,0,0,1,155.66.68H241.2A2.26,2.26,0,0,1,243.45,2.93Z" transform="translate(0 0)"/><path class="b" d="M243.45,18.68V66.83a2.29,2.29,0,0,1-2.25,2.25H155.7a2.25,2.25,0,0,1-2.25-2.25V18.68h90Z" transform="translate(0 0)"/><polyline class="b" points="90.45 27.68 121.95 27.68 153.45 27.68"/><rect class="c" x="94.5" y="23.18" width="0.9" height="9"/><rect class="c" x="143.55" y="23.18" width="0.9" height="9"/><path class="c" d="M11.09,12.35a3,3,0,0,1-1.27.25,3.31,3.31,0,0,1-1.21-.22A2.8,2.8,0,0,1,7,10.83,3.33,3.33,0,0,1,7,8.38a2.74,2.74,0,0,1,.65-0.94,2.89,2.89,0,0,1,1-.6,3.5,3.5,0,0,1,2.39,0,2.26,2.26,0,0,1,.94.62L11,8.39A1.15,1.15,0,0,0,10.53,8a1.68,1.68,0,0,0-.64-0.13A1.62,1.62,0,0,0,9.23,8a1.55,1.55,0,0,0-.52.36,1.67,1.67,0,0,0-.34.55,1.93,1.93,0,0,0-.12.69,2,2,0,0,0,.12.7,1.64,1.64,0,0,0,.33.55,1.5,1.5,0,0,0,.51.36,1.62,1.62,0,0,0,.65.13,1.5,1.5,0,0,0,.71-0.16,1.38,1.38,0,0,0,.49-0.42l1,0.9A2.7,2.7,0,0,1,11.09,12.35Z" transform="translate(0 0)"/><path class="c" d="M16.91,10.44a2.14,2.14,0,0,1-.18.88,2,2,0,0,1-.48.67,2.21,2.21,0,0,1-.7.43,2.48,2.48,0,0,1-1.71,0,2.14,2.14,0,0,1-.7-0.43,2,2,0,0,1-.48-0.67,2.16,2.16,0,0,1-.18-0.88,2.13,2.13,0,0,1,.18-0.88,2,2,0,0,1,.48-0.66,2.06,2.06,0,0,1,.7-0.42,2.6,2.6,0,0,1,1.71,0,2.12,2.12,0,0,1,.7.42,2,2,0,0,1,.48.66A2.12,2.12,0,0,1,16.91,10.44Zm-1.26,0a1.15,1.15,0,0,0-.06-0.38,1,1,0,0,0-.18-0.32,0.94,0.94,0,0,0-.3-0.23,1,1,0,0,0-.82,0,0.88,0.88,0,0,0-.29.23,1,1,0,0,0-.18.32,1.22,1.22,0,0,0,0,.75,1,1,0,0,0,.18.33,0.89,0.89,0,0,0,.3.24,1,1,0,0,0,.82,0,0.88,0.88,0,0,0,.3-0.24,1,1,0,0,0,.18-0.33A1.2,1.2,0,0,0,15.65,10.44Z" transform="translate(0 0)"/><path class="c" d="M20.51,12.45V11.9h0a1.14,1.14,0,0,1-.19.26,1.18,1.18,0,0,1-.27.21,1.7,1.7,0,0,1-.34.14,1.39,1.39,0,0,1-.4.06,1.44,1.44,0,0,1-.68-0.14A1.3,1.3,0,0,1,18.17,12a1.48,1.48,0,0,1-.25-0.52,2.35,2.35,0,0,1-.08-0.6V8.47h1.32v2.16a2,2,0,0,0,0,.32,0.78,0.78,0,0,0,.09.27,0.51,0.51,0,0,0,.18.19,0.57,0.57,0,0,0,.3.07,0.6,0.6,0,0,0,.52-0.26,1,1,0,0,0,.18-0.6V8.47h1.31v4H20.51Z" transform="translate(0 0)"/><path class="c" d="M25.56,12.45V10.27a1.78,1.78,0,0,0,0-.32,0.88,0.88,0,0,0-.09-0.27,0.48,0.48,0,0,0-.18-0.18A0.57,0.57,0,0,0,25,9.43a0.67,0.67,0,0,0-.31.07,0.62,0.62,0,0,0-.22.19,0.85,0.85,0,0,0-.13.28,1.19,1.19,0,0,0,0,.32v2.16H22.95v-4h1.27V9h0a1.3,1.3,0,0,1,.19-0.25,1.13,1.13,0,0,1,.27-0.21A1.74,1.74,0,0,1,25,8.41a1.35,1.35,0,0,1,.39-0.06,1.47,1.47,0,0,1,.68.14,1.31,1.31,0,0,1,.45.37,1.47,1.47,0,0,1,.25.52,2.37,2.37,0,0,1,.08.59v2.46H25.56Z" transform="translate(0 0)"/><path class="c" d="M29.48,9.44V11a0.68,0.68,0,0,0,.11.42,0.46,0.46,0,0,0,.39.14l0.2,0,0.18,0,0,1L30,12.51a2.44,2.44,0,0,1-.42,0,2,2,0,0,1-.67-0.1,1,1,0,0,1-.44-0.29,1.14,1.14,0,0,1-.24-0.45,2.19,2.19,0,0,1-.07-0.58V9.44H27.56v-1H28.2v-1h1.29v1h0.94v1H29.48Z" transform="translate(0 0)"/><path class="c" d="M33.88,9.55l-0.17,0H33.54a0.93,0.93,0,0,0-.44.1,0.9,0.9,0,0,0-.29.23,0.87,0.87,0,0,0-.16.29,1,1,0,0,0,0,.28v2H31.3v-4h1.26V9h0A1.3,1.3,0,0,1,33,8.55a1.11,1.11,0,0,1,.65-0.19h0.16l0.12,0Z" transform="translate(0 0)"/><path class="c" d="M37.14,13a3.48,3.48,0,0,1-.27.56,1.65,1.65,0,0,1-.35.42,1.39,1.39,0,0,1-.48.26,2.16,2.16,0,0,1-.65.09l-0.38,0-0.34-.06,0.14-1.1L35,13.23l0.21,0a0.59,0.59,0,0,0,.44-0.14,1.15,1.15,0,0,0,.23-0.4L36,12.39,34.37,8.47h1.46L36.72,11h0l0.79-2.56h1.39Z" transform="translate(0 0)"/><path class="c" d="M10,26.83a1.27,1.27,0,0,0-.46-0.38,1.4,1.4,0,0,0-.65-0.15,1.52,1.52,0,0,0-.39.05,1.05,1.05,0,0,0-.36.17,0.92,0.92,0,0,0-.26.29,0.8,0.8,0,0,0-.1.41,0.75,0.75,0,0,0,.09.39,0.85,0.85,0,0,0,.25.26,1.58,1.58,0,0,0,.37.18l0.45,0.16,0.58,0.2a2.12,2.12,0,0,1,.54.3,1.46,1.46,0,0,1,.39.46,1.44,1.44,0,0,1,.15.7,1.67,1.67,0,0,1-.16.76,1.57,1.57,0,0,1-.44.54,1.85,1.85,0,0,1-.63.32,2.6,2.6,0,0,1-.73.1,2.67,2.67,0,0,1-1-.21,2.06,2.06,0,0,1-.83-0.62l0.62-.52A1.52,1.52,0,0,0,9,30.86a1.14,1.14,0,0,0,.36-0.18,1,1,0,0,0,.27-0.3,0.86,0.86,0,0,0,.1-0.44,0.79,0.79,0,0,0-.11-0.43,1,1,0,0,0-.29-0.29A2,2,0,0,0,8.93,29l-0.52-.17a4.56,4.56,0,0,1-.54-0.2,1.87,1.87,0,0,1-.47-0.3,1.36,1.36,0,0,1-.34-0.44,1.5,1.5,0,0,1-.13-0.66,1.46,1.46,0,0,1,.17-0.73A1.56,1.56,0,0,1,7.57,26a1.85,1.85,0,0,1,.62-0.29,2.71,2.71,0,0,1,.7-0.09,2.44,2.44,0,0,1,.93.18,1.85,1.85,0,0,1,.7.47Z" transform="translate(0 0)"/><path class="c" d="M12.64,26.29a0.45,0.45,0,0,1-.15.34,0.5,0.5,0,0,1-.35.14,0.48,0.48,0,0,1-.35-0.14,0.46,0.46,0,0,1-.14-0.34,0.47,0.47,0,0,1,.14-0.35,0.48,0.48,0,0,1,.35-0.14,0.49,0.49,0,0,1,.35.14A0.46,0.46,0,0,1,12.64,26.29Zm-0.12,5.16H11.77V27.66h0.75v3.79Z" transform="translate(0 0)"/><path class="c" d="M16.62,28.27l-2.16,2.54h2.25v0.63H13.54V30.83l2.14-2.56h-2V27.66h3v0.62h0Z" transform="translate(0 0)"/><path class="c" d="M21.21,29.52v0.13a0.94,0.94,0,0,1,0,.13h-3a1.1,1.1,0,0,0,.11.45,1.17,1.17,0,0,0,.27.37,1.32,1.32,0,0,0,1.52.16,1.35,1.35,0,0,0,.44-0.41L21,30.77a1.89,1.89,0,0,1-.72.59,2.3,2.3,0,0,1-1.72,0A1.85,1.85,0,0,1,18,31a1.88,1.88,0,0,1-.42-0.63,2.12,2.12,0,0,1-.15-0.82,2.18,2.18,0,0,1,.15-0.81,1.84,1.84,0,0,1,1-1,2.15,2.15,0,0,1,1.54,0,1.57,1.57,0,0,1,.58.39,1.76,1.76,0,0,1,.36.62A2.45,2.45,0,0,1,21.21,29.52Zm-0.77-.3a1.4,1.4,0,0,0-.08-0.42,0.92,0.92,0,0,0-.53-0.57,1.17,1.17,0,0,0-.46-0.08,1.22,1.22,0,0,0-.45.08,1.17,1.17,0,0,0-.37.23,1.19,1.19,0,0,0-.26.34,1.07,1.07,0,0,0-.12.42h2.26Z" transform="translate(0 0)"/><path class="c" d="M24.55,29.15a5.35,5.35,0,0,0,.28,1.72,5.53,5.53,0,0,0,.75,1.49L25,32.71a6.06,6.06,0,0,1-.85-1.63,6,6,0,0,1,0-3.86A6.06,6.06,0,0,1,25,25.59l0.54,0.35a5.54,5.54,0,0,0-.75,1.49A5.35,5.35,0,0,0,24.55,29.15Z" transform="translate(0 0)"/><path class="c" d="M28.66,28.62a1,1,0,0,0-.36-0.34,1,1,0,0,0-.52-0.13l-0.26,0a0.75,0.75,0,0,0-.23.09,0.49,0.49,0,0,0-.16.15,0.41,0.41,0,0,0-.06.23,0.38,0.38,0,0,0,.22.36,2.64,2.64,0,0,0,.65.21,4.11,4.11,0,0,1,.5.15,1.57,1.57,0,0,1,.4.22,1,1,0,0,1,.27.32,0.93,0.93,0,0,1,.1.43,1.17,1.17,0,0,1-.13.57,1.13,1.13,0,0,1-.34.38,1.39,1.39,0,0,1-.48.21,2.45,2.45,0,0,1-.56.06,2.23,2.23,0,0,1-.84-0.17,1.65,1.65,0,0,1-.68-0.51l0.54-.46a1.23,1.23,0,0,0,.42.38,1.17,1.17,0,0,0,.59.15l0.28,0a0.77,0.77,0,0,0,.24-0.09,0.5,0.5,0,0,0,.17-0.17,0.5,0.5,0,0,0,.06-0.26A0.42,0.42,0,0,0,28.22,30a3.41,3.41,0,0,0-.74-0.24l-0.39-.12a1.3,1.3,0,0,1-.36-0.19,0.93,0.93,0,0,1-.26-0.3,0.91,0.91,0,0,1-.1-0.44,1,1,0,0,1,.12-0.52,1.07,1.07,0,0,1,.32-0.36,1.43,1.43,0,0,1,.46-0.21,2.07,2.07,0,0,1,.53-0.07,2,2,0,0,1,.79.16,1.3,1.3,0,0,1,.59.46Z" transform="translate(0 0)"/><path class="c" d="M33.33,30.88a1.4,1.4,0,0,1-.57.5,1.75,1.75,0,0,1-.77.18,2,2,0,0,1-.79-0.16A1.77,1.77,0,0,1,30.6,31a1.92,1.92,0,0,1-.38-0.64,2.24,2.24,0,0,1-.14-0.78,2.21,2.21,0,0,1,.14-0.78,1.89,1.89,0,0,1,.39-0.64,1.77,1.77,0,0,1,.6-0.42A2,2,0,0,1,32,27.55a1.68,1.68,0,0,1,.82.2,1.47,1.47,0,0,1,.55.5h0V27.66H34.1v5.71H33.35V30.88h0Zm-2.47-1.34a1.64,1.64,0,0,0,.08.51,1.31,1.31,0,0,0,.24.44,1.24,1.24,0,0,0,1.86,0,1.37,1.37,0,0,0,.26-0.44,1.52,1.52,0,0,0,0-1A1.42,1.42,0,0,0,33,28.59a1.24,1.24,0,0,0-.4-0.3,1.21,1.21,0,0,0-.52-0.11,1.24,1.24,0,0,0-.54.11,1.16,1.16,0,0,0-.39.3,1.32,1.32,0,0,0-.24.44A1.65,1.65,0,0,0,30.86,29.55Z" transform="translate(0 0)"/><path class="c" d="M36.46,31a0.52,0.52,0,0,1-.15.37,0.51,0.51,0,0,1-.38.16,0.52,0.52,0,0,1-.38-0.16A0.5,0.5,0,0,1,35.39,31a0.53,0.53,0,0,1,.52-0.53h0a0.52,0.52,0,0,1,.38.15A0.5,0.5,0,0,1,36.46,31Z" transform="translate(0 0)"/><path class="c" d="M40.81,27.77a1.31,1.31,0,0,1,.75-0.21,1.37,1.37,0,0,1,.69.18,1.18,1.18,0,0,1,.48.58,1.36,1.36,0,0,1,.54-0.56,1.6,1.6,0,0,1,1.38-.07,1.28,1.28,0,0,1,.44.33,1.34,1.34,0,0,1,.26.49,2.06,2.06,0,0,1,.08.6v2.35H44.68v-2.1a2.27,2.27,0,0,0,0-.44,1.11,1.11,0,0,0-.14-0.37,0.73,0.73,0,0,0-.26-0.26,0.78,0.78,0,0,0-.41-0.1,0.85,0.85,0,0,0-.44.11,0.91,0.91,0,0,0-.3.28,1.2,1.2,0,0,0-.17.39,1.9,1.9,0,0,0-.05.44v2H42.13V29.19a2,2,0,0,0,0-.41A0.83,0.83,0,0,0,42,28.47a0.68,0.68,0,0,0-.25-0.21,0.83,0.83,0,0,0-.38-0.08,0.86,0.86,0,0,0-.69.34,1.4,1.4,0,0,0-.28.91v2H39.61v-3q0-.15,0-0.39c0-.16,0-0.3,0-0.42h0.71q0,0.14,0,.32t0,0.3h0A1.29,1.29,0,0,1,40.81,27.77Z" transform="translate(0 0)"/><path class="c" d="M47.68,26.29a0.45,0.45,0,0,1-.15.34,0.5,0.5,0,0,1-.35.14,0.48,0.48,0,0,1-.35-0.14,0.46,0.46,0,0,1-.14-0.34,0.47,0.47,0,0,1,.14-0.35,0.48,0.48,0,0,1,.35-0.14,0.49,0.49,0,0,1,.35.14A0.46,0.46,0,0,1,47.68,26.29Zm-0.12,5.16H46.81V27.66h0.75v3.79Z" transform="translate(0 0)"/><path class="c" d="M49.79,29.15a5.37,5.37,0,0,0-.28-1.72,5.57,5.57,0,0,0-.75-1.49l0.54-.35a6.06,6.06,0,0,1,.85,1.63,6,6,0,0,1,0,3.86,6.06,6.06,0,0,1-.85,1.63l-0.54-.35a5.56,5.56,0,0,0,.75-1.49A5.37,5.37,0,0,0,49.79,29.15Z" transform="translate(0 0)"/><path class="c" d="M12.85,43.61a3.1,3.1,0,0,1-.23,1.2,2.86,2.86,0,0,1-.63.94,2.82,2.82,0,0,1-1,.62,3.21,3.21,0,0,1-1.2.22,3.17,3.17,0,0,1-1.2-.22,2.77,2.77,0,0,1-1.57-1.56,3.37,3.37,0,0,1,0-2.42,2.71,2.71,0,0,1,.62-0.94,2.83,2.83,0,0,1,.95-0.6,3.23,3.23,0,0,1,1.2-.22,3.26,3.26,0,0,1,1.2.22,2.82,2.82,0,0,1,1,.6,2.77,2.77,0,0,1,.63.94A3.12,3.12,0,0,1,12.85,43.61Zm-0.86,0a2.5,2.5,0,0,0-.15-0.88A2.21,2.21,0,0,0,11.41,42a2,2,0,0,0-.68-0.49,2.14,2.14,0,0,0-.89-0.18,2.12,2.12,0,0,0-.88.18,2,2,0,0,0-.67.49,2.25,2.25,0,0,0-.43.72,2.5,2.5,0,0,0-.15.88,2.56,2.56,0,0,0,.15.89,2.16,2.16,0,0,0,.43.72,2,2,0,0,0,.67.48,2.12,2.12,0,0,0,.88.18,2.18,2.18,0,0,0,.89-0.18,2,2,0,0,0,.68-0.48,2.16,2.16,0,0,0,.43-0.72A2.56,2.56,0,0,0,12,43.61Z" transform="translate(0 0)"/><path class="c" d="M16,43.27H15.1v3.18H14.35V43.27H13.6V42.66h0.75V41.87a2.39,2.39,0,0,1,.08-0.62,1.28,1.28,0,0,1,.25-0.49,1.18,1.18,0,0,1,.44-0.33,1.58,1.58,0,0,1,.65-0.12,1.76,1.76,0,0,1,.47.06L16.15,41,16,41l-0.2,0a0.69,0.69,0,0,0-.35.08,0.54,0.54,0,0,0-.2.2,0.83,0.83,0,0,0-.1.29,2.26,2.26,0,0,0,0,.34v0.79H16v0.62h0Z" transform="translate(0 0)"/><path class="c" d="M18.94,43.27H18.06v3.18H17.31V43.27H16.55V42.66h0.75V41.87a2.39,2.39,0,0,1,.08-0.62,1.28,1.28,0,0,1,.25-0.49,1.18,1.18,0,0,1,.44-0.33,1.58,1.58,0,0,1,.65-0.12,1.76,1.76,0,0,1,.47.06L19.11,41l-0.18,0-0.2,0a0.69,0.69,0,0,0-.35.08,0.54,0.54,0,0,0-.2.2,0.83,0.83,0,0,0-.1.29,2.26,2.26,0,0,0,0,.34v0.79h0.88v0.62h0Zm1.62-2a0.45,0.45,0,0,1-.15.34,0.5,0.5,0,0,1-.35.14,0.48,0.48,0,0,1-.35-0.14,0.46,0.46,0,0,1-.14-0.34,0.47,0.47,0,0,1,.14-0.35,0.48,0.48,0,0,1,.35-0.14,0.49,0.49,0,0,1,.35.14A0.46,0.46,0,0,1,20.55,41.29Zm-0.12,5.16H19.68V42.66h0.75v3.79Z" transform="translate(0 0)"/><path class="c" d="M24.51,43.62a0.93,0.93,0,0,0-.36-0.31,1.1,1.1,0,0,0-.51-0.12,1.17,1.17,0,0,0-.52.11,1.21,1.21,0,0,0-.39.3,1.32,1.32,0,0,0-.24.44,1.65,1.65,0,0,0,0,1,1.31,1.31,0,0,0,.24.44,1.18,1.18,0,0,0,.92.41,1.21,1.21,0,0,0,.52-0.11,1.07,1.07,0,0,0,.39-0.3L25.07,46a1.63,1.63,0,0,1-.6.44,2,2,0,0,1-.82.16,2.23,2.23,0,0,1-.81-0.14,1.92,1.92,0,0,1-.64-0.4,1.87,1.87,0,0,1-.43-0.63,2.27,2.27,0,0,1,0-1.64,1.88,1.88,0,0,1,.42-0.63,1.91,1.91,0,0,1,.64-0.41,2.2,2.2,0,0,1,.8-0.14,2.1,2.1,0,0,1,.8.16,1.45,1.45,0,0,1,.63.46Z" transform="translate(0 0)"/><path class="c" d="M26.86,41.29a0.45,0.45,0,0,1-.15.34,0.5,0.5,0,0,1-.35.14A0.48,0.48,0,0,1,26,41.63a0.46,0.46,0,0,1-.14-0.34A0.47,0.47,0,0,1,26,40.94a0.48,0.48,0,0,1,.35-0.14,0.49,0.49,0,0,1,.35.14A0.46,0.46,0,0,1,26.86,41.29Zm-0.12,5.16H26V42.66h0.75v3.79Z" transform="translate(0 0)"/><path class="c" d="M30.51,44a0.75,0.75,0,0,0-.26-0.63,1.06,1.06,0,0,0-.68-0.2,1.5,1.5,0,0,0-.6.12,1.53,1.53,0,0,0-.48.32l-0.4-.48a2,2,0,0,1,.68-0.42,2.45,2.45,0,0,1,.87-0.15,2,2,0,0,1,.71.12,1.34,1.34,0,0,1,.49.32,1.29,1.29,0,0,1,.29.47,1.73,1.73,0,0,1,.1.58V45.7c0,0.13,0,.26,0,0.4a2,2,0,0,0,0,.35H30.61a2.4,2.4,0,0,1-.06-0.54h0a1.46,1.46,0,0,1-.52.47,1.57,1.57,0,0,1-.75.17,2,2,0,0,1-.47-0.06,1.35,1.35,0,0,1-.44-0.2A1.1,1.1,0,0,1,28,45.93a1.07,1.07,0,0,1-.13-0.55,1,1,0,0,1,.23-0.68,1.48,1.48,0,0,1,.61-0.38,3.45,3.45,0,0,1,.85-0.17q0.47,0,1,0V44h0Zm-0.18.65-0.58,0a2.69,2.69,0,0,0-.54.1,1,1,0,0,0-.4.22,0.49,0.49,0,0,0-.16.38,0.53,0.53,0,0,0,.07.28,0.56,0.56,0,0,0,.18.18,0.73,0.73,0,0,0,.25.1l0.28,0a1,1,0,0,0,.81-0.32,1.15,1.15,0,0,0,.28-0.8v-0.2H30.33Z" transform="translate(0 0)"/><path class="c" d="M33.37,46.45H32.61v-6h0.75v6Z" transform="translate(0 0)"/><path class="c" d="M37.45,46.45H36.69v-6h0.75v6Z" transform="translate(0 0)"/><path class="c" d="M41.24,44A0.75,0.75,0,0,0,41,43.37a1.06,1.06,0,0,0-.68-0.2,1.5,1.5,0,0,0-.6.12,1.53,1.53,0,0,0-.48.32l-0.4-.48a2,2,0,0,1,.68-0.42,2.45,2.45,0,0,1,.87-0.15,2,2,0,0,1,.71.12,1.34,1.34,0,0,1,.49.32,1.29,1.29,0,0,1,.29.47A1.73,1.73,0,0,1,42,44V45.7c0,0.13,0,.26,0,0.4a2,2,0,0,0,0,.35H41.33a2.4,2.4,0,0,1-.06-0.54h0a1.46,1.46,0,0,1-.52.47,1.57,1.57,0,0,1-.75.17,2,2,0,0,1-.47-0.06,1.35,1.35,0,0,1-.44-0.2,1.1,1.1,0,0,1-.33-0.36,1.07,1.07,0,0,1-.13-0.55,1,1,0,0,1,.23-0.68,1.48,1.48,0,0,1,.61-0.38,3.45,3.45,0,0,1,.85-0.17q0.47,0,1,0V44h0Zm-0.18.65-0.58,0a2.69,2.69,0,0,0-.54.1,1,1,0,0,0-.4.22,0.49,0.49,0,0,0-.16.38,0.53,0.53,0,0,0,.07.28,0.56,0.56,0,0,0,.18.18,0.73,0.73,0,0,0,.25.1l0.28,0A1,1,0,0,0,41,45.64a1.15,1.15,0,0,0,.28-0.8v-0.2H41.05Z" transform="translate(0 0)"/><path class="c" d="M44,42.66q0,0.14,0,.32t0,0.3h0a1.11,1.11,0,0,1,.2-0.28,1.42,1.42,0,0,1,.28-0.23,1.4,1.4,0,0,1,.35-0.16,1.41,1.41,0,0,1,.4-0.06,1.48,1.48,0,0,1,.63.12,1.29,1.29,0,0,1,.44.33,1.35,1.35,0,0,1,.26.49,2.09,2.09,0,0,1,.08.6v2.35H46v-2.1a2.64,2.64,0,0,0,0-.44,1.08,1.08,0,0,0-.13-0.37,0.72,0.72,0,0,0-.26-0.26,0.86,0.86,0,0,0-.43-0.1,0.91,0.91,0,0,0-.73.34,1.37,1.37,0,0,0-.28.91v2H43.33v-3q0-.15,0-0.39c0-.16,0-0.3,0-0.42H44Z" transform="translate(0 0)"/><path class="c" d="M48.41,47.1a1.81,1.81,0,0,0,.62.45,1.83,1.83,0,0,0,.76.17,1.62,1.62,0,0,0,.63-0.11,1.06,1.06,0,0,0,.41-0.3,1.14,1.14,0,0,0,.22-0.44,2.12,2.12,0,0,0,.07-0.55V45.83h0a1.34,1.34,0,0,1-.57.49,1.79,1.79,0,0,1-.77.17A2,2,0,0,1,49,46.33a1.76,1.76,0,0,1-.6-0.42A1.87,1.87,0,0,1,48,45.29a2.12,2.12,0,0,1-.14-0.76A2.15,2.15,0,0,1,48,43.76a1.91,1.91,0,0,1,.38-0.63,1.8,1.8,0,0,1,.6-0.42,1.92,1.92,0,0,1,.78-0.16,1.8,1.8,0,0,1,.78.18,1.34,1.34,0,0,1,.59.54h0V42.66h0.73v3.6a3,3,0,0,1-.1.8,1.73,1.73,0,0,1-.35.67,1.76,1.76,0,0,1-.65.47,2.46,2.46,0,0,1-1,.18,2.93,2.93,0,0,1-1-.18,2.53,2.53,0,0,1-.86-0.51Zm0.22-2.58a1.52,1.52,0,0,0,.08.5,1.24,1.24,0,0,0,.65.72,1.21,1.21,0,0,0,.53.11,1.33,1.33,0,0,0,.53-0.1,1.22,1.22,0,0,0,.41-0.28A1.27,1.27,0,0,0,51.09,45a1.47,1.47,0,0,0,.09-0.52A1.42,1.42,0,0,0,51.09,44a1.28,1.28,0,0,0-.67-0.72,1.34,1.34,0,0,0-1.06,0,1.23,1.23,0,0,0-.4.29,1.21,1.21,0,0,0-.25.42,1.59,1.59,0,0,0-.08.52h0Z" transform="translate(0 0)"/><path class="c" d="M56,46.45c0-.1,0-0.2,0-0.32s0-.22,0-0.3h0a1.24,1.24,0,0,1-.48.52,1.4,1.4,0,0,1-.76.21A1.54,1.54,0,0,1,54,46.43a1.16,1.16,0,0,1-.44-0.33,1.4,1.4,0,0,1-.26-0.49,2.06,2.06,0,0,1-.08-0.6V42.66H54v2.1a2.6,2.6,0,0,0,0,.44,1,1,0,0,0,.13.37,0.72,0.72,0,0,0,.26.26,0.87,0.87,0,0,0,.43.1,0.91,0.91,0,0,0,.74-0.34,1.38,1.38,0,0,0,.28-0.91v-2h0.75v3c0,0.1,0,.23,0,0.39s0,0.3,0,.42H56Z" transform="translate(0 0)"/><path class="c" d="M60.41,44a0.75,0.75,0,0,0-.26-0.63,1.06,1.06,0,0,0-.68-0.2,1.5,1.5,0,0,0-.6.12,1.53,1.53,0,0,0-.48.32L58,43.12a2,2,0,0,1,.68-0.42,2.45,2.45,0,0,1,.87-0.15,2,2,0,0,1,.71.12,1.34,1.34,0,0,1,.49.32,1.29,1.29,0,0,1,.29.47,1.73,1.73,0,0,1,.1.58V45.7c0,0.13,0,.26,0,0.4a2,2,0,0,0,0,.35H60.51a2.4,2.4,0,0,1-.06-0.54h0a1.46,1.46,0,0,1-.52.47,1.57,1.57,0,0,1-.75.17,2,2,0,0,1-.47-0.06,1.35,1.35,0,0,1-.44-0.2,1.1,1.1,0,0,1-.33-0.36,1.07,1.07,0,0,1-.13-0.55A1,1,0,0,1,58,44.69a1.48,1.48,0,0,1,.61-0.38,3.45,3.45,0,0,1,.85-0.17q0.47,0,1,0V44h0Zm-0.18.65-0.58,0a2.69,2.69,0,0,0-.54.1,1,1,0,0,0-.4.22,0.49,0.49,0,0,0-.16.38,0.53,0.53,0,0,0,.07.28,0.56,0.56,0,0,0,.18.18,0.73,0.73,0,0,0,.25.1l0.28,0a1,1,0,0,0,.81-0.32,1.15,1.15,0,0,0,.28-0.8v-0.2H60.23Z" transform="translate(0 0)"/><path class="c" d="M62.8,47.1a1.81,1.81,0,0,0,.62.45,1.83,1.83,0,0,0,.76.17,1.62,1.62,0,0,0,.63-0.11,1.06,1.06,0,0,0,.41-0.3,1.14,1.14,0,0,0,.22-0.44,2.12,2.12,0,0,0,.07-0.55V45.83h0a1.34,1.34,0,0,1-.57.49,1.79,1.79,0,0,1-.77.17,2,2,0,0,1-.79-0.15,1.76,1.76,0,0,1-.6-0.42,1.87,1.87,0,0,1-.38-0.62,2.12,2.12,0,0,1-.14-0.76,2.15,2.15,0,0,1,.14-0.77,1.91,1.91,0,0,1,.38-0.63,1.8,1.8,0,0,1,.6-0.42,1.92,1.92,0,0,1,.78-0.16,1.8,1.8,0,0,1,.78.18,1.34,1.34,0,0,1,.59.54h0V42.66h0.73v3.6a3,3,0,0,1-.1.8,1.73,1.73,0,0,1-.35.67,1.76,1.76,0,0,1-.65.47,2.46,2.46,0,0,1-1,.18,2.93,2.93,0,0,1-1-.18,2.53,2.53,0,0,1-.86-0.51ZM63,44.51a1.52,1.52,0,0,0,.08.5,1.24,1.24,0,0,0,.65.72,1.21,1.21,0,0,0,.53.11,1.33,1.33,0,0,0,.53-0.1,1.22,1.22,0,0,0,.41-0.28A1.27,1.27,0,0,0,65.49,45a1.47,1.47,0,0,0,.09-0.52A1.42,1.42,0,0,0,65.49,44a1.28,1.28,0,0,0-.67-0.72,1.34,1.34,0,0,0-1.06,0,1.23,1.23,0,0,0-.4.29,1.21,1.21,0,0,0-.25.42,1.59,1.59,0,0,0-.08.52h0Z" transform="translate(0 0)"/><path class="c" d="M71.25,44.52v0.13a0.94,0.94,0,0,1,0,.13h-3a1.1,1.1,0,0,0,.11.45,1.17,1.17,0,0,0,.27.37,1.32,1.32,0,0,0,1.52.16,1.35,1.35,0,0,0,.44-0.41l0.53,0.42a1.89,1.89,0,0,1-.72.59,2.3,2.3,0,0,1-1.72,0A1.85,1.85,0,0,1,68,46a1.88,1.88,0,0,1-.42-0.63,2.12,2.12,0,0,1-.15-0.82,2.18,2.18,0,0,1,.15-0.81,1.84,1.84,0,0,1,1-1,2.15,2.15,0,0,1,1.54,0,1.57,1.57,0,0,1,.58.39,1.76,1.76,0,0,1,.36.62A2.45,2.45,0,0,1,71.25,44.52Zm-0.77-.3a1.4,1.4,0,0,0-.08-0.42,0.92,0.92,0,0,0-.53-0.57,1.17,1.17,0,0,0-.46-0.08,1.22,1.22,0,0,0-.45.08,1.17,1.17,0,0,0-.37.23,1.19,1.19,0,0,0-.26.34,1.07,1.07,0,0,0-.12.42h2.26Z" transform="translate(0 0)"/><path class="c" d="M11.41,57a1.84,1.84,0,0,0-.65-0.45,2.24,2.24,0,0,0-.88-0.17,2.16,2.16,0,0,0-.9.18A2,2,0,0,0,8.3,57a2.23,2.23,0,0,0-.43.72,2.5,2.5,0,0,0-.15.88,2.56,2.56,0,0,0,.15.89,2.17,2.17,0,0,0,.43.72,2,2,0,0,0,.69.48,2.27,2.27,0,0,0,.91.18,3.48,3.48,0,0,0,.74-0.07,2.12,2.12,0,0,0,.58-0.21V59H10V58.35h2V61.1a4.11,4.11,0,0,1-1,.37,4.91,4.91,0,0,1-1.15.13,3.28,3.28,0,0,1-1.22-.22,2.76,2.76,0,0,1-1.58-1.56,3.15,3.15,0,0,1-.22-1.2,3.12,3.12,0,0,1,.23-1.21,2.73,2.73,0,0,1,.63-0.94,2.87,2.87,0,0,1,1-.6,3.27,3.27,0,0,1,1.2-.22,3.43,3.43,0,0,1,1.21.2,2.57,2.57,0,0,1,.88.54Z" transform="translate(0 0)"/><path class="c" d="M13.5,55.79h1.94a3.83,3.83,0,0,1,1.09.16,2.91,2.91,0,0,1,1,.5,2.59,2.59,0,0,1,.71.88,2.82,2.82,0,0,1,.27,1.29,2.73,2.73,0,0,1-.27,1.26,2.64,2.64,0,0,1-.71.88,3.06,3.06,0,0,1-1,.52,3.59,3.59,0,0,1-1.09.17H13.5V55.79Zm0.79,5h1a3,3,0,0,0,.95-0.14A2.2,2.2,0,0,0,17,60.19a1.85,1.85,0,0,0,.49-0.67,2.22,2.22,0,0,0,.18-0.9,2.29,2.29,0,0,0-.18-0.93A1.82,1.82,0,0,0,17,57a2.18,2.18,0,0,0-.75-0.41,3.09,3.09,0,0,0-.95-0.14h-1v4.28h0Z" transform="translate(0 0)"/><path class="c" d="M19.74,55.79h1.73a3.5,3.5,0,0,1,.83.09,1.79,1.79,0,0,1,.64.28,1.29,1.29,0,0,1,.41.49,1.62,1.62,0,0,1,.14.71,1.58,1.58,0,0,1-.16.73,1.34,1.34,0,0,1-.43.5,1.92,1.92,0,0,1-.66.28,3.48,3.48,0,0,1-.82.09h-0.9v2.49H19.74V55.79Zm0.79,2.5h0.84a2.55,2.55,0,0,0,.53-0.05,1.33,1.33,0,0,0,.42-0.16,0.75,0.75,0,0,0,.27-0.28,0.89,0.89,0,0,0,.1-0.43,0.84,0.84,0,0,0-.1-0.43,0.79,0.79,0,0,0-.27-0.28,1.16,1.16,0,0,0-.41-0.15,2.94,2.94,0,0,0-.52,0H20.53v1.83h0Z" transform="translate(0 0)"/><path class="c" d="M164.66,11.25a2,2,0,0,1-.49.72,2.27,2.27,0,0,1-.77.47,3.1,3.1,0,0,1-2,0,2.2,2.2,0,0,1-.76-0.47,2,2,0,0,1-.48-0.72,2.48,2.48,0,0,1-.17-0.93V6.79h1.36V10.2a1.58,1.58,0,0,0,.06.44,1.12,1.12,0,0,0,.18.37,0.87,0.87,0,0,0,.33.26,1.31,1.31,0,0,0,1,0,0.91,0.91,0,0,0,.33-0.26,1,1,0,0,0,.18-0.37,1.69,1.69,0,0,0,.06-0.44V6.79h1.37v3.53A2.44,2.44,0,0,1,164.66,11.25Z" transform="translate(0 0)"/><path class="c" d="M169.73,12.45l-2.28-3.7h0l0,3.7h-1.33V6.79h1.56l2.27,3.7h0l0-3.7h1.33v5.66h-1.55Z" transform="translate(0 0)"/><path class="c" d="M177,9.55l-0.17,0h-0.16a0.93,0.93,0,0,0-.44.1,0.9,0.9,0,0,0-.29.23,0.87,0.87,0,0,0-.16.29,1,1,0,0,0,0,.28v2h-1.31v-4h1.26V9h0a1.3,1.3,0,0,1,.43-0.5,1.11,1.11,0,0,1,.65-0.19h0.16l0.12,0Z" transform="translate(0 0)"/><path class="c" d="M181.69,10.51v0.16a1.51,1.51,0,0,1,0,.15H178.8a0.7,0.7,0,0,0,.1.3,0.86,0.86,0,0,0,.22.24,1.06,1.06,0,0,0,.64.21,1.1,1.1,0,0,0,.53-0.12,1,1,0,0,0,.35-0.3l0.91,0.58a1.85,1.85,0,0,1-.74.63,2.45,2.45,0,0,1-1.07.22,2.55,2.55,0,0,1-.85-0.14,2.06,2.06,0,0,1-.7-0.41,1.88,1.88,0,0,1-.47-0.66,2.2,2.2,0,0,1-.17-0.9,2.24,2.24,0,0,1,.17-0.88,2,2,0,0,1,.46-0.67,2,2,0,0,1,.68-0.43,2.33,2.33,0,0,1,.85-0.15,2.15,2.15,0,0,1,.81.15,1.77,1.77,0,0,1,.63.43,2,2,0,0,1,.41.68A2.62,2.62,0,0,1,181.69,10.51Zm-1.21-.5a0.79,0.79,0,0,0-.2-0.54,0.74,0.74,0,0,0-.59-0.22,1,1,0,0,0-.35.06,0.92,0.92,0,0,0-.28.16,0.81,0.81,0,0,0-.19.24,0.7,0.7,0,0,0-.08.29h1.69Z" transform="translate(0 0)"/><path class="c" d="M187.1,10.44a2.52,2.52,0,0,1-.13.8,2.08,2.08,0,0,1-.37.68,1.83,1.83,0,0,1-.6.47,1.76,1.76,0,0,1-.8.18,1.68,1.68,0,0,1-.7-0.15A1.24,1.24,0,0,1,184,12h0v2.36h-1.31V8.47h1.25V9h0a1.62,1.62,0,0,1,.51-0.42,1.55,1.55,0,0,1,.76-0.18,1.8,1.8,0,0,1,.78.17,1.77,1.77,0,0,1,.6.46,2.07,2.07,0,0,1,.38.67A2.39,2.39,0,0,1,187.1,10.44Zm-1.27,0a1.2,1.2,0,0,0-.06-0.38,1,1,0,0,0-.18-0.32,0.88,0.88,0,0,0-.29-0.23,0.9,0.9,0,0,0-.41-0.09,0.88,0.88,0,0,0-.4.09,1,1,0,0,0-.3.23,1.08,1.08,0,0,0,0,1.41,1,1,0,0,0,.3.23,0.88,0.88,0,0,0,.4.09,0.9,0.9,0,0,0,.41-0.09,0.86,0.86,0,0,0,.29-0.23,1,1,0,0,0,.18-0.33,1.24,1.24,0,0,0,.06-0.38h0Z" transform="translate(0 0)"/><path class="c" d="M190.68,9.55l-0.17,0h-0.16a0.93,0.93,0,0,0-.44.1,0.9,0.9,0,0,0-.29.23,0.87,0.87,0,0,0-.16.29,1,1,0,0,0,0,.28v2h-1.31v-4h1.26V9h0a1.3,1.3,0,0,1,.43-0.5,1.11,1.11,0,0,1,.65-0.19h0.16l0.12,0Z" transform="translate(0 0)"/><path class="c" d="M195.4,10.51v0.16a1.51,1.51,0,0,1,0,.15h-2.89a0.7,0.7,0,0,0,.1.3,0.86,0.86,0,0,0,.22.24,1.06,1.06,0,0,0,.64.21,1.1,1.1,0,0,0,.53-0.12,1,1,0,0,0,.35-0.3l0.91,0.58a1.85,1.85,0,0,1-.74.63,2.45,2.45,0,0,1-1.07.22,2.55,2.55,0,0,1-.85-0.14,2.06,2.06,0,0,1-.7-0.41,1.88,1.88,0,0,1-.47-0.66,2.2,2.2,0,0,1-.17-0.9,2.24,2.24,0,0,1,.17-0.88,2,2,0,0,1,.46-0.67,2,2,0,0,1,.68-0.43,2.33,2.33,0,0,1,.85-0.15,2.15,2.15,0,0,1,.81.15,1.77,1.77,0,0,1,.63.43,2,2,0,0,1,.41.68A2.62,2.62,0,0,1,195.4,10.51ZM194.2,10a0.79,0.79,0,0,0-.2-0.54,0.74,0.74,0,0,0-.59-0.22,1,1,0,0,0-.35.06,0.92,0.92,0,0,0-.28.16,0.81,0.81,0,0,0-.19.24,0.7,0.7,0,0,0-.08.29h1.69Z" transform="translate(0 0)"/><path class="c" d="M198.72,9.64a1.49,1.49,0,0,0-.38-0.26,1,1,0,0,0-.46-0.1,0.81,0.81,0,0,0-.34.07,0.25,0.25,0,0,0-.16.25,0.25,0.25,0,0,0,.17.24,3.75,3.75,0,0,0,.56.16,3.05,3.05,0,0,1,.45.14,1.6,1.6,0,0,1,.41.23,1.13,1.13,0,0,1,.3.35,1,1,0,0,1,.11.5,1.24,1.24,0,0,1-.15.64,1.26,1.26,0,0,1-.4.42,1.72,1.72,0,0,1-.55.23,2.63,2.63,0,0,1-.61.07,3,3,0,0,1-1-.16,2,2,0,0,1-.78-0.46l0.74-.78a1.47,1.47,0,0,0,.43.32,1.2,1.2,0,0,0,.54.13,0.72,0.72,0,0,0,.32-0.08,0.27,0.27,0,0,0,.16-0.27,0.29,0.29,0,0,0-.19-0.27,3.5,3.5,0,0,0-.6-0.18,2.93,2.93,0,0,1-.42-0.13,1.29,1.29,0,0,1-.37-0.22,1.08,1.08,0,0,1-.27-0.34,1,1,0,0,1-.1-0.48,1.17,1.17,0,0,1,.15-0.61,1.29,1.29,0,0,1,.39-0.41,1.74,1.74,0,0,1,.53-0.24,2.31,2.31,0,0,1,.58-0.08,2.8,2.8,0,0,1,.88.14,1.89,1.89,0,0,1,.72.42Z" transform="translate(0 0)"/><path class="c" d="M204.25,10.51v0.16a1.51,1.51,0,0,1,0,.15h-2.89a0.7,0.7,0,0,0,.1.3,0.86,0.86,0,0,0,.22.24,1.06,1.06,0,0,0,.64.21,1.1,1.1,0,0,0,.53-0.12,1,1,0,0,0,.35-0.3l0.91,0.58a1.85,1.85,0,0,1-.74.63,2.45,2.45,0,0,1-1.07.22,2.55,2.55,0,0,1-.85-0.14,2.06,2.06,0,0,1-.7-0.41,1.88,1.88,0,0,1-.47-0.66,2.2,2.2,0,0,1-.17-0.9,2.24,2.24,0,0,1,.17-0.88,2,2,0,0,1,.46-0.67,2,2,0,0,1,.68-0.43,2.33,2.33,0,0,1,.85-0.15,2.15,2.15,0,0,1,.81.15,1.77,1.77,0,0,1,.63.43,2,2,0,0,1,.41.68A2.62,2.62,0,0,1,204.25,10.51ZM203,10a0.79,0.79,0,0,0-.2-0.54,0.74,0.74,0,0,0-.59-0.22,1,1,0,0,0-.35.06,0.92,0.92,0,0,0-.28.16,0.81,0.81,0,0,0-.19.24,0.7,0.7,0,0,0-.08.29H203Z" transform="translate(0 0)"/><path class="c" d="M207.84,12.45V10.27a1.78,1.78,0,0,0,0-.32,0.88,0.88,0,0,0-.09-0.27,0.48,0.48,0,0,0-.18-0.18,0.57,0.57,0,0,0-.29-0.07,0.67,0.67,0,0,0-.31.07,0.62,0.62,0,0,0-.22.19,0.85,0.85,0,0,0-.13.28,1.19,1.19,0,0,0,0,.32v2.16h-1.32v-4h1.27V9h0a1.3,1.3,0,0,1,.19-0.25A1.13,1.13,0,0,1,207,8.55a1.74,1.74,0,0,1,.34-0.14,1.35,1.35,0,0,1,.39-0.06,1.47,1.47,0,0,1,.68.14,1.31,1.31,0,0,1,.45.37,1.47,1.47,0,0,1,.25.52,2.37,2.37,0,0,1,.08.59v2.46h-1.32Z" transform="translate(0 0)"/><path class="c" d="M211.76,9.44V11a0.68,0.68,0,0,0,.11.42,0.46,0.46,0,0,0,.39.14l0.2,0,0.18,0,0,1-0.34.08a2.44,2.44,0,0,1-.42,0,2,2,0,0,1-.67-0.1,1,1,0,0,1-.44-0.29,1.14,1.14,0,0,1-.24-0.45,2.19,2.19,0,0,1-.07-0.58V9.44h-0.64v-1h0.63v-1h1.29v1h0.94v1h-0.94Z" transform="translate(0 0)"/><path class="c" d="M213.49,9a2.29,2.29,0,0,1,.82-0.5,2.8,2.8,0,0,1,1-.17,2.55,2.55,0,0,1,.85.12,1.27,1.27,0,0,1,.56.38,1.64,1.64,0,0,1,.32.66,3.89,3.89,0,0,1,.1.94v2h-1.2V12h0a1,1,0,0,1-.46.38,1.63,1.63,0,0,1-.67.14,2.05,2.05,0,0,1-.5-0.06,1.46,1.46,0,0,1-.47-0.21,1.12,1.12,0,0,1-.35-0.38,1.18,1.18,0,0,1-.14-0.59,1,1,0,0,1,.24-0.7,1.55,1.55,0,0,1,.61-0.41A3.22,3.22,0,0,1,215,10a8.58,8.58,0,0,1,.89,0V9.89a0.49,0.49,0,0,0-.21-0.44,0.9,0.9,0,0,0-.51-0.14,1.27,1.27,0,0,0-.54.12,1.71,1.71,0,0,0-.44.29Zm2.41,1.7h-0.17l-0.44,0a1.79,1.79,0,0,0-.39.08,0.72,0.72,0,0,0-.28.16,0.38,0.38,0,0,0-.11.28,0.34,0.34,0,0,0,.05.19,0.39,0.39,0,0,0,.13.13,0.54,0.54,0,0,0,.18.07l0.2,0a0.81,0.81,0,0,0,.61-0.22,0.83,0.83,0,0,0,.21-0.6V10.71h0Z" transform="translate(0 0)"/><path class="c" d="M219.67,9.44V11a0.68,0.68,0,0,0,.11.42,0.46,0.46,0,0,0,.39.14l0.2,0,0.18,0,0,1-0.34.08a2.44,2.44,0,0,1-.42,0,2,2,0,0,1-.67-0.1,1,1,0,0,1-.44-0.29,1.14,1.14,0,0,1-.24-0.45,2.19,2.19,0,0,1-.07-0.58V9.44h-0.64v-1h0.63v-1h1.29v1h0.94v1h-0.94Z" transform="translate(0 0)"/><path class="c" d="M222.88,7.19a0.68,0.68,0,0,1-.06.28,0.72,0.72,0,0,1-.4.38,0.78,0.78,0,0,1-.29.06,0.73,0.73,0,0,1-.54-0.21,0.7,0.7,0,0,1-.16-0.78,0.65,0.65,0,0,1,.16-0.23,0.84,0.84,0,0,1,.24-0.16,0.73,0.73,0,0,1,.3-0.06,0.78,0.78,0,0,1,.29.06,0.73,0.73,0,0,1,.24.15,0.74,0.74,0,0,1,.16.23A0.68,0.68,0,0,1,222.88,7.19Zm-1.41,5.26v-4h1.31v4h-1.31Z" transform="translate(0 0)"/><path class="c" d="M226.47,12.45h-1.42l-1.57-4h1.45l0.84,2.58h0l0.84-2.58H228Z" transform="translate(0 0)"/><path class="c" d="M232.54,10.51v0.16a1.51,1.51,0,0,1,0,.15h-2.89a0.7,0.7,0,0,0,.1.3,0.86,0.86,0,0,0,.22.24,1.06,1.06,0,0,0,.64.21,1.1,1.1,0,0,0,.53-0.12,1,1,0,0,0,.35-0.3l0.91,0.58a1.85,1.85,0,0,1-.74.63,2.45,2.45,0,0,1-1.07.22,2.55,2.55,0,0,1-.85-0.14A2.06,2.06,0,0,1,229,12a1.88,1.88,0,0,1-.47-0.66,2.2,2.2,0,0,1-.17-0.9,2.24,2.24,0,0,1,.17-0.88A2,2,0,0,1,229,8.92a2,2,0,0,1,.68-0.43,2.33,2.33,0,0,1,.85-0.15,2.15,2.15,0,0,1,.81.15,1.77,1.77,0,0,1,.63.43,2,2,0,0,1,.41.68A2.62,2.62,0,0,1,232.54,10.51Zm-1.21-.5a0.79,0.79,0,0,0-.2-0.54,0.74,0.74,0,0,0-.59-0.22,1,1,0,0,0-.35.06,0.92,0.92,0,0,0-.28.16,0.81,0.81,0,0,0-.19.24,0.7,0.7,0,0,0-.08.29h1.69Z" transform="translate(0 0)"/><path class="c" d="M164.13,30.31h0V25.79h0.79v5.66h-1l-3-4.62h0v4.62h-0.79V25.79h1Z" transform="translate(0 0)"/><path class="c" d="M168.8,29a0.75,0.75,0,0,0-.26-0.63,1.06,1.06,0,0,0-.68-0.2,1.5,1.5,0,0,0-.6.12,1.53,1.53,0,0,0-.48.32l-0.4-.48a2,2,0,0,1,.68-0.42,2.45,2.45,0,0,1,.87-0.15,2,2,0,0,1,.71.12,1.34,1.34,0,0,1,.49.32,1.29,1.29,0,0,1,.29.47,1.73,1.73,0,0,1,.1.58V30.7c0,0.13,0,.26,0,0.4a2,2,0,0,0,0,.35h-0.68a2.4,2.4,0,0,1-.06-0.54h0a1.46,1.46,0,0,1-.52.47,1.57,1.57,0,0,1-.75.17,2,2,0,0,1-.47-0.06,1.35,1.35,0,0,1-.44-0.2,1.1,1.1,0,0,1-.33-0.36,1.07,1.07,0,0,1-.13-0.55,1,1,0,0,1,.23-0.68,1.48,1.48,0,0,1,.61-0.38,3.45,3.45,0,0,1,.85-0.17q0.47,0,1,0V29h0Zm-0.18.65-0.58,0a2.69,2.69,0,0,0-.54.1,1,1,0,0,0-.4.22,0.49,0.49,0,0,0-.16.38,0.53,0.53,0,0,0,.07.28,0.56,0.56,0,0,0,.18.18,0.73,0.73,0,0,0,.25.1l0.28,0a1,1,0,0,0,.81-0.32,1.15,1.15,0,0,0,.28-0.8v-0.2h-0.18Z" transform="translate(0 0)"/><path class="c" d="M172.08,27.77a1.31,1.31,0,0,1,.75-0.21,1.37,1.37,0,0,1,.69.18,1.18,1.18,0,0,1,.48.58,1.36,1.36,0,0,1,.54-0.56,1.6,1.6,0,0,1,1.38-.07,1.28,1.28,0,0,1,.44.33,1.34,1.34,0,0,1,.26.49,2.06,2.06,0,0,1,.08.6v2.35H176v-2.1a2.27,2.27,0,0,0,0-.44,1.11,1.11,0,0,0-.14-0.37,0.73,0.73,0,0,0-.26-0.26,0.78,0.78,0,0,0-.41-0.1,0.85,0.85,0,0,0-.44.11,0.91,0.91,0,0,0-.3.28,1.2,1.2,0,0,0-.17.39,1.9,1.9,0,0,0-.05.44v2h-0.75V29.19a2,2,0,0,0,0-.41,0.83,0.83,0,0,0-.14-0.32,0.68,0.68,0,0,0-.25-0.21,0.83,0.83,0,0,0-.38-0.08,0.86,0.86,0,0,0-.69.34,1.4,1.4,0,0,0-.28.91v2h-0.75v-3q0-.15,0-0.39c0-.16,0-0.3,0-0.42h0.71q0,0.14,0,.32t0,0.3h0A1.29,1.29,0,0,1,172.08,27.77Z" transform="translate(0 0)"/><path class="c" d="M181.65,29.52v0.13a0.94,0.94,0,0,1,0,.13h-3a1.1,1.1,0,0,0,.11.45,1.17,1.17,0,0,0,.27.37,1.32,1.32,0,0,0,1.52.16,1.35,1.35,0,0,0,.44-0.41l0.53,0.42a1.89,1.89,0,0,1-.72.59,2.3,2.3,0,0,1-1.72,0,1.85,1.85,0,0,1-.63-0.4,1.88,1.88,0,0,1-.42-0.63,2.12,2.12,0,0,1-.15-0.82,2.18,2.18,0,0,1,.15-0.81,1.84,1.84,0,0,1,1-1,2.15,2.15,0,0,1,1.54,0,1.57,1.57,0,0,1,.58.39,1.76,1.76,0,0,1,.36.62A2.45,2.45,0,0,1,181.65,29.52Zm-0.77-.3a1.4,1.4,0,0,0-.08-0.42,0.92,0.92,0,0,0-.53-0.57,1.17,1.17,0,0,0-.46-0.08,1.22,1.22,0,0,0-.45.08,1.17,1.17,0,0,0-.37.23,1.19,1.19,0,0,0-.26.34,1.07,1.07,0,0,0-.12.42h2.26Z" transform="translate(0 0)"/><path class="c" d="M164.41,42a1.84,1.84,0,0,0-.65-0.45,2.24,2.24,0,0,0-.88-0.17,2.16,2.16,0,0,0-.9.18,2,2,0,0,0-.68.49,2.23,2.23,0,0,0-.43.72,2.5,2.5,0,0,0-.15.88,2.56,2.56,0,0,0,.15.89,2.17,2.17,0,0,0,.43.72,2,2,0,0,0,.69.48,2.27,2.27,0,0,0,.91.18,3.48,3.48,0,0,0,.74-0.07,2.12,2.12,0,0,0,.58-0.21V44H163V43.35h2V46.1a4.11,4.11,0,0,1-1,.37,4.91,4.91,0,0,1-1.15.13,3.28,3.28,0,0,1-1.22-.22,2.76,2.76,0,0,1-1.58-1.56,3.15,3.15,0,0,1-.22-1.2,3.12,3.12,0,0,1,.23-1.21,2.73,2.73,0,0,1,.63-0.94,2.87,2.87,0,0,1,1-.6,3.27,3.27,0,0,1,1.2-.22,3.43,3.43,0,0,1,1.21.2,2.57,2.57,0,0,1,.88.54Z" transform="translate(0 0)"/><path class="c" d="M170,44.52v0.13a0.94,0.94,0,0,1,0,.13h-3a1.1,1.1,0,0,0,.11.45,1.17,1.17,0,0,0,.27.37,1.32,1.32,0,0,0,1.52.16,1.35,1.35,0,0,0,.44-0.41l0.53,0.42a1.89,1.89,0,0,1-.72.59,2.3,2.3,0,0,1-1.72,0,1.85,1.85,0,0,1-.63-0.4,1.88,1.88,0,0,1-.42-0.63,2.12,2.12,0,0,1-.15-0.82,2.18,2.18,0,0,1,.15-0.81,1.84,1.84,0,0,1,1-1,2.15,2.15,0,0,1,1.54,0,1.57,1.57,0,0,1,.58.39,1.76,1.76,0,0,1,.36.62A2.45,2.45,0,0,1,170,44.52Zm-0.77-.3a1.4,1.4,0,0,0-.08-0.42,0.92,0.92,0,0,0-.53-0.57,1.17,1.17,0,0,0-.46-0.08,1.22,1.22,0,0,0-.45.08,1.17,1.17,0,0,0-.37.23,1.19,1.19,0,0,0-.26.34,1.07,1.07,0,0,0-.12.42h2.26Z" transform="translate(0 0)"/><path class="c" d="M171.86,42.66q0,0.14,0,.32t0,0.3h0a1.11,1.11,0,0,1,.2-0.28,1.42,1.42,0,0,1,.28-0.23,1.4,1.4,0,0,1,.35-0.16,1.41,1.41,0,0,1,.4-0.06,1.48,1.48,0,0,1,.63.12,1.29,1.29,0,0,1,.44.33,1.35,1.35,0,0,1,.26.49,2.09,2.09,0,0,1,.08.6v2.35h-0.75v-2.1a2.64,2.64,0,0,0,0-.44,1.08,1.08,0,0,0-.13-0.37,0.72,0.72,0,0,0-.26-0.26,0.86,0.86,0,0,0-.43-0.1,0.91,0.91,0,0,0-.73.34,1.37,1.37,0,0,0-.28.91v2h-0.75v-3q0-.15,0-0.39c0-.16,0-0.3,0-0.42h0.71Z" transform="translate(0 0)"/><path class="c" d="M179,45.85a1.39,1.39,0,0,1-.59.52,1.77,1.77,0,0,1-.78.18,2,2,0,0,1-.79-0.16,1.77,1.77,0,0,1-.6-0.43,1.92,1.92,0,0,1-.38-0.64,2.24,2.24,0,0,1-.14-0.78,2.21,2.21,0,0,1,.14-0.78,1.89,1.89,0,0,1,.39-0.64,1.77,1.77,0,0,1,.6-0.42,2,2,0,0,1,.78-0.15,1.6,1.6,0,0,1,.81.2,1.68,1.68,0,0,1,.54.48h0V40.4h0.75v6H179v-0.6h0Zm-2.5-1.3a1.64,1.64,0,0,0,.08.51,1.31,1.31,0,0,0,.24.44,1.24,1.24,0,0,0,1.86,0,1.36,1.36,0,0,0,.26-0.43,1.51,1.51,0,0,0,0-1,1.41,1.41,0,0,0-.26-0.44,1.24,1.24,0,0,0-.4-0.3,1.21,1.21,0,0,0-.52-0.11,1.25,1.25,0,0,0-.54.11,1.17,1.17,0,0,0-.39.3,1.31,1.31,0,0,0-.24.44,1.64,1.64,0,0,0-.08.51h0Z" transform="translate(0 0)"/><path class="c" d="M184.71,44.52v0.13a0.94,0.94,0,0,1,0,.13h-3a1.1,1.1,0,0,0,.11.45,1.17,1.17,0,0,0,.27.37,1.32,1.32,0,0,0,1.52.16,1.35,1.35,0,0,0,.44-0.41l0.53,0.42a1.89,1.89,0,0,1-.72.59,2.3,2.3,0,0,1-1.72,0,1.85,1.85,0,0,1-.63-0.4,1.88,1.88,0,0,1-.42-0.63,2.12,2.12,0,0,1-.15-0.82,2.18,2.18,0,0,1,.15-0.81,1.84,1.84,0,0,1,1-1,2.15,2.15,0,0,1,1.54,0,1.57,1.57,0,0,1,.58.39,1.76,1.76,0,0,1,.36.62A2.45,2.45,0,0,1,184.71,44.52Zm-0.77-.3a1.4,1.4,0,0,0-.08-0.42,0.92,0.92,0,0,0-.53-0.57,1.17,1.17,0,0,0-.46-0.08,1.22,1.22,0,0,0-.45.08,1.17,1.17,0,0,0-.37.23,1.19,1.19,0,0,0-.26.34,1.07,1.07,0,0,0-.12.42h2.26Z" transform="translate(0 0)"/><path class="c" d="M185.86,43.08c0-.16,0-0.3,0-0.42h0.71c0,0.1,0,.21,0,0.33s0,0.23,0,.31h0a1.31,1.31,0,0,1,.47-0.54,1.23,1.23,0,0,1,.69-0.2,1.16,1.16,0,0,1,.3,0l0,0.7a1.4,1.4,0,0,0-.34,0,1,1,0,0,0-.47.1,1,1,0,0,0-.33.27,1.14,1.14,0,0,0-.2.39,1.63,1.63,0,0,0-.06.46v2h-0.75v-3Q185.87,43.32,185.86,43.08Z" transform="translate(0 0)"/><path class="c" d="M160.37,61.45h-0.88l2.46-5.66h0.72l2.43,5.66h-0.9l-0.58-1.39h-2.69Zm0.85-2.09h2.12l-1.06-2.66Z" transform="translate(0 0)"/><path class="c" d="M166.18,62.1a1.81,1.81,0,0,0,.62.45,1.83,1.83,0,0,0,.76.17,1.62,1.62,0,0,0,.63-0.11,1.06,1.06,0,0,0,.41-0.3,1.14,1.14,0,0,0,.22-0.44,2.12,2.12,0,0,0,.07-0.55V60.83h0a1.34,1.34,0,0,1-.57.49,1.79,1.79,0,0,1-.77.17,2,2,0,0,1-.79-0.15,1.76,1.76,0,0,1-.6-0.42,1.87,1.87,0,0,1-.38-0.62,2.12,2.12,0,0,1-.14-0.76,2.15,2.15,0,0,1,.14-0.77,1.91,1.91,0,0,1,.38-0.63,1.8,1.8,0,0,1,.6-0.42,1.92,1.92,0,0,1,.78-0.16,1.8,1.8,0,0,1,.78.18,1.34,1.34,0,0,1,.59.54h0V57.66h0.73v3.6a3,3,0,0,1-.1.8,1.73,1.73,0,0,1-.35.67,1.76,1.76,0,0,1-.65.47,2.46,2.46,0,0,1-1,.18,2.93,2.93,0,0,1-1-.18,2.53,2.53,0,0,1-.86-0.51Zm0.22-2.58a1.52,1.52,0,0,0,.08.5,1.24,1.24,0,0,0,.65.72,1.21,1.21,0,0,0,.53.11,1.33,1.33,0,0,0,.53-0.1,1.22,1.22,0,0,0,.41-0.28,1.27,1.27,0,0,0,.26-0.42,1.47,1.47,0,0,0,.09-0.52,1.42,1.42,0,0,0-.09-0.51,1.28,1.28,0,0,0-.67-0.72,1.34,1.34,0,0,0-1.06,0,1.23,1.23,0,0,0-.4.29,1.21,1.21,0,0,0-.25.42,1.59,1.59,0,0,0-.08.52h0Z" transform="translate(0 0)"/><path class="c" d="M174.63,59.52v0.13a0.94,0.94,0,0,1,0,.13h-3a1.1,1.1,0,0,0,.11.45,1.17,1.17,0,0,0,.27.37,1.32,1.32,0,0,0,1.52.16,1.35,1.35,0,0,0,.44-0.41l0.53,0.42a1.89,1.89,0,0,1-.72.59,2.3,2.3,0,0,1-1.72,0,1.85,1.85,0,0,1-.63-0.4,1.88,1.88,0,0,1-.42-0.63,2.12,2.12,0,0,1-.15-0.82,2.18,2.18,0,0,1,.15-0.81,1.84,1.84,0,0,1,1-1,2.15,2.15,0,0,1,1.54,0,1.57,1.57,0,0,1,.58.39,1.76,1.76,0,0,1,.36.62A2.45,2.45,0,0,1,174.63,59.52Zm-0.77-.3a1.4,1.4,0,0,0-.08-0.42,0.92,0.92,0,0,0-.53-0.57,1.17,1.17,0,0,0-.46-0.08,1.22,1.22,0,0,0-.45.08,1.17,1.17,0,0,0-.37.23,1.19,1.19,0,0,0-.26.34,1.07,1.07,0,0,0-.12.42h2.26Z" transform="translate(0 0)"/></svg>